<svg xmlns="http://www.w3.org/2000/svg" width="1161.935" height="248.535"><g fill="#D9D9D9"><path d="M42.969 159.344c-5.859-.219-11.394-1.25-16.602-3.094-5.208-1.844-9.766-4.42-13.672-7.73-3.906-3.309-6.999-7.35-9.277-12.125C1.139 131.621 0 126.141 0 119.955c0-5.424.623-10.307 1.872-14.648 1.246-4.338 2.82-8.164 4.72-11.475 1.897-3.309 3.932-6.186 6.104-8.627 2.169-2.441 4.176-4.42 6.022-5.939 4.123-3.473 8.326-6.32 12.614-8.545 4.285-2.223 8.871-3.826 13.753-4.803-1.737-4.773-2.604-9.818-2.604-15.137 0-4.988.813-9.871 2.441-14.648-1.302-1.301-2.686-2.848-4.15-4.639-1.465-1.789-2.823-3.797-4.069-6.021-1.249-2.223-2.278-4.529-3.092-6.918-.814-2.385-1.221-4.773-1.221-7.16 0-.758.432-1.246 1.302-1.465.867 0 1.409.434 1.627 1.301.867 4.777 2.197 8.871 3.988 12.289 1.79 3.418 4.041 6.648 6.754 9.684 1.844-4.664 4.123-8.732 6.836-12.207 2.711-3.471 5.559-6.428 8.545-8.869 2.983-2.441 5.941-4.42 8.871-5.941 2.93-1.518 5.587-2.686 7.975-3.5 2.386-.813 5.099-1.545 8.138-2.197C89.03.164 91.634 0 94.238 0c3.037 0 6.022.383 8.952 1.141 2.93.76 5.534 1.953 7.813 3.58s4.122 3.719 5.534 6.266c1.408 2.551 2.115 5.563 2.115 9.033 0 4.668-1.221 8.818-3.662 12.451-2.441 3.637-5.562 6.73-9.358 9.277-3.8 2.551-8.003 4.504-12.614 5.859-4.613 1.359-9.033 2.035-13.265 2.035-6.294-.217-12.1-1.193-17.416-2.93-5.317-1.734-10.31-4.502-14.974-8.301-1.302 4.451-1.953 8.846-1.953 13.184 0 4.883.92 9.496 2.767 13.834 1.628-.324 3.228-.541 4.802-.65 1.571-.107 3.118-.162 4.639-.162 1.627 0 3.499.109 5.615.324 2.116.219 4.122.652 6.022 1.303 1.897.65 3.5 1.574 4.801 2.768 1.302 1.195 1.953 2.822 1.953 4.883 0 2.496-.87 4.26-2.604 5.289-1.737 1.033-3.69 1.547-5.859 1.547-5.208 0-9.631-1.275-13.265-3.826-3.637-2.547-6.213-5.289-7.731-8.219-6.51 1.303-12.451 3.58-17.822 6.836s-9.957 7.162-13.753 11.719c-3.799 4.557-6.729 9.658-8.789 15.299-2.063 5.645-3.092 11.504-3.092 17.578 0 6.078 1.193 11.395 3.581 15.951 2.386 4.557 5.506 8.357 9.359 11.393 3.85 3.039 8.138 5.291 12.858 6.756 4.72 1.465 9.412 2.197 14.079 2.197 6.292 0 12.395-.814 18.311-2.441 5.913-1.629 11.446-3.961 16.601-7 5.152-3.035 9.791-6.779 13.916-11.23 4.123-4.447 7.594-9.547 10.417-15.299.106-.65.542-.977 1.302-.977 1.084 0 1.628.545 1.628 1.627 0 .109-.028.191-.081.244-.057.057-.082.139-.082.244-6.294 12.154-14.811 21.484-25.553 27.996-10.745 6.509-22.899 9.765-36.461 9.765zM79.752 46.713c4.558-.107 9.005-.814 13.347-2.115 4.338-1.303 8.163-3.119 11.475-5.453 3.309-2.332 5.994-5.127 8.057-8.383 2.06-3.254 3.092-6.941 3.092-11.066 0-5.535-1.953-9.686-5.859-12.451-3.906-2.768-9.277-4.15-16.113-4.15-4.992 0-9.821.813-14.485 2.441-4.667 1.627-8.98 3.881-12.939 6.754-3.962 2.877-7.487 6.266-10.58 10.172-3.092 3.906-5.562 8.195-7.405 12.859 4.338 4.016 9.277 6.916 14.811 8.707s11.066 2.685 16.599 2.685zm-6.835 28.646c.107-.326.163-.814.163-1.465 0-1.734-.707-3.037-2.116-3.906-1.412-.867-2.986-1.49-4.72-1.873-1.737-.379-3.393-.594-4.964-.65-1.574-.053-2.47-.082-2.686-.082-1.847 0-3.5.082-4.964.244-1.465.164-2.795.354-3.988.57 1.844 2.93 4.448 5.289 7.813 7.08 3.362 1.791 6.617 2.686 9.766 2.686 2.819 0 4.719-.867 5.696-2.604zM244.3 124.188c.217.219.326.488.326.813 0 .436-.163.814-.488 1.141-12.264 10.852-23.873 19.205-34.831 25.064-10.961 5.859-20.508 8.789-28.646 8.789-6.511 0-11.259-1.709-14.242-5.127-2.985-3.418-4.476-8.273-4.476-14.566 0-3.363.351-6.943 1.058-10.742.705-3.797 1.6-7.65 2.686-11.557-8.463 5.859-16.275 11.584-23.438 17.172-7.161 5.59-13.346 10.578-18.555 14.973-5.208 4.395-10.795 9.25-16.764 14.568-.433.215-.758.324-.977.324-.977 0-1.465-.488-1.465-1.465 0-.434.109-.76.325-.977-.106.107 1.493-1.301 4.802-4.23 3.311-2.93 7.787-6.756 13.428-11.475 5.641-4.721 12.26-10.01 19.856-15.869 7.594-5.859 15.625-11.664 24.089-17.416.65-2.604 1.437-5.424 2.359-8.463.921-3.037 1.763-6.023 2.523-8.953.758-2.93 1.408-5.641 1.953-8.137.541-2.496.813-4.502.813-6.023 0-1.953-.354-3.199-1.058-3.742-.707-.543-1.928-.814-3.662-.814-1.847 0-4.477.463-7.895 1.383-3.418.924-8.112 2.742-14.078 5.453-2.823 1.303-5.615 2.66-8.383 4.068-2.767 1.412-5.427 2.795-7.975 4.15-2.551 1.359-4.883 2.633-6.999 3.826-2.116 1.195-3.878 2.225-5.29 3.092-.106.109-.379.162-.813.162-.325 0-.651-.105-.977-.324-.325-.217-.488-.543-.488-.977 0-.543 1.005-1.465 3.011-2.768 2.007-1.303 4.529-2.768 7.568-4.395 3.037-1.627 6.292-3.309 9.766-5.045 3.472-1.734 6.617-3.256 9.44-4.559 10.308-4.664 18.066-6.998 23.274-6.998 4.99 0 7.487 2.551 7.487 7.65 0 1.52-.219 3.363-.651 5.533-.435 2.172-1.004 4.557-1.709 7.162-.707 2.604-1.465 5.289-2.278 8.057-.813 2.766-1.546 5.451-2.197 8.057 10.849-7.488 21.456-14.186 31.819-20.102 10.361-5.912 20.317-10.93 29.867-15.055.106 0 .216-.025.325-.082.106-.053.216-.082.325-.082.977 0 1.465.488 1.465 1.465 0 .652-.271 1.086-.813 1.303-11.503 5.102-22.705 10.904-33.61 17.416-10.904 6.51-21.133 13.02-30.68 19.531-1.195 4.449-2.226 8.816-3.093 13.102-.87 4.287-1.302 8.275-1.302 11.963 0 5.428 1.192 9.549 3.58 12.369 2.386 2.824 6.348 4.232 11.882 4.232 7.813 0 17.034-2.873 27.669-8.627 10.633-5.75 21.973-13.887 34.018-24.414.432-.215.758-.324.977-.324.435.001.817.163 1.142.49z"/><path d="M391.921 115.723c.217.436.326.762.326.977 0 .652-.163 1.033-.488 1.141-15.084 13.564-30.004 23.656-44.76 30.273-14.758 6.619-29.678 10.035-44.759 10.254-6.62 0-12.914-.68-18.88-2.035-5.969-1.355-11.015-2.902-15.137-4.639-3.039-.867-6.104-2.141-9.196-3.824-3.093-1.682-5.888-3.717-8.382-6.104-14.865 24.738-27.805 45.246-38.818 61.523-11.012 16.275-19.829 27.775-26.449 34.504-.106.217-.732.896-1.871 2.035-1.14 1.139-2.549 2.359-4.232 3.662-1.681 1.303-3.524 2.467-5.533 3.5-2.007 1.029-3.879 1.545-5.615 1.545-1.953 0-3.443-.598-4.477-1.789-1.029-1.195-1.546-2.715-1.546-4.559 0-2.822 1.005-6.863 3.011-12.125 2.01-5.264 4.911-11.422 8.708-18.473 6.078-11.287 13.239-22.814 21.484-34.588 8.247-11.773 17.064-23.219 26.448-34.342 9.387-11.121 19.125-21.701 29.216-31.738 10.091-10.035 20.073-18.906 29.948-26.611 3.361-5.859 6.021-10.523 7.975-13.998 1.953-3.471 3.472-6.156 4.558-8.057 1.083-1.896 1.844-3.117 2.278-3.662.433-.541.758-.813.977-.813.326 0 .651.109.977.324.326.219.488.598.488 1.141 0-.107-.056-.025-.162.244-.109.271-.517 1.057-1.221 2.359-.707 1.303-1.818 3.365-3.337 6.186-1.521 2.822-3.69 6.729-6.511 11.719 5.315-4.34 11.365-7.758 18.148-10.254 6.779-2.496 14.457-3.744 23.03-3.744 5.208 0 9.791.68 13.753 2.035 3.96 1.357 7.243 3.174 9.848 5.451 2.604 2.279 4.557 4.939 5.859 7.977 1.302 3.039 1.953 6.24 1.953 9.602 0 3.475-.651 6.975-1.953 10.498-1.303 3.527-2.986 6.945-5.046 10.254-2.063 3.313-4.395 6.486-6.999 9.521-2.604 3.039-5.264 5.754-7.975 8.139-3.906 3.475-8.113 6.701-12.614 9.684-4.504 2.986-9.114 5.535-13.835 7.65-4.72 2.115-9.439 3.771-14.16 4.965-4.72 1.195-9.252 1.789-13.59 1.789 2.82.652 5.722 1.168 8.707 1.547 2.983.381 6.267.57 9.848.57 5.533 0 11.556-.596 18.066-1.791 6.51-1.193 13.453-3.281 20.833-6.266 7.378-2.984 15.162-7.025 23.356-12.127 8.191-5.098 16.736-11.609 25.635-19.531.325-.324.65-.488.977-.488.216 0 .406.057.569.164.164.11.352.219.57.325zM183.263 235.84c4.016-4.125 9.17-10.525 15.462-19.205 6.294-8.682 13.509-19.262 21.647-31.738 8.138-12.479 16.982-26.611 26.529-42.398 9.547-15.789 19.585-32.904 30.111-51.352-8.357 6.836-16.195 13.891-23.52 21.158-7.324 7.271-14.078 14.379-20.264 21.322-6.185 6.945-11.719 13.484-16.602 19.613s-9.005 11.527-12.369 16.193c-6.292 8.68-11.882 16.9-16.765 24.658s-8.978 14.813-12.288 21.16c-3.309 6.348-5.832 11.824-7.568 16.438-1.734 4.611-2.604 8.111-2.604 10.498 0 .867.244 1.654.732 2.361.488.703 1.33 1.057 2.522 1.057 1.195 0 2.523-.381 3.988-1.139 1.465-.76 2.904-1.684 4.313-2.768 1.412-1.086 2.714-2.172 3.906-3.254 1.198-1.085 2.119-1.952 2.77-2.604zm85.938-86.914c2.06.545 4.094.924 6.104 1.141 2.006.219 3.932.324 5.777.324 9.222.109 18.608-1.953 28.158-6.184 9.547-4.232 18.336-9.982 26.367-17.254 2.604-2.277 5.127-4.826 7.568-7.648 2.441-2.82 4.639-5.75 6.592-8.789 1.953-3.037 3.524-6.211 4.72-9.521 1.192-3.309 1.79-6.592 1.79-9.848 0-2.711-.488-5.396-1.465-8.057-.977-2.658-2.551-5.045-4.72-7.162-2.172-2.115-5.046-3.85-8.626-5.207-3.581-1.355-8.031-2.035-13.347-2.035-6.294 0-11.774.625-16.438 1.871-4.667 1.25-8.764 2.795-12.289 4.639-3.527 1.848-6.592 3.771-9.195 5.779-2.604 2.008-4.939 3.771-6.999 5.289-4.125 7.162-8.898 15.273-14.323 24.332-5.427 9.063-10.961 18.584-16.602 28.564 2.279 2.279 5.046 4.26 8.301 5.941 3.256 1.684 6.129 2.958 8.627 3.825z"/><path d="M395.5 154.949c-3.799-2.061-6.484-4.773-8.057-8.139-1.571-3.361-2.359-7.053-2.359-11.068 0-3.145.406-6.4 1.221-9.766.813-3.361 1.928-6.592 3.336-9.684 1.409-3.092 2.983-5.967 4.721-8.627 1.734-2.656 3.524-4.963 5.371-6.916-1.737-.867-3.012-1.52-3.825-1.953s-1.33-.787-1.546-1.059c-.219-.27-.301-.461-.244-.57.053-.105.081-.27.081-.488 0-.977.488-1.465 1.465-1.465.433 0 .595-.025.488-.08-.109-.055-.109 0 0 .162.106.162.514.463 1.221.895.704.436 2.197 1.195 4.476 2.279 9.115-9.766 18.637-17.521 28.564-23.275 9.929-5.75 19.504-8.625 28.728-8.625 3.146 0 6.185.434 9.114 1.301 2.93.871 5.534 2.092 7.813 3.662 2.279 1.574 4.095 3.475 5.453 5.697 1.355 2.225 2.034 4.695 2.034 7.406 0 4.557-1.384 8.572-4.15 12.043-2.767 3.475-6.185 6.348-10.254 8.627s-8.438 3.988-13.103 5.127c-4.666 1.139-8.951 1.709-12.857 1.709-4.776 0-9.334-.406-13.672-1.221-4.342-.814-8.275-1.734-11.801-2.768-3.527-1.029-6.592-2.115-9.195-3.254-2.604-1.141-4.613-2.035-6.022-2.686-1.628 1.52-3.312 3.555-5.046 6.104-1.736 2.551-3.283 5.316-4.639 8.301-1.357 2.984-2.497 6.131-3.418 9.439-.92 3.311-1.383 6.539-1.383 9.684 0 6.186 2.141 11.125 6.429 14.813 4.285 3.689 10.931 5.533 19.938 5.533 3.471 0 6.998-.244 10.579-.732s6.999-1.084 10.254-1.791c3.255-.703 6.185-1.465 8.789-2.277 2.604-.814 4.72-1.547 6.348-2.197 4.339-1.734 8.599-3.607 12.776-5.615 4.176-2.008 8.408-4.258 12.695-6.756 4.285-2.494 8.708-5.396 13.266-8.707 4.557-3.309 9.439-7.188 14.648-11.637.432-.217.758-.326.977-.326.325 0 .65.109.977.326.325.219.488.598.488 1.139 0 .436-.163.814-.488 1.139-5.318 4.559-10.311 8.492-14.975 11.801-4.666 3.311-9.17 6.24-13.509 8.789-4.341 2.551-8.626 4.801-12.858 6.754-4.231 1.953-8.572 3.854-13.021 5.697-2.388.869-5.046 1.736-7.976 2.604-2.93.871-5.996 1.629-9.195 2.279-3.202.65-6.485 1.193-9.848 1.627-3.364.434-6.673.652-9.928.652-3.475 0-6.836-.301-10.092-.896-3.255-.599-6.185-1.601-8.789-3.011zm13.346-53.06c1.734.76 3.825 1.574 6.267 2.441 2.441.869 5.127 1.656 8.057 2.359 2.93.707 6.075 1.303 9.439 1.791 3.362.488 6.78.732 10.254.732 4.448 0 8.896-.65 13.347-1.953 4.448-1.303 8.464-3.037 12.044-5.209 3.581-2.168 6.511-4.744 8.789-7.73 2.279-2.982 3.418-6.104 3.418-9.359 0-2.277-.569-4.365-1.709-6.266-1.139-1.896-2.686-3.553-4.639-4.965-1.953-1.408-4.206-2.494-6.754-3.254-2.551-.758-5.184-1.141-7.895-1.141-3.474 0-7.242.488-11.312 1.465s-8.41 2.633-13.021 4.965c-4.613 2.334-9.496 5.453-14.648 9.359-5.155 3.906-10.498 8.844-16.032 14.811l4.395 1.954z"/><path d="M542.15 162.436c-4.342-.219-7.597-1.521-9.766-3.906-2.172-2.385-3.256-5.479-3.256-9.277 0-4.123 1.303-8.842 3.906-14.16 2.604-5.314 5.697-10.686 9.277-16.113 3.581-5.424 7.269-10.605 11.068-15.543 3.797-4.938 6.889-9.088 9.277-12.451.541-.867 1.029-1.734 1.465-2.605.432-.867.65-1.68.65-2.441 0-.977-.354-1.709-1.058-2.197-.707-.488-1.546-.867-2.522-1.139-.977-.27-1.981-.432-3.012-.488-1.032-.053-1.818-.082-2.359-.082-.219 0-1.005-.053-2.36-.162-1.358-.107-3.011-.326-4.964-.65-1.953-.326-4.044-.787-6.267-1.385-2.226-.594-4.206-1.383-5.94-2.359-.436.65-.761 1.195-.977 1.627-4.883 8.357-10.229 16.223-16.032 23.602-5.806 7.379-12.126 14.16-18.962 20.344-.219.219-.544.326-.977.326-.977 0-1.465-.488-1.465-1.465 0-.432.163-.814.488-1.139 7.269-6.512 13.645-13.453 19.125-20.834 5.478-7.377 10.551-14.865 15.218-22.461.216-.326.433-.676.651-1.059.216-.379.325-.623.325-.732-1.628-1.191-2.795-2.576-3.499-4.15-.707-1.57-1.059-3.174-1.059-4.801s.244-2.93.732-3.906 1.059-1.709 1.709-2.197c.651-.488 1.303-.785 1.953-.895.651-.107 1.084-.164 1.303-.164 1.408 0 2.494.244 3.255.732.758.488 1.302 1.086 1.628 1.791.325.707.514 1.383.569 2.035.054.65.081 1.139.081 1.465 0 2.496-.923 5.59-2.767 9.277 1.302.76 2.849 1.41 4.639 1.953s3.553.977 5.29 1.301c1.734.326 3.361.57 4.883.732 1.518.164 2.711.244 3.58.244.651 0 1.628.057 2.93.164 1.303.109 2.604.354 3.906.732 1.303.381 2.441 1.031 3.418 1.953s1.465 2.197 1.465 3.824-.869 3.881-2.604 6.754c-1.737 2.877-3.935 6.104-6.592 9.686-2.66 3.58-5.534 7.434-8.627 11.555-3.092 4.125-5.969 8.275-8.626 12.451-2.66 4.18-4.857 8.275-6.592 12.289-1.737 4.016-2.604 7.705-2.604 11.068 0 6.619 3.96 9.928 11.882 9.928 2.711 0 6.129-.598 10.254-1.791 4.122-1.191 8.626-2.82 13.509-4.883 4.883-2.059 10.01-4.5 15.381-7.324 5.371-2.82 10.661-5.803 15.869-8.951.217-.217.488-.326.814-.326.325 0 .623.164.895.488.27.326.407.652.407.977 0 .545-.219.977-.651 1.303-5.643 3.475-11.258 6.648-16.846 9.521-5.59 2.877-10.933 5.346-16.031 7.406-5.102 2.059-9.822 3.662-14.16 4.801-4.338 1.136-8.082 1.707-11.227 1.707zm-9.766-97.168c-.109.219-.163.598-.163 1.139 0 1.195.27 2.471.813 3.826.542 1.357 1.246 2.307 2.116 2.848.867-1.844 1.465-3.336 1.79-4.477.326-1.139.488-2.088.488-2.848 0-.867-.219-1.627-.65-2.279-.436-.65-1.14-.977-2.116-.977-1.195.109-1.953 1.033-2.278 2.768z"/><path d="M613.109 156.414c-1.846 0-3.689-.107-5.533-.326-1.844-.217-3.5-.732-4.965-1.547-1.465-.813-2.629-1.979-3.499-3.498-.867-1.52-1.302-3.525-1.302-6.023 0-3.254.732-6.754 2.197-10.498 1.465-3.742 3.311-7.512 5.533-11.311 2.226-3.797 4.583-7.488 7.08-11.068 2.495-3.58 4.773-6.836 6.836-9.766 2.93-4.232 5.832-8.244 8.708-12.045 2.874-3.797 5.478-7.16 7.813-10.09 2.332-2.93 4.964-6.129 7.894-9.604.107-.326.488-.488 1.14-.488.977 0 1.465.488 1.465 1.465 0 .219-.109.545-.325.977-2.93 3.475-5.563 6.648-7.895 9.521-2.334 2.877-4.938 6.213-7.813 10.01-2.876 3.799-5.777 7.76-8.707 11.881-1.953 2.715-4.125 5.807-6.511 9.277-2.388 3.475-4.667 7.055-6.836 10.742-2.169 3.691-3.987 7.354-5.452 10.986-1.465 3.637-2.197 6.975-2.197 10.01 0 1.953.381 3.5 1.139 4.639.761 1.141 1.737 1.982 2.93 2.523 1.195.545 2.523.895 3.988 1.059 1.465.162 2.901.244 4.313.244 4.664 0 9.766-.949 15.3-2.85 5.534-1.896 11.093-4.395 16.683-7.486 5.588-3.092 11.121-6.592 16.602-10.498 5.479-3.906 10.552-7.92 15.219-12.045.432-.215.758-.324.977-.324.977 0 1.465.488 1.465 1.465 0 .434-.163.813-.488 1.139-4.883 4.125-10.01 8.193-15.381 12.207-5.371 4.016-10.88 7.596-16.521 10.742-5.644 3.148-11.312 5.697-17.009 7.65-5.699 1.954-11.314 2.93-16.848 2.93zm54.362-106.609c0 2.172-.761 4.045-2.278 5.615-1.521 1.574-3.365 2.361-5.534 2.361-2.172 0-4.044-.787-5.615-2.361-1.574-1.57-2.36-3.443-2.36-5.615 0-2.168.786-4.012 2.36-5.533 1.571-1.518 3.443-2.279 5.615-2.279 2.169 0 4.013.762 5.534 2.279 1.517 1.521 2.278 3.365 2.278 5.533z"/><path d="M684.886 154.949c-3.799-2.061-6.484-4.773-8.057-8.139-1.571-3.361-2.359-7.053-2.359-11.068 0-3.145.406-6.4 1.221-9.766.813-3.361 1.928-6.592 3.336-9.684 1.409-3.092 2.983-5.967 4.721-8.627 1.734-2.656 3.524-4.963 5.371-6.916-1.737-.867-3.012-1.52-3.825-1.953s-1.33-.787-1.546-1.059c-.219-.27-.301-.461-.244-.57.053-.105.081-.27.081-.488 0-.977.488-1.465 1.465-1.465.433 0 .595-.025.488-.08-.109-.055-.109 0 0 .162.106.162.514.463 1.221.895.704.436 2.197 1.195 4.476 2.279 9.115-9.766 18.637-17.521 28.564-23.275 9.929-5.75 19.504-8.625 28.728-8.625 3.146 0 6.185.434 9.114 1.301 2.93.871 5.534 2.092 7.813 3.662 2.279 1.574 4.095 3.475 5.453 5.697 1.355 2.225 2.034 4.695 2.034 7.406 0 4.557-1.384 8.572-4.15 12.043-2.767 3.475-6.185 6.348-10.254 8.627s-8.438 3.988-13.103 5.127c-4.666 1.139-8.951 1.709-12.857 1.709-4.776 0-9.334-.406-13.672-1.221-4.342-.814-8.275-1.734-11.801-2.768-3.527-1.029-6.592-2.115-9.195-3.254-2.604-1.141-4.613-2.035-6.022-2.686-1.628 1.52-3.312 3.555-5.046 6.104-1.736 2.551-3.283 5.316-4.639 8.301-1.357 2.984-2.497 6.131-3.418 9.439-.92 3.311-1.383 6.539-1.383 9.684 0 6.186 2.141 11.125 6.429 14.813 4.285 3.689 10.931 5.533 19.938 5.533 3.471 0 6.998-.244 10.579-.732s6.999-1.084 10.254-1.791c3.255-.703 6.185-1.465 8.789-2.277 2.604-.814 4.72-1.547 6.348-2.197 4.339-1.734 8.599-3.607 12.776-5.615 4.176-2.008 8.408-4.258 12.695-6.756 4.285-2.494 8.708-5.396 13.266-8.707 4.557-3.309 9.439-7.188 14.648-11.637.432-.217.758-.326.977-.326.325 0 .65.109.977.326.325.219.488.598.488 1.139 0 .436-.163.814-.488 1.139-5.318 4.559-10.311 8.492-14.975 11.801-4.666 3.311-9.17 6.24-13.509 8.789-4.341 2.551-8.626 4.801-12.858 6.754-4.231 1.953-8.572 3.854-13.021 5.697-2.388.869-5.046 1.736-7.976 2.604-2.93.871-5.996 1.629-9.195 2.279-3.202.65-6.485 1.193-9.848 1.627-3.364.434-6.673.652-9.928.652-3.475 0-6.836-.301-10.092-.896-3.255-.599-6.184-1.601-8.789-3.011zm13.347-53.06c1.734.76 3.825 1.574 6.267 2.441 2.441.869 5.127 1.656 8.057 2.359 2.93.707 6.075 1.303 9.439 1.791 3.362.488 6.78.732 10.254.732 4.448 0 8.896-.65 13.347-1.953 4.448-1.303 8.464-3.037 12.044-5.209 3.581-2.168 6.511-4.744 8.789-7.73 2.279-2.982 3.418-6.104 3.418-9.359 0-2.277-.569-4.365-1.709-6.266-1.139-1.896-2.686-3.553-4.639-4.965-1.953-1.408-4.206-2.494-6.754-3.254-2.551-.758-5.184-1.141-7.895-1.141-3.474 0-7.242.488-11.312 1.465s-8.41 2.633-13.021 4.965c-4.613 2.334-9.496 5.453-14.648 9.359-5.155 3.906-10.498 8.844-16.032 14.811l4.395 1.954z"/><path d="M764.314 156.414c-.217.219.406-.652 1.871-2.605s3.418-4.582 5.859-7.893c2.441-3.309 5.236-7.162 8.383-11.557 3.148-4.395 6.348-9.033 9.603-13.916 4.664-6.943 8.407-12.83 11.23-17.66 2.82-4.826 5.018-8.869 6.592-12.125 1.571-3.256 2.63-5.803 3.174-7.65.542-1.844.813-3.254.813-4.23 0-.652-.081-1.111-.244-1.385-.162-.27-.244-.568-.244-.895 0-.977.488-1.465 1.465-1.465 1.193 0 1.791 1.195 1.791 3.58 0 2.389-1.521 6.865-4.558 13.428-3.039 6.566-8.194 15.545-15.462 26.938 13.888-14.865 27.425-26.096 40.608-33.691 13.184-7.594 25.525-11.393 37.028-11.393 6.617 0 11.881 1.057 15.787 3.174 3.906 2.115 5.859 5.398 5.859 9.846 0 2.172-.435 4.369-1.302 6.592-.87 2.227-1.847 4.26-2.93 6.104-1.086 1.848-2.063 3.338-2.93 4.477-.87 1.139-1.358 1.766-1.465 1.871-1.411 1.848-2.714 3.527-3.906 5.047-1.195 1.52-2.522 3.254-3.987 5.207s-2.904 4.07-4.313 6.348c-6.62 10.311-9.929 18.23-9.929 23.764 0 2.279.705 4.207 2.116 5.777 1.409 1.574 3.688 2.361 6.836 2.361 3.688 0 8.326-1.303 13.916-3.906 5.587-2.605 12.126-6.512 19.612-11.719 3.472-2.387 6.755-4.773 9.848-7.162 3.092-2.385 5.831-4.557 8.219-6.51 2.386-1.953 4.937-4.176 7.65-6.674.432-.217.758-.326.977-.326.977 0 1.465.488 1.465 1.465 0 .436-.163.814-.488 1.141-2.389 2.172-4.992 4.395-7.813 6.672-2.389 1.953-5.127 4.15-8.22 6.592s-6.376 4.857-9.847 7.244c-15.193 10.635-26.965 15.949-35.319 15.949-3.8 0-6.729-1.029-8.789-3.092-2.063-2.061-3.093-4.664-3.093-7.813 0-6.291 3.472-14.756 10.417-25.391 1.519-2.17 3.011-4.285 4.476-6.348 1.465-2.061 2.793-3.85 3.988-5.371 1.408-1.844 2.767-3.525 4.068-5.045 1.409-1.844 2.711-3.744 3.906-5.697.977-1.627 1.872-3.471 2.686-5.533.814-2.061 1.221-4.014 1.221-5.859 0-6.727-6.294-10.092-18.88-10.092-6.62 0-13.184 1.168-19.694 3.5-6.51 2.334-12.805 5.346-18.88 9.033-6.078 3.689-11.882 7.893-17.415 12.613-5.534 4.721-10.636 9.469-15.3 14.242-4.667 4.775-8.843 9.387-12.532 13.834-3.688 4.451-6.78 8.248-9.277 11.393-1.628 2.172-3.174 4.232-4.639 6.186s-2.768 3.689-3.906 5.209c-1.14 1.52-2.36 3.254-3.662 5.207l-2.44-1.791z"/><path d="M956.045 157.879c-9.984 0-17.606-1.709-22.868-5.127s-7.894-8.221-7.894-14.404c0-5.426 1.818-11.365 5.452-17.822 3.635-6.455 8.301-12.668 13.998-18.637 5.696-5.967 11.988-11.203 18.88-15.707 6.89-4.5 13.591-7.512 20.101-9.033 2.386-.541 4.611-.947 6.674-1.221 2.06-.27 3.959-.406 5.696-.406 4.883 0 8.57 1.139 11.067 3.418 2.495 2.279 3.744 5.154 3.744 8.627 0 1.846-.301 3.689-.896 5.533-.598 1.846-1.33 2.768-2.197 2.768-.977 0-1.465-.434-1.465-1.303 0-.758.27-1.734.813-2.93.542-1.193.814-2.494.814-3.906 0-2.82-1.005-5.07-3.012-6.754-2.009-1.682-5.073-2.523-9.195-2.523-3.8 0-7.869.625-12.207 1.871-4.342 1.25-8.736 3.039-13.184 5.371-4.451 2.336-8.871 5.209-13.266 8.627s-8.545 7.299-12.451 11.637c-5.208 5.859-9.224 11.613-12.044 17.254-2.823 5.643-4.231 10.688-4.231 15.137 0 3.689 1.004 6.646 3.011 8.869 2.007 2.227 4.448 3.906 7.324 5.047 2.874 1.139 5.913 1.871 9.114 2.197 3.199.324 5.994.488 8.383.488 1.518 0 2.767-.025 3.743-.082.977-.053 1.519-.082 1.628-.082 2.711-.215 5.233-.488 7.568-.813 2.332-.326 5.07-.758 8.219-1.303 3.146-.541 6.564-1.303 10.254-2.279 3.472-.867 7.378-2.088 11.719-3.662 4.339-1.57 8.896-3.523 13.672-5.859 4.773-2.332 9.71-5.127 14.812-8.381 5.099-3.256 10.198-7 15.3-11.23.432-.217.758-.326.977-.326.977 0 1.465.488 1.465 1.465 0 .65-.163 1.033-.488 1.139-8.357 6.836-17.334 12.859-26.938 18.066-9.603 5.209-19.559 9.115-29.866 11.719-7.38 1.848-13.509 3.039-18.392 3.582-4.883.541-7.597.813-8.139.813-.219 0-.842.025-1.871.082-1.032.051-2.305.08-3.824.08z"/><path d="M1051.257 154.949c-3.799-2.061-6.484-4.773-8.057-8.139-1.571-3.361-2.359-7.053-2.359-11.068 0-3.145.406-6.4 1.221-9.766.813-3.361 1.928-6.592 3.336-9.684 1.409-3.092 2.983-5.967 4.721-8.627 1.734-2.656 3.524-4.963 5.371-6.916-1.737-.867-3.012-1.52-3.825-1.953s-1.33-.787-1.546-1.059c-.219-.27-.301-.461-.244-.57.053-.105.081-.27.081-.488 0-.977.488-1.465 1.465-1.465.433 0 .595-.025.488-.08-.109-.055-.109 0 0 .162.106.162.514.463 1.221.895.704.436 2.197 1.195 4.476 2.279 9.115-9.766 18.637-17.521 28.564-23.275 9.929-5.75 19.504-8.625 28.728-8.625 3.146 0 6.185.434 9.114 1.301 2.93.871 5.534 2.092 7.813 3.662 2.279 1.574 4.095 3.475 5.453 5.697 1.355 2.225 2.034 4.695 2.034 7.406 0 4.557-1.384 8.572-4.15 12.043-2.767 3.475-6.185 6.348-10.254 8.627s-8.438 3.988-13.103 5.127c-4.666 1.139-8.951 1.709-12.857 1.709-4.776 0-9.334-.406-13.672-1.221-4.342-.814-8.275-1.734-11.801-2.768-3.527-1.029-6.592-2.115-9.195-3.254-2.604-1.141-4.613-2.035-6.022-2.686-1.628 1.52-3.312 3.555-5.046 6.104-1.736 2.551-3.283 5.316-4.639 8.301-1.357 2.984-2.497 6.131-3.418 9.439-.92 3.311-1.383 6.539-1.383 9.684 0 6.186 2.141 11.125 6.429 14.813 4.285 3.689 10.931 5.533 19.938 5.533 3.471 0 6.998-.244 10.579-.732s6.999-1.084 10.254-1.791c3.255-.703 6.185-1.465 8.789-2.277 2.604-.814 4.72-1.547 6.348-2.197 4.339-1.734 8.599-3.607 12.776-5.615 4.176-2.008 8.408-4.258 12.695-6.756 4.285-2.494 8.708-5.396 13.266-8.707 4.557-3.309 9.439-7.188 14.648-11.637.432-.217.758-.326.977-.326.325 0 .65.109.977.326.325.219.488.598.488 1.139 0 .436-.163.814-.488 1.139-5.318 4.559-10.311 8.492-14.975 11.801-4.666 3.311-9.17 6.24-13.509 8.789-4.341 2.551-8.626 4.801-12.858 6.754-4.231 1.953-8.572 3.854-13.021 5.697-2.388.869-5.046 1.736-7.976 2.604-2.93.871-5.996 1.629-9.195 2.279-3.202.65-6.485 1.193-9.848 1.627-3.364.434-6.673.652-9.928.652-3.475 0-6.836-.301-10.092-.896-3.254-.599-6.184-1.601-8.789-3.011zm13.347-53.06c1.734.76 3.825 1.574 6.267 2.441 2.441.869 5.127 1.656 8.057 2.359 2.93.707 6.075 1.303 9.439 1.791 3.362.488 6.78.732 10.254.732 4.448 0 8.896-.65 13.347-1.953 4.448-1.303 8.464-3.037 12.044-5.209 3.581-2.168 6.511-4.744 8.789-7.73 2.279-2.982 3.418-6.104 3.418-9.359 0-2.277-.569-4.365-1.709-6.266-1.139-1.896-2.686-3.553-4.639-4.965-1.953-1.408-4.206-2.494-6.754-3.254-2.551-.758-5.184-1.141-7.895-1.141-3.474 0-7.242.488-11.312 1.465s-8.41 2.633-13.021 4.965c-4.613 2.334-9.496 5.453-14.648 9.359-5.155 3.906-10.498 8.844-16.032 14.811l4.395 1.954z"/></g></svg>