<svg xmlns="http://www.w3.org/2000/svg" width="1036.75" height="182.461"><g fill="#3B4DFF"><path d="M21.445 179.473c-3.752-1.406-6.974-3.367-9.668-5.889-2.697-2.518-4.922-5.389-6.68-8.613-1.758-3.221-3.049-6.648-3.867-10.283C.409 151.057 0 147.365 0 143.613c0-8.67 1.991-17.723 5.977-27.158 3.982-9.432 9.256-18.748 15.82-27.949 6.562-9.197 14.12-18.045 22.676-26.543 8.553-8.494 17.342-16.084 26.367-22.764-.821-1.17-1.7-2.518-2.637-4.043-.939-1.521-1.788-3.164-2.549-4.922-.764-1.758-1.379-3.543-1.846-5.361-.47-1.814-.703-3.604-.703-5.361 0-.936.527-1.406 1.582-1.406.585 0 .937.176 1.055.527.115.352.233.703.352 1.055.585 3.164 1.494 6.271 2.725 9.316 1.23 3.049 2.782 5.801 4.658 8.262 5.507-3.982 11.074-7.615 16.699-10.898 5.625-3.279 11.132-6.033 16.523-8.262 5.389-2.225 10.574-3.955 15.557-5.186 4.979-1.23 9.52-1.846 13.623-1.846 7.031 0 12.068 1.582 15.117 4.746 3.046 3.164 4.57 7.092 4.57 11.777 0 2.813-.47 5.51-1.406 8.086-.939 2.58-2.109 4.807-3.516 6.68-.352.471-1.318 1.643-2.9 3.516-1.582 1.877-3.897 3.867-6.943 5.977-3.049 2.109-6.828 4.016-11.338 5.713-4.513 1.701-9.816 2.549-15.908 2.549-5.158 0-9.904-.555-14.238-1.67-4.337-1.111-8.204-2.549-11.602-4.307-3.4-1.758-6.358-3.719-8.877-5.889-2.521-2.166-4.543-4.363-6.064-6.592-8.907 6.916-17.551 14.533-25.928 22.852-8.38 8.322-15.793 16.936-22.236 25.84-6.446 8.908-11.632 17.902-15.557 26.982-3.928 9.084-5.889 17.842-5.889 26.279.115 5.041.937 9.729 2.461 14.063 1.521 4.338 3.749 8.117 6.68 11.338 2.928 3.225 6.531 5.744 10.811 7.559 4.276 1.816 9.286 2.725 15.029 2.725 5.273-.236 9.989-.879 14.15-1.934 4.158-1.055 8.465-2.928 12.92-5.625 2.461-1.406 5.098-3.164 7.91-5.273s5.74-4.627 8.789-7.559c3.046-2.928 6.18-6.328 9.404-10.195 3.222-3.867 6.474-8.318 9.756-13.359.352-.467.818-.703 1.406-.703 1.055 0 1.582.527 1.582 1.582 0 .352-.118.646-.352.879-6.68 10.314-13.214 18.4-19.6 24.258-6.389 5.861-12.159 10.256-17.314 13.184-4.807 2.695-9.553 4.686-14.238 5.977-4.688 1.289-9.492 1.934-14.414 1.934-2.461 0-5.128-.205-7.998-.615-2.873-.415-5.773-1.206-8.701-2.376zm62.051-131.66c3.397 2.58 7.674 4.746 12.832 6.504 5.155 1.758 10.898 2.637 17.227 2.637 5.858 0 10.956-.818 15.293-2.461 4.334-1.639 7.91-3.484 10.723-5.537 2.813-2.049 4.922-3.924 6.328-5.625 1.406-1.697 2.167-2.605 2.285-2.725 1.17-1.639 2.167-3.631 2.988-5.977.818-2.342 1.23-4.686 1.23-7.031 0-1.639-.236-3.279-.703-4.922-.47-1.639-1.318-3.076-2.549-4.307s-2.931-2.225-5.098-2.988c-2.17-.76-4.895-1.143-8.174-1.143-3.867 0-8.174.588-12.92 1.758-4.746 1.174-9.729 2.873-14.941 5.098-5.216 2.229-10.607 4.922-16.172 8.086-5.567 3.164-11.104 6.74-16.611 10.723 1.17 1.406 2.431 2.756 3.779 4.043 1.346 1.29 2.841 2.579 4.483 3.867zM129.727 174.727c-4.104-2.225-7.004-5.154-8.701-8.789-1.697-3.631-2.549-7.615-2.549-11.953 0-3.396.439-6.912 1.318-10.547.879-3.631 2.082-7.119 3.604-10.459s3.222-6.443 5.098-9.316c1.873-2.869 3.807-5.361 5.801-7.471-1.876-.936-3.252-1.639-4.131-2.109-.879-.467-1.437-.848-1.67-1.143-.236-.291-.324-.496-.264-.615.058-.115.088-.291.088-.527 0-1.055.527-1.582 1.582-1.582.467 0 .643-.027.527-.088-.118-.057-.118 0 0 .176.115.176.555.5 1.318.967.761.471 2.373 1.291 4.834 2.461 9.844-10.547 20.127-18.924 30.85-25.137 10.723-6.209 21.063-9.316 31.025-9.316 3.397 0 6.68.471 9.844 1.406 3.164.939 5.977 2.258 8.438 3.955 2.461 1.701 4.422 3.752 5.889 6.152 1.464 2.404 2.197 5.07 2.197 7.998 0 4.922-1.494 9.26-4.482 13.008-2.988 3.752-6.68 6.855-11.074 9.316s-9.113 4.307-14.15 5.537c-5.04 1.23-9.668 1.846-13.887 1.846-5.158 0-10.08-.439-14.766-1.318-4.688-.879-8.938-1.873-12.744-2.988-3.81-1.111-7.119-2.285-9.932-3.516s-4.982-2.197-6.504-2.9c-1.758 1.643-3.576 3.84-5.449 6.592-1.876 2.756-3.546 5.744-5.01 8.965-1.467 3.225-2.697 6.623-3.691 10.195-.994 3.576-1.494 7.063-1.494 10.459 0 6.68 2.313 12.014 6.943 15.996 4.628 3.986 11.805 5.977 21.533 5.977 3.749 0 7.559-.264 11.426-.791s7.559-1.17 11.074-1.934c3.516-.76 6.68-1.582 9.492-2.461s5.098-1.67 6.855-2.373c4.686-1.873 9.286-3.895 13.799-6.064 4.51-2.166 9.08-4.598 13.711-7.295 4.628-2.693 9.404-5.828 14.326-9.404 4.922-3.572 10.195-7.762 15.82-12.568.467-.232.818-.352 1.055-.352.352 0 .703.119 1.055.352.352.236.527.646.527 1.23 0 .471-.176.879-.527 1.23-5.743 4.922-11.135 9.172-16.172 12.744-5.04 3.576-9.904 6.74-14.59 9.492-4.688 2.756-9.316 5.186-13.887 7.295s-9.259 4.162-14.063 6.152c-2.579.939-5.449 1.877-8.613 2.813-3.164.939-6.477 1.758-9.932 2.461-3.458.703-7.004 1.289-10.635 1.758-3.634.467-7.207.703-10.723.703-3.752 0-7.383-.324-10.898-.967-3.515-.646-6.679-1.728-9.491-3.253zm14.414-57.305c1.873.822 4.131 1.701 6.768 2.637 2.637.939 5.537 1.789 8.701 2.549 3.164.764 6.562 1.406 10.195 1.934 3.631.527 7.322.791 11.074.791 4.804 0 9.607-.703 14.414-2.109 4.804-1.406 9.141-3.279 13.008-5.625 3.867-2.342 7.031-5.125 9.492-8.35 2.461-3.221 3.691-6.592 3.691-10.107 0-2.461-.615-4.715-1.846-6.768-1.23-2.049-2.9-3.836-5.01-5.361-2.109-1.521-4.543-2.693-7.295-3.516-2.755-.818-5.598-1.23-8.525-1.23-3.752 0-7.822.527-12.217 1.582s-9.083 2.844-14.063 5.361c-4.982 2.521-10.256 5.889-15.82 10.107-5.567 4.219-11.338 9.553-17.314 15.996l4.747 2.109z"/><path d="M404.121 137.461c.233.471.352.879.352 1.23 0 .236-.118.588-.352 1.055-4.219 3.867-9.113 8.029-14.678 12.48-5.567 4.455-11.426 8.586-17.578 12.393-6.152 3.811-12.453 6.975-18.896 9.492-6.446 2.521-12.717 3.779-18.809 3.779-1.758 0-3.722-.148-5.889-.439-2.17-.293-4.219-.879-6.152-1.758s-3.546-2.078-4.834-3.604c-1.291-1.521-1.934-3.455-1.934-5.801 0-3.516 2.109-7.85 6.328-13.008-10.313 8.322-19.894 14.885-28.74 19.688-8.85 4.805-16.963 7.207-24.346 7.207-3.752 0-7.355-.588-10.811-1.758-3.458-1.172-6.504-2.869-9.141-5.098-2.637-2.225-4.716-4.922-6.24-8.086-1.521-3.164-2.285-6.795-2.285-10.898 0-11.834 8.319-24.842 24.961-39.023 11.25-9.492 22.646-16.844 34.189-22.061 11.541-5.213 22.47-7.822 32.783-7.822 4.922 0 9.374.588 13.359 1.758.233 0 1.143.295 2.725.879 1.582.588 3.279 1.555 5.098 2.9 1.815 1.35 3.455 3.107 4.922 5.273 1.464 2.17 2.197 4.895 2.197 8.174 0 8.086-5.158 17.521-15.469 28.301 4.219-2.813 8.289-5.537 12.217-8.174 3.925-2.637 7.383-4.949 10.371-6.943 2.988-1.99 5.419-3.572 7.295-4.746 1.873-1.17 2.928-1.758 3.164-1.758.115-.115.352-.176.703-.176 1.055 0 1.582.527 1.582 1.582 0 .352-.615.91-1.846 1.67-1.23.764-3.164 1.934-5.801 3.516s-5.977 3.723-10.02 6.416c-4.043 2.697-8.819 6.037-14.326 10.02-9.844 7.15-17.257 13.479-22.236 18.984-4.982 5.51-7.471 9.963-7.471 13.359 0 1.643.555 3.02 1.67 4.131 1.112 1.115 2.461 1.965 4.043 2.549 1.582.588 3.252.998 5.01 1.23 1.758.236 3.34.352 4.746.352 5.273 0 10.811-1.082 16.611-3.252 5.801-2.166 11.659-5.01 17.578-8.525 5.916-3.516 11.747-7.498 17.49-11.953 5.74-4.451 11.132-9.021 16.172-13.711.467-.232.818-.352 1.055-.352.469.001.882.176 1.233.528zm-135.527 39.551c4.922 0 9.959-1.023 15.117-3.076 5.155-2.049 10.283-4.715 15.381-7.998 5.098-3.279 10.107-6.855 15.029-10.723s9.607-7.674 14.063-11.426c5.858-4.803 10.662-9.197 14.414-13.184 3.749-3.982 6.737-7.615 8.965-10.898 2.225-3.279 3.749-6.18 4.57-8.701.818-2.518 1.23-4.715 1.23-6.592 0-2.693-.646-4.949-1.934-6.768-1.291-1.814-2.725-3.279-4.307-4.395-1.582-1.111-3.049-1.902-4.395-2.373-1.349-.467-2.082-.703-2.197-.703-3.867-1.055-8.028-1.582-12.48-1.582-9.962 0-20.509 2.549-31.641 7.646-11.135 5.098-22.209 12.277-33.223 21.533-15.938 13.479-23.906 25.664-23.906 36.563 0 3.516.676 6.68 2.021 9.492s3.164 5.186 5.449 7.119 4.979 3.428 8.086 4.482c3.105 1.056 6.357 1.584 9.758 1.584z"/><path d="M416.776 173.145c-.939-1.873-1.406-3.924-1.406-6.152 0-5.273 2.488-10.398 7.471-15.381 4.979-4.979 13.623-10.107 25.928-15.381.585 0 .879-.232.879-.703v-1.23c0-5.977-.324-11.689-.967-17.139-.646-5.449-1.085-10.986-1.318-16.611-5.273 4.455-10.547 8.938-15.82 13.447-5.273 4.514-10.05 8.613-14.326 12.305-4.279 3.691-9.171 7.941-14.678 12.744-.236.236-.588.352-1.055.352-1.055 0-1.582-.467-1.582-1.406 0-.467.176-.879.527-1.23 0-.115 1.434-1.434 4.307-3.955 2.87-2.518 6.562-5.74 11.074-9.668 4.51-3.924 9.52-8.23 15.029-12.92 5.507-4.686 10.956-9.256 16.348-13.711 0-9.492 1.23-16.26 3.691-20.303s5.449-6.064 8.965-6.064c2.225 0 3.955.703 5.186 2.109s1.846 3.107 1.846 5.098c0 2.109-.615 4.191-1.846 6.24-1.23 2.053-2.725 3.955-4.482 5.713s-3.576 3.371-5.449 4.834c-1.876 1.467-3.458 2.725-4.746 3.779 0 6.328.409 12.217 1.23 17.666.818 5.449 1.23 10.93 1.23 16.436v2.461c2.928-1.17 5.713-2.254 8.35-3.252 2.637-.994 4.949-1.785 6.943-2.373 2.343-.703 4.51-1.346 6.504-1.934 3.516-1.055 7.646-1.99 12.393-2.813 4.746-.818 9.52-1.23 14.326-1.23h3.076c1.112 0 1.67.527 1.67 1.582s-.527 1.582-1.582 1.582h-2.988c-4.688 0-9.347.412-13.975 1.23-4.631.822-8.644 1.701-12.041 2.637l-6.855 2.285c-2.109.703-4.513 1.525-7.207 2.461-2.697.939-5.567 2.053-8.613 3.34 0 14.182-2.14 24.758-6.416 31.729-4.279 6.975-9.756 10.459-16.436 10.459-2.697 0-5.273-.588-7.734-1.758-2.463-1.174-4.281-2.93-5.451-5.275zm32.871-33.926c-10.665 4.455-18.518 8.965-23.555 13.535-5.04 4.57-7.559 9.377-7.559 14.414 0 3.516 1.2 6.064 3.604 7.646 2.4 1.582 5.01 2.373 7.822 2.373 3.867 0 7.031-1.17 9.492-3.516 2.461-2.342 4.422-5.361 5.889-9.053 1.464-3.691 2.488-7.791 3.076-12.305.585-4.508.995-8.875 1.231-13.094zm5.801-63.985c-1.406 1.291-2.549 3.516-3.428 6.68s-1.437 7.207-1.67 12.129c1.055-.703 2.343-1.609 3.867-2.725 1.521-1.111 2.988-2.4 4.395-3.867 1.406-1.463 2.606-3.076 3.604-4.834.994-1.758 1.494-3.631 1.494-5.625 0-.352-.206-1.055-.615-2.109-.412-1.055-1.494-1.582-3.252-1.582-1.407 0-2.874.646-4.395 1.933z"/><path d="M504.137 174.727c-4.104-2.225-7.004-5.154-8.701-8.789-1.697-3.631-2.549-7.615-2.549-11.953 0-3.396.439-6.912 1.318-10.547.879-3.631 2.082-7.119 3.604-10.459s3.222-6.443 5.098-9.316c1.873-2.869 3.807-5.361 5.801-7.471-1.876-.936-3.252-1.639-4.131-2.109-.879-.467-1.437-.848-1.67-1.143-.236-.291-.324-.496-.264-.615.058-.115.088-.291.088-.527 0-1.055.527-1.582 1.582-1.582.467 0 .643-.027.527-.088-.118-.057-.118 0 0 .176.115.176.555.5 1.318.967.761.471 2.373 1.291 4.834 2.461 9.844-10.547 20.127-18.924 30.85-25.137 10.723-6.209 21.063-9.316 31.025-9.316 3.397 0 6.68.471 9.844 1.406 3.164.939 5.977 2.258 8.438 3.955 2.461 1.701 4.422 3.752 5.889 6.152 1.464 2.404 2.197 5.07 2.197 7.998 0 4.922-1.494 9.26-4.482 13.008-2.988 3.752-6.68 6.855-11.074 9.316s-9.113 4.307-14.15 5.537c-5.04 1.23-9.668 1.846-13.887 1.846-5.158 0-10.08-.439-14.766-1.318-4.688-.879-8.938-1.873-12.744-2.988-3.81-1.111-7.119-2.285-9.932-3.516s-4.982-2.197-6.504-2.9c-1.758 1.643-3.576 3.84-5.449 6.592-1.876 2.756-3.546 5.744-5.01 8.965-1.467 3.225-2.697 6.623-3.691 10.195-.994 3.576-1.494 7.063-1.494 10.459 0 6.68 2.313 12.014 6.943 15.996 4.628 3.986 11.805 5.977 21.533 5.977 3.749 0 7.559-.264 11.426-.791s7.559-1.17 11.074-1.934c3.516-.76 6.68-1.582 9.492-2.461s5.098-1.67 6.855-2.373c4.686-1.873 9.286-3.895 13.799-6.064 4.51-2.166 9.08-4.598 13.711-7.295 4.628-2.693 9.404-5.828 14.326-9.404 4.922-3.572 10.195-7.762 15.82-12.568.467-.232.818-.352 1.055-.352.352 0 .703.119 1.055.352.352.236.527.646.527 1.23 0 .471-.176.879-.527 1.23-5.743 4.922-11.135 9.172-16.172 12.744-5.04 3.576-9.904 6.74-14.59 9.492-4.688 2.756-9.316 5.186-13.887 7.295s-9.259 4.162-14.063 6.152c-2.579.939-5.449 1.877-8.613 2.813-3.164.939-6.477 1.758-9.932 2.461-3.458.703-7.004 1.289-10.635 1.758-3.634.467-7.207.703-10.723.703-3.752 0-7.383-.324-10.898-.967-3.515-.646-6.679-1.728-9.491-3.253zm14.414-57.305c1.873.822 4.131 1.701 6.768 2.637 2.637.939 5.537 1.789 8.701 2.549 3.164.764 6.562 1.406 10.195 1.934 3.631.527 7.322.791 11.074.791 4.804 0 9.607-.703 14.414-2.109 4.804-1.406 9.141-3.279 13.008-5.625 3.867-2.342 7.031-5.125 9.492-8.35 2.461-3.221 3.691-6.592 3.691-10.107 0-2.461-.615-4.715-1.846-6.768-1.23-2.049-2.9-3.836-5.01-5.361-2.109-1.521-4.543-2.693-7.295-3.516-2.755-.818-5.598-1.23-8.525-1.23-3.752 0-7.822.527-12.217 1.582s-9.083 2.844-14.063 5.361c-4.982 2.521-10.256 5.889-15.82 10.107-5.567 4.219-11.338 9.553-17.314 15.996l4.747 2.109z"/><path d="M630.348 178.594c-3.4 0-6.271-.469-8.613-1.406-2.343-.936-4.246-2.197-5.713-3.779-1.464-1.582-2.549-3.396-3.252-5.449-.703-2.049-1.055-4.131-1.055-6.24 0-2.461.236-4.598.703-6.416.47-1.814.764-2.84.879-3.076 2.228-6.209 5.07-12.801 8.525-19.775 3.455-6.971 7.177-13.943 11.162-20.918 3.982-6.971 8.056-13.768 12.217-20.391 4.158-6.619 8.056-12.684 11.689-18.193 3.867-5.977 7.586-11.482 11.162-16.523 3.573-5.037 6.737-9.404 9.492-13.096 2.752-3.691 5.771-7.703 9.053-12.041 0-.115 1.143-1.463 3.428-4.043 2.285-2.576 5.125-5.477 8.525-8.701 3.397-3.221 7.059-6.416 10.986-9.58 3.925-3.164 7.586-5.449 10.986-6.855C723.803.703 726.733 0 729.313 0c3.867 0 6.883 1.262 9.053 3.779 2.167 2.521 3.252 5.598 3.252 9.229 0 2.461-.47 5.158-1.406 8.086-.939 2.932-2.14 5.861-3.604 8.789-1.467 2.932-3.106 5.801-4.922 8.613-1.818 2.813-3.604 5.449-5.361 7.91-5.273 7.268-10.811 14.035-16.611 20.303-5.801 6.271-12.568 12.717-20.303 19.336-7.734 6.623-16.787 13.711-27.158 21.27s-22.764 16.26-37.178 26.104c-1.643 3.4-3.194 6.768-4.658 10.107s-2.84 6.652-4.131 9.932c-.233.703-.467 1.525-.703 2.461-.233.822-.409 1.73-.527 2.725-.115.998-.176 2.021-.176 3.076 0 4.689 1.555 8.174 4.658 10.459s6.943 3.428 11.514 3.428c3.631 0 7.498-.643 11.602-1.934 7.383-2.225 14.15-4.57 20.303-7.031s12.011-5.186 17.578-8.174c5.564-2.988 11.014-6.268 16.348-9.844 5.331-3.572 10.868-7.586 16.611-12.041.467-.232.818-.352 1.055-.352 1.055 0 1.582.527 1.582 1.582 0 .703-.176 1.115-.527 1.23-5.861 4.455-11.514 8.525-16.963 12.217s-11.017 7.063-16.699 10.107c-5.686 3.049-11.662 5.861-17.93 8.438-6.271 2.58-13.156 4.922-20.654 7.031-2.346.703-4.631 1.17-6.855 1.406-2.231.235-4.282.352-6.155.352zm55.371-141.24c-1.994 2.521-4.543 5.949-7.646 10.283-3.106 4.338-6.71 9.465-10.811 15.381-4.104 5.92-8.35 12.336-12.744 19.248-4.395 6.916-8.877 14.211-13.447 21.885-4.57 7.678-8.907 15.5-13.008 23.467 9.141-6.328 17.372-12.098 24.697-17.314 7.322-5.213 13.944-10.135 19.863-14.766 5.916-4.627 11.277-8.992 16.084-13.096 4.804-4.1 9.229-8.201 13.271-12.305 4.043-4.1 7.85-8.23 11.426-12.393 3.573-4.158 7.059-8.582 10.459-13.271 4.804-6.68 8.438-12.713 10.898-18.105 2.461-5.389 3.691-9.9 3.691-13.535 0-2.928-.852-5.273-2.549-7.031-1.7-1.758-3.955-2.637-6.768-2.637-2.697 0-5.537.734-8.525 2.197-2.988 1.467-5.949 3.313-8.877 5.537-2.931 2.229-5.743 4.631-8.438 7.207-2.697 2.58-5.098 4.982-7.207 7.207-2.109 2.229-4.455 4.865-7.031 7.91-.235.236-1.347 1.613-3.338 4.131z"/><path d="M721.225 174.727c-4.104-2.225-7.004-5.154-8.701-8.789-1.697-3.631-2.549-7.615-2.549-11.953 0-3.396.439-6.912 1.318-10.547.879-3.631 2.082-7.119 3.604-10.459s3.222-6.443 5.098-9.316c1.873-2.869 3.807-5.361 5.801-7.471-1.876-.936-3.252-1.639-4.131-2.109-.879-.467-1.437-.848-1.67-1.143-.236-.291-.324-.496-.264-.615.058-.115.088-.291.088-.527 0-1.055.527-1.582 1.582-1.582.467 0 .643-.027.527-.088-.118-.057-.118 0 0 .176.115.176.555.5 1.318.967.761.471 2.373 1.291 4.834 2.461 9.844-10.547 20.127-18.924 30.85-25.137 10.723-6.209 21.063-9.316 31.025-9.316 3.397 0 6.68.471 9.844 1.406 3.164.939 5.977 2.258 8.438 3.955 2.461 1.701 4.422 3.752 5.889 6.152 1.464 2.404 2.197 5.07 2.197 7.998 0 4.922-1.494 9.26-4.482 13.008-2.988 3.752-6.68 6.855-11.074 9.316s-9.113 4.307-14.15 5.537c-5.04 1.23-9.668 1.846-13.887 1.846-5.158 0-10.08-.439-14.766-1.318-4.688-.879-8.938-1.873-12.744-2.988-3.81-1.111-7.119-2.285-9.932-3.516s-4.982-2.197-6.504-2.9c-1.758 1.643-3.576 3.84-5.449 6.592-1.876 2.756-3.546 5.744-5.01 8.965-1.467 3.225-2.697 6.623-3.691 10.195-.994 3.576-1.494 7.063-1.494 10.459 0 6.68 2.313 12.014 6.943 15.996 4.628 3.986 11.805 5.977 21.533 5.977 3.749 0 7.559-.264 11.426-.791s7.559-1.17 11.074-1.934c3.516-.76 6.68-1.582 9.492-2.461s5.098-1.67 6.855-2.373c4.686-1.873 9.286-3.895 13.799-6.064 4.51-2.166 9.08-4.598 13.711-7.295 4.628-2.693 9.404-5.828 14.326-9.404 4.922-3.572 10.195-7.762 15.82-12.568.467-.232.818-.352 1.055-.352.352 0 .703.119 1.055.352.352.236.527.646.527 1.23 0 .471-.176.879-.527 1.23-5.743 4.922-11.135 9.172-16.172 12.744-5.04 3.576-9.904 6.74-14.59 9.492-4.688 2.756-9.316 5.186-13.887 7.295s-9.259 4.162-14.063 6.152c-2.579.939-5.449 1.877-8.613 2.813-3.164.939-6.477 1.758-9.932 2.461-3.458.703-7.004 1.289-10.635 1.758-3.634.467-7.207.703-10.723.703-3.752 0-7.383-.324-10.898-.967-3.515-.646-6.679-1.728-9.491-3.253zm14.414-57.305c1.873.822 4.131 1.701 6.768 2.637 2.637.939 5.537 1.789 8.701 2.549 3.164.764 6.562 1.406 10.195 1.934 3.631.527 7.322.791 11.074.791 4.804 0 9.607-.703 14.414-2.109 4.804-1.406 9.141-3.279 13.008-5.625 3.867-2.342 7.031-5.125 9.492-8.35 2.461-3.221 3.691-6.592 3.691-10.107 0-2.461-.615-4.715-1.846-6.768-1.23-2.049-2.9-3.836-5.01-5.361-2.109-1.521-4.543-2.693-7.295-3.516-2.755-.818-5.598-1.23-8.525-1.23-3.752 0-7.822.527-12.217 1.582s-9.083 2.844-14.063 5.361c-4.982 2.521-10.256 5.889-15.82 10.107-5.567 4.219-11.338 9.553-17.314 15.996l4.747 2.109z"/><path d="M852.357 173.145c-.939-1.873-1.406-3.924-1.406-6.152 0-5.273 2.488-10.398 7.471-15.381 4.979-4.979 13.623-10.107 25.928-15.381.585 0 .879-.232.879-.703v-1.23c0-5.977-.324-11.689-.967-17.139-.646-5.449-1.085-10.986-1.318-16.611-5.273 4.455-10.547 8.938-15.82 13.447-5.273 4.514-10.05 8.613-14.326 12.305-4.279 3.691-9.171 7.941-14.678 12.744-.236.236-.588.352-1.055.352-1.055 0-1.582-.467-1.582-1.406 0-.467.176-.879.527-1.23 0-.115 1.434-1.434 4.307-3.955 2.87-2.518 6.562-5.74 11.074-9.668 4.51-3.924 9.52-8.23 15.029-12.92 5.507-4.686 10.956-9.256 16.348-13.711 0-9.492 1.23-16.26 3.691-20.303s5.449-6.064 8.965-6.064c2.225 0 3.955.703 5.186 2.109s1.846 3.107 1.846 5.098c0 2.109-.615 4.191-1.846 6.24-1.23 2.053-2.725 3.955-4.482 5.713s-3.576 3.371-5.449 4.834c-1.876 1.467-3.458 2.725-4.746 3.779 0 6.328.409 12.217 1.23 17.666.818 5.449 1.23 10.93 1.23 16.436v2.461c2.928-1.17 5.713-2.254 8.35-3.252 2.637-.994 4.949-1.785 6.943-2.373 2.343-.703 4.51-1.346 6.504-1.934 3.516-1.055 7.646-1.99 12.393-2.813 4.746-.818 9.52-1.23 14.326-1.23h3.076c1.112 0 1.67.527 1.67 1.582s-.527 1.582-1.582 1.582h-2.988c-4.688 0-9.347.412-13.975 1.23-4.631.822-8.644 1.701-12.041 2.637l-6.855 2.285c-2.109.703-4.513 1.525-7.207 2.461-2.697.939-5.567 2.053-8.613 3.34 0 14.182-2.14 24.758-6.416 31.729-4.279 6.975-9.756 10.459-16.436 10.459-2.697 0-5.273-.588-7.734-1.758-2.462-1.174-4.281-2.93-5.451-5.275zm32.872-33.926c-10.665 4.455-18.518 8.965-23.555 13.535-5.04 4.57-7.559 9.377-7.559 14.414 0 3.516 1.2 6.064 3.604 7.646 2.4 1.582 5.01 2.373 7.822 2.373 3.867 0 7.031-1.17 9.492-3.516 2.461-2.342 4.422-5.361 5.889-9.053 1.464-3.691 2.488-7.791 3.076-12.305.585-4.508.994-8.875 1.231-13.094zm5.8-63.985c-1.406 1.291-2.549 3.516-3.428 6.68s-1.437 7.207-1.67 12.129c1.055-.703 2.343-1.609 3.867-2.725 1.521-1.111 2.988-2.4 4.395-3.867 1.406-1.463 2.606-3.076 3.604-4.834.994-1.758 1.494-3.631 1.494-5.625 0-.352-.206-1.055-.615-2.109-.412-1.055-1.494-1.582-3.252-1.582-1.406 0-2.873.646-4.395 1.933z"/><path d="M947.453 173.145c-.939-1.873-1.406-3.924-1.406-6.152 0-5.273 2.488-10.398 7.471-15.381 4.979-4.979 13.623-10.107 25.928-15.381.585 0 .879-.232.879-.703v-1.23c0-5.977-.324-11.689-.967-17.139-.646-5.449-1.085-10.986-1.318-16.611-5.273 4.455-10.547 8.938-15.82 13.447-5.273 4.514-10.05 8.613-14.326 12.305-4.279 3.691-9.171 7.941-14.678 12.744-.236.236-.588.352-1.055.352-1.055 0-1.582-.467-1.582-1.406 0-.467.176-.879.527-1.23 0-.115 1.434-1.434 4.307-3.955 2.87-2.518 6.562-5.74 11.074-9.668 4.51-3.924 9.52-8.23 15.029-12.92 5.507-4.686 10.956-9.256 16.348-13.711 0-9.492 1.23-16.26 3.691-20.303s5.449-6.064 8.965-6.064c2.225 0 3.955.703 5.186 2.109s1.846 3.107 1.846 5.098c0 2.109-.615 4.191-1.846 6.24-1.23 2.053-2.725 3.955-4.482 5.713s-3.576 3.371-5.449 4.834c-1.876 1.467-3.458 2.725-4.746 3.779 0 6.328.409 12.217 1.23 17.666.818 5.449 1.23 10.93 1.23 16.436v2.461c2.928-1.17 5.713-2.254 8.35-3.252 2.637-.994 4.949-1.785 6.943-2.373 2.343-.703 4.51-1.346 6.504-1.934 3.516-1.055 7.646-1.99 12.393-2.813 4.746-.818 9.52-1.23 14.326-1.23h3.076c1.112 0 1.67.527 1.67 1.582s-.527 1.582-1.582 1.582h-2.988c-4.688 0-9.347.412-13.975 1.23-4.631.822-8.644 1.701-12.041 2.637l-6.855 2.285c-2.109.703-4.513 1.525-7.207 2.461-2.697.939-5.567 2.053-8.613 3.34 0 14.182-2.14 24.758-6.416 31.729-4.279 6.975-9.756 10.459-16.436 10.459-2.697 0-5.273-.588-7.734-1.758-2.463-1.174-4.281-2.93-5.451-5.275zm32.871-33.926c-10.665 4.455-18.518 8.965-23.555 13.535-5.04 4.57-7.559 9.377-7.559 14.414 0 3.516 1.2 6.064 3.604 7.646 2.4 1.582 5.01 2.373 7.822 2.373 3.867 0 7.031-1.17 9.492-3.516 2.461-2.342 4.422-5.361 5.889-9.053 1.464-3.691 2.488-7.791 3.076-12.305.586-4.508.995-8.875 1.231-13.094zm5.801-63.985c-1.406 1.291-2.549 3.516-3.428 6.68s-1.437 7.207-1.67 12.129c1.055-.703 2.343-1.609 3.867-2.725 1.521-1.111 2.988-2.4 4.395-3.867 1.406-1.463 2.606-3.076 3.604-4.834.994-1.758 1.494-3.631 1.494-5.625 0-.352-.206-1.055-.615-2.109-.412-1.055-1.494-1.582-3.252-1.582-1.407 0-2.874.646-4.395 1.933z"/></g></svg>