<svg xmlns="http://www.w3.org/2000/svg" width="338.9" height="87.238" viewBox="228.42 125.831 338.9 87.238"><path d="M296.879 139.46c.034.035.052.104.052.209 0 .313-.156.468-.468.468-.243 0-.382-.104-.416-.313-.382-.798-.876-1.475-1.483-2.028-.606-.555-1.292-1.006-2.055-1.354-.763-.347-1.579-.599-2.445-.754-.867-.156-1.717-.234-2.549-.234-1.699 0-3.295.156-4.786.469.173.07.329.13.468.183s.294.112.469.183c1.732.798 3.216 1.683 4.447 2.653 1.23.971 2.264 1.984 3.096 3.043s1.481 2.099 1.95 3.121.823 1.977 1.066 2.86c.242.886.398 1.664.468 2.341.069.678.104 1.172.104 1.482 0 2.324-.512 4.563-1.535 6.711-1.023 2.15-2.393 4.05-4.11 5.696-1.716 1.646-3.676 2.965-5.878 3.953-2.203.987-4.482 1.481-6.841 1.481-1.769 0-3.521-.303-5.254-.91-1.734-.604-3.433-1.517-5.098-2.729-.625-.451-1.17-.902-1.64-1.354-.468-.448-.857-.849-1.17-1.194-.382-.382-.711-.765-.989-1.146-.069-.069-.104-.156-.104-.261 0-.347.138-.521.417-.521.138 0 .277.07.416.209.728 1.007 1.604 1.935 2.627 2.783 1.022.851 2.124 1.578 3.303 2.185 1.18.606 2.419 1.085 3.721 1.432 1.3.347 2.592.521 3.875.521 2.011 0 4.04-.435 6.086-1.302 2.046-.864 3.9-2.063 5.565-3.589 1.665-1.525 3.025-3.312 4.084-5.357 1.058-2.046 1.586-4.248 1.586-6.606 0-.312-.035-.823-.104-1.534-.07-.711-.234-1.524-.494-2.444-.26-.918-.659-1.906-1.196-2.966-.538-1.058-1.284-2.098-2.236-3.121-.954-1.022-2.143-2.004-3.563-2.938-1.423-.938-3.139-1.751-5.15-2.445-2.496.729-4.82 1.898-6.971 3.513-2.15 1.611-4.197 3.52-6.138 5.723-1.943 2.202-3.808 4.629-5.592 7.282-1.787 2.652-3.546 5.366-5.28 8.142-1.387 2.22-2.688 4.439-3.901 6.658-1.214 2.221-2.385 4.336-3.512 6.347-1.127 2.012-2.246 3.876-3.355 5.593-1.109 1.718-2.255 3.207-3.434 4.474-1.179 1.266-2.437 2.264-3.771 2.992-1.335.729-2.802 1.092-4.396 1.092-1.457 0-2.775-.398-3.954-1.196s-1.975-1.946-2.391-3.436v-.054c0-.348.174-.52.52-.52.208 0 .348.121.417.363.278 1.282.928 2.254 1.951 2.914 1.022.657 2.159.987 3.407.987 1.145 0 2.219-.218 3.226-.649 1.005-.436 1.969-1.033 2.888-1.795.918-.765 1.795-1.675 2.627-2.731.832-1.058 1.665-2.228 2.497-3.511 1.317-2.047 2.704-4.396 4.161-7.049 1.457-2.653 3.009-5.41 4.656-8.271 1.646-2.861 3.39-5.723 5.229-8.584 1.838-2.861 3.789-5.531 5.852-8.011 2.063-2.479 4.24-4.664 6.529-6.556 2.289-1.89 4.699-3.285 7.23-4.188-.625-.243-1.361-.45-2.211-.624s-1.708-.32-2.575-.442c-.866-.122-1.708-.208-2.522-.261-.815-.052-1.519-.078-2.107-.078-2.255 0-4.474.271-6.658.808-2.186.538-4.267 1.431-6.242 2.68.312.451.58.971.806 1.561.225.591.398 1.188.521 1.795.121.606.208 1.205.26 1.795.052.591.078 1.109.078 1.562 0 2.08-.373 3.633-1.119 4.655s-1.777 1.534-3.095 1.534c-1.283 0-2.237-.398-2.861-1.196-.625-.798-.938-1.803-.938-3.018 0-.521.112-1.152.338-1.898.226-.745.547-1.525.963-2.341.416-.814.936-1.63 1.561-2.445.624-.814 1.354-1.534 2.185-2.158-.623-.729-1.317-1.335-2.08-1.82-.243-.139-.581-.304-1.016-.493-.434-.191-.867-.392-1.3-.601-.434-.207-.807-.39-1.119-.545-.312-.156-.468-.287-.468-.391 0-.348.173-.521.521-.521h.104c.832.278 1.561.564 2.185.858.625.295 1.283.686 1.978 1.17.692.486 1.334 1.076 1.925 1.77 1.838-1.179 3.857-2.09 6.061-2.73 2.202-.643 4.431-.962 6.686-.962 3.85 0 7.751.606 11.705 1.819.9-.276 1.847-.484 2.835-.624.988-.138 2.003-.208 3.043-.208 1.005 0 2.002.078 2.991.234.987.156 1.916.416 2.782.779.867.365 1.647.867 2.342 1.51.686.637 1.258 1.444 1.71 2.414zm-39.171 2.03c-.14-1.074-.521-2.063-1.146-2.965-.798.623-1.481 1.317-2.055 2.08-.572.764-1.058 1.518-1.457 2.264s-.694 1.456-.884 2.133c-.191.676-.286 1.223-.286 1.639 0 .867.199 1.631.598 2.289s1.135.988 2.211.988c.971 0 1.77-.425 2.394-1.274.624-.851.936-2.177.936-3.979 0-.905-.103-1.961-.311-3.175zm48.898 42.24c-1.387-.069-2.428-.486-3.121-1.248-.693-.764-1.041-1.751-1.041-2.966 0-1.317.417-2.825 1.249-4.525.833-1.698 1.821-3.415 2.965-5.149 1.145-1.733 2.323-3.391 3.538-4.969 1.214-1.577 2.202-2.904 2.966-3.979.173-.276.328-.555.468-.832.138-.277.208-.537.208-.78 0-.313-.113-.547-.338-.702-.227-.156-.494-.277-.808-.364-.312-.086-.633-.139-.962-.155-.33-.019-.582-.025-.754-.025-.07 0-.321-.019-.754-.053-.434-.034-.962-.104-1.587-.208-.624-.104-1.292-.251-2.002-.442-.711-.188-1.345-.441-1.899-.754-.139.208-.242.382-.312.52-1.562 2.673-3.27 5.187-5.124 7.543-1.856 2.359-3.875 4.526-6.062 6.505-.069.068-.174.104-.312.104-.313 0-.468-.156-.468-.469 0-.139.052-.26.155-.363 2.323-2.082 4.361-4.301 6.112-6.659 1.751-2.357 3.373-4.751 4.864-7.179.069-.104.138-.217.208-.338.069-.121.104-.199.104-.234-.52-.381-.893-.823-1.117-1.326-.227-.503-.339-1.015-.339-1.534 0-.521.078-.937.234-1.248.156-.313.338-.548.546-.703.208-.156.417-.25.625-.285s.346-.053.416-.053c.45 0 .797.078 1.041.233.242.156.416.349.521.572.104.227.165.441.182.65.017.208.026.362.026.468 0 .798-.296 1.786-.886 2.966.417.242.911.451 1.483.624.572.174 1.135.312 1.689.416.556.104 1.075.183 1.562.233.485.053.867.077 1.145.077.208 0 .521.02.938.054.416.035.833.112 1.249.233s.78.33 1.092.624c.313.295.468.702.468 1.223s-.277 1.24-.833 2.159c-.555.918-1.257 1.95-2.105 3.096-.852 1.144-1.77 2.376-2.757 3.692-.988 1.318-1.908 2.646-2.758 3.979-.851 1.336-1.553 2.645-2.106 3.928-.555 1.283-.833 2.463-.833 3.537 0 2.115 1.266 3.174 3.797 3.174.867 0 1.959-.19 3.277-.572 1.317-.382 2.757-.901 4.317-1.561 1.562-.659 3.199-1.439 4.916-2.342 1.718-.9 3.407-1.854 5.073-2.861.068-.067.154-.104.26-.104.104 0 .199.053.285.155.086.104.131.208.131.313 0 .174-.069.312-.209.416-1.803 1.109-3.598 2.125-5.384 3.043-1.786.919-3.494 1.709-5.124 2.367s-3.139 1.17-4.525 1.534c-1.388.362-2.584.544-3.59.544zm-3.121-31.057c-.034.07-.052.191-.052.365 0 .382.086.789.26 1.223.173.435.398.736.677.91.276-.59.468-1.065.571-1.432.104-.363.156-.666.156-.91 0-.277-.07-.52-.208-.729-.139-.207-.364-.313-.676-.313-.381.037-.623.332-.728.886z"/><path d="M333.085 182.533c-1.422-.069-2.627-.347-3.615-.832s-1.786-1.093-2.393-1.821c-.607-.729-1.05-1.534-1.327-2.418-.277-.885-.416-1.795-.416-2.73 0-1.354.227-2.645.677-3.876.45-1.23 1.014-2.394 1.69-3.485.676-1.093 1.411-2.098 2.211-3.017.797-.919 1.561-1.726 2.289-2.421 2.946-2.843 5.946-4.959 8.998-6.346 3.053-1.387 5.81-2.081 8.271-2.081 1.317 0 2.445.156 3.382.468.937.313 1.716.65 2.341 1.016.624.364 1.083.702 1.378 1.015.296.313.46.486.494.521.034.069.054.174.054.313 0 .14-.02.228-.054.26.59.141 1.022.451 1.302.938.276.485.416 1.022.416 1.612 0 1.317-.504 2.931-1.51 4.838s-2.601 4.058-4.785 6.45c1.109 1.145 2.357 1.985 3.745 2.522s2.861.807 4.422.807c1.733 0 3.485-.329 5.255-.987 1.769-.659 3.449-1.613 5.046-2.861.068-.07.155-.104.261-.104.346 0 .52.174.52.521 0 .174-.052.277-.155.313-1.699 1.317-3.469 2.322-5.307 3.017-1.839.694-3.692 1.04-5.565 1.04-1.699 0-3.321-.285-4.863-.857-1.544-.571-2.87-1.465-3.979-2.68-1.491 1.664-3.025 3.165-4.604 4.5s-3.165 2.471-4.76 3.407c-1.597.937-3.147 1.665-4.656 2.185-1.508.521-2.922.78-4.239.78h-.521v-.007zm16.543-28.144c-1.11 0-2.324.156-3.643.47-1.317.313-2.688.779-4.108 1.403-1.389.625-2.976 1.562-4.761 2.811-1.786 1.249-3.484 2.705-5.099 4.37-1.612 1.664-2.974 3.468-4.083 5.41-1.11 1.94-1.665 3.899-1.665 5.878 0 .832.121 1.665.364 2.497.242.832.65 1.568 1.223 2.211.573.642 1.334 1.161 2.289 1.561.953.398 2.123.598 3.511.598 2.463 0 5.255-.936 8.376-2.809s6.226-4.525 9.313-7.959c-.451-.693-.772-1.482-.963-2.367-.191-.885-.286-1.795-.286-2.729 0-1.146.147-2.246.442-3.306.294-1.057.701-1.992 1.223-2.809.521-.814 1.161-1.457 1.925-1.925.763-.468 1.612-.702 2.549-.702-.139-.173-.373-.407-.702-.702-.329-.294-.764-.581-1.301-.858-.538-.276-1.188-.52-1.95-.729-.765-.209-1.649-.314-2.654-.314zm6.605 3.538c-1.457.034-2.688.737-3.692 2.106-1.007 1.371-1.51 3.252-1.51 5.645 0 .8.069 1.569.208 2.314.14.746.383 1.449.729 2.106 1.769-2.08 3.19-4.022 4.266-5.825 1.074-1.804 1.612-3.348 1.612-4.63 0-.521-.121-.938-.364-1.249s-.66-.467-1.249-.467z"/><path d="M339.898 213.07c-1.074 0-1.897-.313-2.471-.937-.572-.625-.858-1.475-.858-2.55s.338-2.185 1.016-3.329c.676-1.145 1.587-2.313 2.73-3.512 1.146-1.196 2.479-2.394 4.005-3.59 1.526-1.195 3.156-2.375 4.892-3.537 1.734-1.162 3.52-2.314 5.356-3.459 1.839-1.146 3.625-2.236 5.358-3.277 1.526-2.358 3.096-4.854 4.708-7.49s3.182-5.235 4.708-7.804c1.526-2.565 2.956-5.011 4.291-7.335 1.335-2.323 2.506-4.369 3.512-6.139s1.795-3.164 2.367-4.188c.572-1.021.858-1.517.858-1.481.104-.14.241-.208.416-.208.104 0 .208.044.313.13.104.087.155.182.155.286 0 .104-.26.642-.78 1.611-.52.973-1.248 2.265-2.185 3.876-.938 1.612-2.028 3.485-3.277 5.618-1.248 2.133-2.593 4.414-4.031 6.841-1.438 2.429-2.946 4.935-4.525 7.518-1.577 2.584-3.146 5.141-4.708 7.674.625-.348 1.215-.695 1.77-1.041 2.186-1.283 4.369-2.584 6.555-3.901 2.186-1.316 4.31-2.652 6.372-4.006 2.063-1.353 4.04-2.739 5.932-4.161 1.89-1.422 3.632-2.879 5.228-4.37.104-.104.227-.155.364-.155.104 0 .208.052.313.155.104.104.156.208.156.313 0 .07-.019.131-.053.183-.035.053-.069.112-.104.184-1.839 1.733-3.857 3.39-6.061 4.967-2.203 1.579-4.492 3.122-6.867 4.631-2.376 1.508-4.812 3.008-7.309 4.5-2.497 1.49-4.959 2.981-7.388 4.473-2.981 4.683-5.636 8.637-7.959 11.861-2.322 3.226-4.317 5.756-5.981 7.595l-.729.729c-.416.416-.943.876-1.587 1.378-.641.503-1.359.954-2.158 1.354-.8.393-1.579.593-2.344.593zm18.937-22.421c-2.149 1.281-4.223 2.565-6.216 3.85-1.994 1.282-3.857 2.575-5.594 3.876-1.732 1.301-3.312 2.609-4.732 3.928-1.422 1.316-2.637 2.67-3.643 4.058-.763 1.075-1.145 2.133-1.145 3.174 0 .971.233 1.646.702 2.029.469.381.997.571 1.587.571.832 0 1.621-.209 2.367-.625.745-.416 1.403-.866 1.977-1.353s1.023-.919 1.353-1.3c.33-.384.494-.539.494-.47 1.562-1.664 3.416-3.987 5.566-6.971 2.152-2.983 4.579-6.572 7.284-10.767zm27.831-42.97c0 .694-.242 1.283-.729 1.77-.485.486-1.076.729-1.77.729s-1.292-.241-1.794-.729c-.504-.485-.755-1.074-.755-1.77 0-.692.251-1.292.755-1.795.502-.503 1.101-.755 1.794-.755.692 0 1.283.252 1.77.755s.729 1.103.729 1.795z"/><path d="M389.995 181.337c-1.215-.658-2.072-1.524-2.575-2.602-.502-1.074-.754-2.254-.754-3.537 0-1.006.13-2.045.39-3.121.261-1.074.616-2.107 1.066-3.096.449-.989.954-1.906 1.509-2.756.555-.851 1.127-1.589 1.717-2.212-.555-.276-.962-.485-1.223-.625-.261-.139-.426-.251-.494-.338-.069-.086-.096-.146-.078-.182s.026-.087.026-.156c0-.313.155-.469.468-.469.139 0 .189-.008.156-.025-.035-.018-.035 0 0 .053.033.052.163.146.391.285.225.14.702.383 1.431.729 2.913-3.121 5.956-5.601 9.129-7.439 3.175-1.838 6.232-2.757 9.183-2.757 1.006 0 1.977.14 2.912.416.938.278 1.77.668 2.498 1.171.728.503 1.309 1.109 1.741 1.82.434.711.65 1.5.65 2.367 0 1.457-.441 2.74-1.326 3.85-.885 1.11-1.977 2.028-3.276 2.757-1.302.729-2.697 1.274-4.188 1.64-1.492.363-2.861.546-4.109.546-1.526 0-2.983-.13-4.37-.392-1.388-.26-2.646-.554-3.771-.884-1.127-.329-2.106-.677-2.938-1.04s-1.475-.649-1.925-.857c-.521.484-1.059 1.136-1.612 1.949-.556.815-1.05 1.7-1.482 2.653-.434.954-.798 1.96-1.093 3.018-.294 1.059-.441 2.09-.441 3.096 0 1.977.685 3.556 2.056 4.733 1.368 1.181 3.492 1.77 6.371 1.77 1.109 0 2.238-.078 3.384-.234 1.145-.154 2.235-.347 3.276-.571 1.039-.227 1.978-.469 2.81-.729.832-.261 1.508-.494 2.028-.703 1.388-.555 2.748-1.151 4.082-1.795 1.336-.641 2.688-1.359 4.06-2.158 1.369-.797 2.783-1.725 4.24-2.782 1.454-1.059 3.016-2.298 4.682-3.721.139-.068.242-.104.313-.104.104 0 .207.035.312.104.104.07.156.191.156.364 0 .139-.052.26-.156.364-1.699 1.456-3.295 2.714-4.785 3.771-1.492 1.059-2.932 1.995-4.318 2.811-1.386.814-2.756 1.534-4.108 2.158-1.353.625-2.74 1.23-4.162 1.819-.762.279-1.611.557-2.549.833-.937.278-1.916.521-2.939.729-1.021.209-2.072.382-3.146.521-1.076.138-2.133.207-3.174.207-1.11 0-2.185-.096-3.225-.285-1.052-.192-1.988-.513-2.82-.964zm4.265-16.959c.555.243 1.223.504 2.002.781.781.277 1.639.528 2.576.754.936.226 1.94.416 3.016.572 1.076.155 2.168.233 3.277.233 1.422 0 2.844-.209 4.266-.625s2.705-.971 3.851-1.664c1.145-.692 2.082-1.518 2.811-2.472.729-.953 1.092-1.95 1.092-2.991 0-.729-.182-1.396-.547-2.002-.363-.606-.856-1.137-1.481-1.588-.623-.449-1.345-.797-2.158-1.039-.814-.242-1.656-.365-2.523-.365-1.108 0-2.313.156-3.614.47-1.302.313-2.688.842-4.162 1.586-1.476.746-3.035 1.743-4.683 2.992-1.646 1.248-3.354 2.825-5.124 4.732l1.401.626z"/><path d="M432.807 182.274c-3.19 0-5.627-.546-7.309-1.64-1.683-1.093-2.523-2.627-2.523-4.604 0-1.733.582-3.632 1.742-5.695 1.162-2.063 2.654-4.049 4.475-5.957 1.82-1.906 3.832-3.58 6.035-5.02 2.201-1.439 4.344-2.401 6.424-2.888.763-.174 1.474-.304 2.134-.391.657-.086 1.266-.131 1.819-.131 1.562 0 2.74.365 3.537 1.094.799.729 1.197 1.646 1.197 2.756 0 .591-.096 1.181-.287 1.771-.189.59-.424.885-.701.885-.313 0-.469-.139-.469-.417 0-.242.086-.554.26-.938.174-.381.26-.797.26-1.247 0-.901-.319-1.621-.961-2.159-.643-.537-1.623-.807-2.938-.807-1.215 0-2.517.199-3.902.599-1.387.398-2.791.971-4.213 1.717s-2.836 1.664-4.24 2.757c-1.403 1.093-2.729 2.333-3.979 3.72-1.666 1.873-2.949 3.711-3.851 5.515-.901 1.805-1.354 3.417-1.354 4.838 0 1.18.322 2.125.963 2.836s1.422 1.248 2.34 1.612c.92.363 1.891.599 2.914.701 1.023.104 1.916.156 2.68.156.484 0 .884-.008 1.195-.024.313-.018.486-.027.521-.027.864-.068 1.672-.155 2.418-.26.745-.104 1.62-.242 2.627-.416 1.006-.173 2.098-.416 3.276-.729 1.109-.276 2.357-.667 3.746-1.17 1.387-.502 2.844-1.127 4.369-1.873 1.525-.745 3.104-1.639 4.734-2.679 1.629-1.04 3.26-2.237 4.891-3.589.137-.07.242-.104.311-.104.313 0 .47.155.47.468 0 .21-.054.33-.156.364-2.67 2.186-5.539 4.11-8.609 5.774-3.067 1.664-6.252 2.913-9.545 3.746-2.358.59-4.317.971-5.879 1.144-1.561.173-2.428.261-2.602.261-.07 0-.269.009-.599.025s-.733.026-1.221.026z"/><path d="M459.962 170.57c.936-.833 1.932-1.691 2.99-2.576 1.059-.884 2.133-1.785 3.227-2.705 1.092-.918 2.176-1.82 3.25-2.705 1.074-.884 2.115-1.725 3.121-2.521 2.324-1.907 4.647-3.78 6.971-5.618-.416 0-1.117-.019-2.104-.054-.988-.032-2.064-.086-3.228-.154-1.163-.069-2.297-.139-3.406-.208-1.11-.069-1.977-.14-2.602-.209-.313-.068-.469-.242-.469-.521 0-.277.156-.416.469-.416h.287c.121 0 .32.019.598.053 3.746.312 7.388.521 10.924.623 2.322-4.368 4.457-8.271 6.398-11.704s3.65-6.338 5.125-8.714c1.473-2.375 2.713-4.188 3.719-5.436 1.006-1.249 1.75-1.873 2.236-1.873.139 0 .338.052.6.156.261.104.39.416.39.936 0 .486-.086 1.033-.261 1.64-.174.606-.313 1.05-.416 1.326-.971 2.532-2.192 5.013-3.668 7.438-1.475 2.428-2.989 4.691-4.551 6.789-1.561 2.099-3.053 3.971-4.475 5.618-1.422 1.646-2.549 2.938-3.381 3.876.729 0 1.446.008 2.157.024.712.018 1.414.026 2.107.026 2.463 0 4.873-.052 7.23-.156.313 0 .469.156.469.468 0 .209-.295.356-.885.442-.591.087-1.293.14-2.105.156-.816.019-1.639.025-2.473.025h-1.978c-.901 0-1.795-.008-2.678-.025-.885-.018-1.779-.043-2.68-.078-.175.174-.313.321-.416.442-.104.121-.209.233-.313.338-1.352 2.565-2.637 5.012-3.85 7.335-1.215 2.322-2.271 4.37-3.174 6.139-.903 1.769-1.621 3.19-2.158 4.266-.539 1.075-.824 1.631-.857 1.665-.244.451-.436.902-.572 1.353-.176.383-.313.815-.418 1.301-.104.486-.153.972-.153 1.457 0 2.115 1.334 3.173 4.004 3.173 1.561 0 3.147-.232 4.76-.702 1.613-.469 3.201-1.065 4.762-1.795 1.562-.729 3.052-1.543 4.474-2.444 1.422-.9 2.729-1.794 3.928-2.679 1.197-.885 2.236-1.698 3.121-2.444s1.568-1.326 2.055-1.743c.14-.069.242-.104.313-.104.313 0 .469.156.469.47 0 .139-.053.26-.156.363-1.977 1.77-4.031 3.391-6.164 4.864s-4.223 2.74-6.27 3.797c-2.047 1.06-4.031 1.882-5.957 2.471-1.924.591-3.666.886-5.228.886-1.7 0-2.965-.382-3.799-1.146-.832-.762-1.248-1.769-1.248-3.018 0-.521.062-1.04.183-1.562.121-.52.262-.987.416-1.403.155-.416.295-.754.418-1.015.121-.261.196-.425.231-.494s.32-.625.859-1.665c.537-1.039 1.256-2.4 2.158-4.084.901-1.682 1.926-3.605 3.069-5.773 1.146-2.166 2.322-4.396 3.537-6.686-.035.035-.461.383-1.274 1.04-.814.66-1.847 1.492-3.097 2.498-1.248 1.006-2.617 2.115-4.108 3.328-1.49 1.215-2.912 2.386-4.267 3.513-1.352 1.128-2.541 2.133-3.563 3.018-1.023.885-1.691 1.5-2.004 1.847-.138.141-.277.208-.416.208-.172 0-.293-.052-.363-.155-.068-.104-.104-.207-.104-.313.005-.175.091-.332.264-.47zm22.004-18.676c.797-.902 1.916-2.187 3.354-3.851 1.439-1.665 2.923-3.555 4.447-5.67 1.527-2.115 2.992-4.379 4.396-6.789 1.403-2.41 2.471-4.829 3.198-7.257.104-.313.164-.572.183-.78.018-.209.026-.381.026-.521 0-.173-.034-.262-.104-.262-.381 0-1.109.781-2.185 2.343-1.075 1.561-2.35 3.563-3.823 6.008-1.475 2.445-3.043 5.149-4.707 8.115-1.664 2.967-3.259 5.854-4.785 8.664z"/><path fill="none" stroke="#000" stroke-miterlimit="10" d="M513.346 167.094h53.974"/></svg>