<svg xmlns="http://www.w3.org/2000/svg" width="87.238" height="338.901"><path d="M73.609 68.459c-.035.034-.104.052-.209.052-.312 0-.468-.156-.468-.468 0-.243.104-.382.313-.416.798-.382 1.474-.876 2.028-1.483.555-.607 1.006-1.292 1.354-2.055.346-.763.598-1.579.754-2.445.156-.867.234-1.717.234-2.549 0-1.699-.156-3.295-.469-4.786-.07.173-.13.329-.182.468-.053.138-.113.294-.183.468-.798 1.733-1.683 3.216-2.653 4.448-.971 1.23-1.985 2.263-3.043 3.095-1.059.832-2.099 1.482-3.121 1.951-1.023.468-1.977.823-2.861 1.066-.885.242-1.664.398-2.341.468-.677.069-1.171.104-1.482.104-2.324 0-4.562-.512-6.711-1.535-2.15-1.023-4.05-2.393-5.696-4.11-1.647-1.716-2.965-3.676-3.953-5.878-.988-2.203-1.482-4.483-1.482-6.841 0-1.769.303-3.521.91-5.254.605-1.734 1.517-3.433 2.73-5.098.451-.625.902-1.17 1.354-1.639.449-.468.849-.858 1.195-1.17.382-.382.764-.711 1.145-.989.07-.07.156-.104.261-.104.347 0 .521.138.521.417 0 .138-.07.277-.209.416-1.006.728-1.934 1.604-2.783 2.627-.85 1.022-1.578 2.124-2.184 3.303-.607 1.179-1.085 2.419-1.432 3.72-.347 1.3-.52 2.592-.52 3.875 0 2.011.434 4.04 1.301 6.086.865 2.046 2.063 3.901 3.589 5.566 1.526 1.665 3.312 3.025 5.358 4.084 2.045 1.057 4.248 1.586 6.606 1.586.312 0 .823-.035 1.534-.104.711-.07 1.525-.234 2.445-.494.918-.26 1.906-.659 2.965-1.196 1.058-.538 2.098-1.284 3.121-2.237 1.023-.954 2.004-2.142 2.939-3.563.937-1.423 1.751-3.139 2.445-5.15-.729-2.497-1.898-4.821-3.512-6.971-1.612-2.151-3.52-4.197-5.723-6.138-2.202-1.943-4.629-3.807-7.282-5.592-2.653-1.787-5.367-3.546-8.142-5.28-2.22-1.387-4.439-2.688-6.658-3.901-2.221-1.214-4.336-2.385-6.347-3.512-2.012-1.127-3.876-2.246-5.593-3.355-1.717-1.11-3.207-2.255-4.473-3.434-1.266-1.179-2.264-2.437-2.992-3.771-.729-1.335-1.092-2.801-1.092-4.396 0-1.457.398-2.775 1.196-3.954S28.057.416 29.547 0h.053c.348 0 .52.174.52.52 0 .208-.121.347-.363.417-1.283.278-2.254.927-2.914 1.951-.658 1.022-.988 2.159-.988 3.407 0 1.145.218 2.219.65 3.226.435 1.005 1.033 1.968 1.795 2.887.764.918 1.674 1.795 2.731 2.627 1.058.832 2.228 1.665 3.511 2.497 2.047 1.318 4.396 2.705 7.049 4.162 2.653 1.457 5.41 3.008 8.271 4.656 2.861 1.646 5.723 3.389 8.584 5.228 2.861 1.838 5.531 3.789 8.011 5.852 2.479 2.063 4.664 4.24 6.555 6.529 1.89 2.289 3.286 4.699 4.188 7.231.243-.625.45-1.362.624-2.211.174-.85.32-1.708.442-2.575.122-.867.208-1.708.261-2.523.052-.815.078-1.518.078-2.107 0-2.255-.27-4.474-.807-6.659-.538-2.185-1.431-4.266-2.68-6.242-.451.312-.971.58-1.561.806-.59.225-1.188.398-1.795.52-.606.122-1.205.208-1.794.26-.591.052-1.11.078-1.562.078-2.08 0-3.633-.373-4.655-1.119-1.023-.746-1.534-1.777-1.534-3.095 0-1.283.398-2.237 1.196-2.861.798-.625 1.803-.937 3.017-.937.521 0 1.153.112 1.899.338.745.225 1.525.546 2.341.962.814.416 1.63.936 2.445 1.561.814.624 1.534 1.353 2.158 2.185.729-.624 1.335-1.318 1.82-2.081.139-.243.304-.581.494-1.015.191-.434.391-.867.6-1.3.207-.434.39-.807.545-1.119.156-.312.287-.468.391-.468.347 0 .521.173.521.521v.104c-.278.832-.564 1.561-.858 2.185-.295.625-.686 1.283-1.17 1.977-.486.693-1.076 1.334-1.77 1.925 1.179 1.838 2.09 3.857 2.731 6.061.642 2.202.962 4.43.962 6.685 0 3.85-.607 7.751-1.82 11.705.277.901.485 1.847.624 2.835.138.988.208 2.003.208 3.043 0 1.005-.078 2.002-.234 2.991-.156.988-.416 1.916-.779 2.783-.365.867-.867 1.647-1.51 2.341-.642.692-1.448 1.264-2.419 1.715zM71.58 29.288c1.074-.139 2.063-.52 2.965-1.145-.623-.798-1.318-1.482-2.08-2.055-.764-.572-1.518-1.058-2.264-1.457-.746-.399-1.456-.694-2.133-.884-.676-.191-1.223-.286-1.639-.286-.867 0-1.63.199-2.289.598-.658.398-.988 1.135-.988 2.211 0 .97.425 1.769 1.275 2.393.85.624 2.176.936 3.979.936.903.001 1.959-.103 3.174-.311zM29.34 78.187c.069-1.387.486-2.428 1.248-3.121.763-.694 1.751-1.041 2.965-1.041 1.318 0 2.826.417 4.526 1.249 1.698.833 3.415 1.821 5.149 2.965s3.391 2.323 4.969 3.538c1.577 1.213 2.904 2.202 3.979 2.965.276.173.554.329.832.468.277.138.537.208.78.208.313 0 .547-.113.702-.338.156-.226.277-.494.364-.807.086-.312.139-.633.156-.962.018-.33.025-.582.025-.754 0-.07.018-.321.053-.754.034-.434.104-.962.208-1.587.104-.624.251-1.292.442-2.002.189-.711.441-1.345.754-1.899-.208-.139-.382-.243-.52-.312-2.672-1.561-5.186-3.269-7.543-5.124-2.359-1.856-4.526-3.875-6.504-6.061-.069-.07-.104-.174-.104-.312 0-.312.156-.468.469-.468.138 0 .26.052.363.156 2.082 2.323 4.301 4.361 6.659 6.112 2.358 1.751 4.751 3.373 7.179 4.864.104.069.217.138.338.208.121.069.199.104.234.104.381-.52.823-.893 1.326-1.118.503-.226 1.015-.338 1.535-.338s.936.078 1.248.234c.313.156.547.338.703.546.156.208.25.417.285.625s.053.346.053.416c0 .45-.078.797-.234 1.041-.156.242-.348.416-.572.52-.227.104-.441.165-.65.182-.208.017-.363.026-.468.026-.798 0-1.786-.295-2.966-.885-.242.417-.451.911-.624 1.483-.174.572-.312 1.135-.416 1.69-.104.555-.183 1.075-.233 1.561-.053.485-.078.867-.078 1.145 0 .208-.019.521-.053.937-.035.416-.113.833-.234 1.249s-.33.78-.624 1.092c-.295.312-.702.468-1.222.468-.521 0-1.241-.278-2.16-.833-.918-.555-1.95-1.257-3.095-2.106-1.144-.851-2.376-1.769-3.693-2.757-1.318-.988-2.646-1.908-3.979-2.757-1.336-.851-2.645-1.553-3.928-2.107-1.283-.555-2.463-.833-3.537-.833-2.115 0-3.174 1.266-3.174 3.797 0 .867.191 1.959.572 3.277.382 1.318.902 2.757 1.561 4.318s1.439 3.199 2.342 4.916c.9 1.718 1.854 3.407 2.861 5.073.068.068.104.154.104.26 0 .104-.053.199-.156.285s-.208.131-.313.131c-.174 0-.312-.07-.416-.209-1.109-1.803-2.125-3.598-3.043-5.384-.919-1.786-1.709-3.494-2.367-5.124-.658-1.63-1.17-3.139-1.534-4.525-.363-1.389-.544-2.585-.544-3.591zm31.056-3.121c-.07-.035-.191-.052-.365-.052-.382 0-.789.086-1.223.26-.434.173-.736.398-.91.676.59.277 1.066.468 1.432.572.363.104.666.156.91.156.277 0 .52-.07.729-.208.207-.139.312-.364.312-.676-.036-.382-.331-.624-.885-.728z"/><path d="M30.536 104.665c.069-1.422.347-2.627.832-3.615s1.093-1.786 1.821-2.393c.729-.607 1.534-1.049 2.418-1.327.885-.277 1.795-.416 2.731-.416 1.353 0 2.644.227 3.876.677 1.23.45 2.393 1.014 3.485 1.69 1.093.676 2.098 1.412 3.017 2.211.919.797 1.725 1.561 2.42 2.289 2.843 2.947 4.959 5.947 6.346 8.999s2.081 5.809 2.081 8.271c0 1.317-.156 2.445-.468 3.382-.313.936-.65 1.716-1.015 2.341-.364.624-.702 1.083-1.015 1.378s-.486.46-.52.494c-.07.034-.174.053-.313.053s-.227-.019-.26-.053c-.14.59-.451 1.022-.938 1.301-.485.277-1.023.416-1.612.416-1.318 0-2.931-.503-4.838-1.509s-4.058-2.601-6.45-4.785c-1.145 1.109-1.986 2.357-2.523 3.745-.537 1.387-.807 2.861-.807 4.422 0 1.733.33 3.485.988 5.254.659 1.769 1.613 3.45 2.861 5.046.07.069.104.156.104.261 0 .346-.174.52-.521.52-.174 0-.277-.052-.313-.156-1.318-1.699-2.323-3.468-3.017-5.306-.694-1.839-1.04-3.693-1.04-5.566 0-1.699.285-3.321.857-4.863.572-1.544 1.465-2.87 2.68-3.98-1.664-1.491-3.165-3.025-4.5-4.604s-2.471-3.165-3.407-4.76c-.937-1.596-1.665-3.147-2.185-4.656-.521-1.508-.78-2.922-.78-4.239v-.522zm28.144 16.543c0-1.11-.156-2.324-.469-3.642-.313-1.318-.78-2.688-1.404-4.109-.625-1.388-1.561-2.975-2.81-4.76-1.249-1.787-2.705-3.485-4.37-5.099-1.664-1.612-3.468-2.974-5.41-4.083-1.941-1.11-3.9-1.665-5.878-1.665-.832 0-1.665.121-2.497.364-.832.242-1.569.65-2.211 1.223s-1.162 1.334-1.561 2.289c-.398.953-.598 2.123-.598 3.511 0 2.462.936 5.254 2.809 8.376 1.873 3.121 4.525 6.225 7.959 9.312.693-.451 1.482-.772 2.367-.963s1.795-.286 2.73-.286c1.145 0 2.246.147 3.305.442 1.057.294 1.993.702 2.809 1.223.814.521 1.457 1.161 1.925 1.925.468.763.702 1.612.702 2.549.173-.139.407-.373.702-.702.294-.33.581-.764.858-1.301.277-.538.52-1.188.729-1.95.208-.764.313-1.649.313-2.654zm-3.538 6.606c-.034-1.457-.737-2.688-2.106-3.693-1.371-1.007-3.252-1.509-5.645-1.509-.799 0-1.569.069-2.314.208-.746.139-1.449.382-2.107.729 2.081 1.769 4.023 3.19 5.826 4.266 1.803 1.074 3.347 1.612 4.63 1.612.521 0 .937-.121 1.249-.364.311-.243.467-.66.467-1.249z"/><path d="M0 111.479c0-1.074.313-1.898.936-2.471.625-.572 1.475-.858 2.55-.858s2.185.338 3.329 1.015c1.145.676 2.314 1.587 3.512 2.731 1.196 1.145 2.393 2.479 3.59 4.005 1.195 1.526 2.375 3.156 3.537 4.891s2.314 3.52 3.459 5.357c1.145 1.839 2.236 3.625 3.277 5.358 2.359 1.526 4.855 3.096 7.49 4.708 2.636 1.612 5.236 3.182 7.804 4.708 2.566 1.526 5.011 2.956 7.335 4.291 2.323 1.335 4.369 2.506 6.139 3.512 1.769 1.006 3.164 1.795 4.188 2.367 1.022.572 1.517.858 1.482.858.139.104.208.242.208.416 0 .104-.044.208-.13.313-.087.104-.182.155-.286.155s-.642-.26-1.612-.78c-.972-.52-2.264-1.248-3.876-2.185s-3.485-2.028-5.618-3.277c-2.133-1.248-4.414-2.593-6.841-4.031-2.428-1.438-4.934-2.947-7.517-4.526-2.584-1.577-5.141-3.146-7.674-4.708.348.625.695 1.215 1.041 1.77 1.283 2.185 2.584 4.369 3.901 6.555 1.317 2.185 2.653 4.309 4.006 6.372 1.353 2.063 2.739 4.04 4.161 5.931 1.422 1.89 2.879 3.632 4.37 5.228.104.104.156.226.156.364 0 .104-.052.208-.156.313-.104.104-.208.156-.312.156-.07 0-.131-.019-.183-.053-.052-.035-.112-.069-.183-.104-1.734-1.839-3.39-3.858-4.967-6.061-1.579-2.203-3.122-4.492-4.631-6.867-1.508-2.376-3.008-4.812-4.5-7.309-1.49-2.497-2.981-4.959-4.473-7.387-4.682-2.982-8.636-5.636-11.861-7.959-3.225-2.323-5.756-4.318-7.595-5.982l-.729-.729c-.416-.416-.876-.944-1.378-1.587-.503-.641-.954-1.36-1.354-2.158-.396-.798-.595-1.578-.595-2.342zm22.421 18.936c-1.282-2.149-2.566-4.222-3.85-6.216-1.282-1.994-2.575-3.857-3.876-5.593-1.301-1.733-2.609-3.312-3.928-4.733-1.316-1.422-2.67-2.636-4.057-3.642-1.075-.763-2.133-1.145-3.174-1.145-.971 0-1.646.234-2.029.702-.381.469-.572.997-.572 1.587 0 .832.209 1.621.625 2.367s.867 1.404 1.353 1.977.919 1.023 1.3 1.353c.383.33.539.494.469.494 1.664 1.561 3.988 3.416 6.971 5.566 2.983 2.151 6.572 4.578 10.768 7.283zm42.969 27.831c-.694 0-1.283-.242-1.769-.728s-.729-1.076-.729-1.77.242-1.292.729-1.794c.485-.504 1.074-.755 1.769-.755.693 0 1.292.251 1.795.755.503.502.755 1.101.755 1.794s-.252 1.283-.755 1.77c-.503.486-1.102.728-1.795.728z"/><path d="M31.732 161.575c.658-1.214 1.525-2.072 2.602-2.575 1.074-.502 2.254-.754 3.537-.754 1.006 0 2.045.13 3.121.39 1.074.261 2.107.616 3.096 1.066s1.906.954 2.756 1.509 1.588 1.127 2.211 1.717c.277-.555.486-.962.625-1.223.139-.26.251-.425.338-.494.086-.069.147-.096.182-.078.035.018.087.026.156.026.313 0 .469.156.469.468 0 .139.008.19.025.156.018-.035 0-.035-.052 0-.052.034-.147.164-.286.391-.139.225-.382.702-.729 1.431 3.121 2.913 5.601 5.956 7.439 9.129 1.838 3.174 2.757 6.232 2.757 9.182 0 1.006-.139 1.977-.416 2.912-.278.938-.668 1.77-1.171 2.498s-1.109 1.309-1.82 1.742-1.5.65-2.367.65c-1.457 0-2.74-.441-3.85-1.326s-2.028-1.977-2.757-3.277c-.728-1.301-1.274-2.697-1.639-4.188-.364-1.492-.546-2.861-.546-4.109 0-1.527.13-2.984.391-4.371.26-1.387.554-2.645.884-3.771.329-1.127.677-2.106 1.04-2.938.364-.833.65-1.475.858-1.925-.485-.521-1.136-1.059-1.95-1.613-.815-.555-1.7-1.049-2.653-1.482-.954-.434-1.96-.798-3.017-1.093-1.059-.294-2.09-.441-3.096-.441-1.977 0-3.556.684-4.734 2.055-1.18 1.369-1.769 3.493-1.769 6.372 0 1.109.078 2.238.234 3.383.155 1.145.347 2.236.572 3.277.226 1.039.468 1.977.728 2.809.261.832.494 1.508.703 2.029.555 1.387 1.152 2.748 1.795 4.082.641 1.336 1.36 2.688 2.158 4.059.797 1.369 1.725 2.783 2.783 4.24 1.058 1.455 2.297 3.016 3.72 4.682.069.139.104.242.104.313 0 .104-.035.207-.104.311-.07.105-.191.156-.364.156-.139 0-.26-.051-.364-.156-1.456-1.699-2.714-3.295-3.771-4.785-1.058-1.492-1.995-2.932-2.81-4.318s-1.534-2.756-2.158-4.109c-.625-1.352-1.231-2.74-1.82-4.162-.279-.762-.556-1.611-.833-2.549-.278-.936-.521-1.916-.728-2.939-.209-1.021-.382-2.072-.521-3.146-.138-1.076-.207-2.133-.207-3.174 0-1.11.096-2.184.285-3.224.192-1.046.512-1.983.963-2.815zm16.959 4.266c-.243.555-.504 1.223-.781 2.002-.277.781-.528 1.639-.754 2.576-.226.936-.416 1.941-.572 3.016-.156 1.076-.234 2.168-.234 3.277 0 1.422.209 2.844.625 4.266s.971 2.705 1.664 3.85 1.518 2.082 2.472 2.811c.953.729 1.95 1.092 2.991 1.092.729 0 1.396-.182 2.002-.547.607-.363 1.137-.857 1.588-1.482.449-.623.797-1.344 1.039-2.158s.365-1.656.365-2.523c0-1.109-.156-2.314-.469-3.615s-.842-2.688-1.586-4.162c-.746-1.475-1.743-3.035-2.992-4.682-1.248-1.646-2.826-3.355-4.733-5.124l-.625 1.403z"/><path d="M30.796 204.388c0-3.191.546-5.627 1.639-7.309s2.627-2.523 4.604-2.523c1.733 0 3.632.582 5.695 1.742 2.063 1.162 4.049 2.654 5.957 4.475 1.906 1.82 3.58 3.832 5.02 6.035 1.439 2.201 2.401 4.344 2.887 6.424.174.762.304 1.473.391 2.133.086.658.131 1.266.131 1.82 0 1.561-.365 2.74-1.094 3.537-.728.799-1.646 1.197-2.756 1.197-.591 0-1.18-.096-1.77-.287-.59-.189-.885-.424-.885-.701 0-.313.139-.469.417-.469.242 0 .554.086.937.26.381.174.797.26 1.248.26.901 0 1.621-.32 2.159-.961.537-.643.806-1.623.806-2.939 0-1.215-.199-2.516-.598-3.902-.399-1.387-.971-2.791-1.717-4.213s-1.664-2.836-2.757-4.24-2.333-2.73-3.72-3.979c-1.873-1.666-3.711-2.949-5.514-3.85-1.805-.902-3.417-1.354-4.838-1.354-1.18 0-2.125.322-2.836.963s-1.248 1.422-1.612 2.34c-.364.92-.599 1.891-.702 2.914s-.156 1.916-.156 2.68c0 .484.008.883.025 1.195s.027.486.027.521c.068.865.155 1.672.26 2.418.104.746.242 1.621.416 2.627.173 1.006.416 2.098.729 3.277.277 1.109.667 2.357 1.17 3.746.502 1.387 1.127 2.844 1.873 4.369.745 1.525 1.639 3.104 2.679 4.734 1.04 1.629 2.237 3.26 3.589 4.891.07.137.104.242.104.311 0 .313-.155.469-.468.469-.209 0-.33-.053-.364-.156-2.185-2.67-4.11-5.539-5.774-8.609-1.664-3.068-2.913-6.252-3.746-9.545-.59-2.359-.971-4.318-1.144-5.879s-.261-2.428-.261-2.602c0-.07-.008-.268-.025-.598s-.026-.735-.026-1.222z"/><path d="M42.5 231.542c.833.936 1.691 1.932 2.576 2.99.884 1.059 1.785 2.133 2.705 3.227.918 1.092 1.82 2.176 2.705 3.25.884 1.074 1.725 2.115 2.522 3.121 1.907 2.324 3.78 4.648 5.618 6.971 0-.416.018-1.117.053-2.105.033-.988.086-2.064.155-3.227s.138-2.297.208-3.406c.069-1.111.139-1.977.209-2.602.068-.313.242-.469.52-.469s.416.156.416.469v.287c0 .121-.018.32-.052.598-.312 3.746-.521 7.387-.624 10.924 4.369 2.322 8.271 4.457 11.705 6.398 3.433 1.941 6.337 3.65 8.713 5.125 2.375 1.473 4.188 2.713 5.436 3.719 1.249 1.006 1.873 1.75 1.873 2.236 0 .139-.052.338-.156.6-.104.26-.416.389-.936.389-.486 0-1.033-.086-1.639-.26-.607-.174-1.05-.313-1.327-.416-2.532-.971-5.012-2.193-7.438-3.668-2.428-1.475-4.691-2.99-6.789-4.551-2.099-1.561-3.971-3.053-5.618-4.475s-2.938-2.549-3.876-3.381c0 .729-.008 1.447-.025 2.158s-.026 1.414-.026 2.107c0 2.463.052 4.873.156 7.23 0 .313-.156.469-.468.469-.209 0-.356-.295-.442-.885-.087-.59-.14-1.293-.156-2.105-.019-.816-.026-1.639-.026-2.473v-1.977c0-.902.008-1.795.026-2.678.017-.885.043-1.779.078-2.68-.174-.174-.321-.313-.442-.416-.122-.104-.234-.209-.338-.313-2.566-1.352-5.012-2.637-7.335-3.85-2.323-1.215-4.37-2.271-6.139-3.174s-3.19-1.621-4.266-2.158c-1.075-.539-1.63-.824-1.665-.857-.451-.244-.902-.436-1.352-.572-.383-.176-.816-.313-1.301-.418-.486-.104-.972-.154-1.457-.154-2.115 0-3.173 1.334-3.173 4.004 0 1.561.233 3.148.702 4.76.469 1.613 1.066 3.201 1.795 4.762s1.543 3.051 2.445 4.473c.9 1.422 1.794 2.73 2.678 3.928.885 1.197 1.699 2.236 2.445 3.121s1.326 1.568 1.743 2.055c.069.139.104.242.104.313 0 .313-.156.469-.469.469-.139 0-.26-.053-.364-.156-1.769-1.977-3.39-4.031-4.864-6.164s-2.74-4.223-3.797-6.27c-1.059-2.047-1.882-4.031-2.471-5.957-.59-1.924-.885-3.666-.885-5.227 0-1.701.382-2.965 1.145-3.799.762-.832 1.769-1.248 3.018-1.248.52 0 1.04.061 1.561.182.52.121.988.262 1.404.416.416.156.754.295 1.014.418.261.121.425.197.494.232.07.035.625.32 1.665.859 1.04.537 2.401 1.256 4.084 2.158 1.682.902 3.606 1.926 5.774 3.07 2.166 1.145 4.396 2.322 6.685 3.537-.035-.035-.382-.461-1.04-1.275-.66-.814-1.492-1.846-2.498-3.096-1.006-1.248-2.115-2.617-3.328-4.109-1.215-1.49-2.386-2.912-3.512-4.266-1.128-1.352-2.133-2.541-3.018-3.563-.885-1.023-1.5-1.691-1.847-2.004-.14-.137-.208-.277-.208-.416 0-.172.052-.293.156-.363.104-.068.207-.104.313-.104.173.003.329.089.468.262zm18.676 22.004c.902.797 2.186 1.916 3.85 3.355 1.665 1.439 3.555 2.922 5.67 4.447 2.115 1.527 4.379 2.992 6.789 4.396s4.829 2.471 7.257 3.199c.313.104.572.164.78.182.209.018.381.027.521.027.173 0 .261-.035.261-.105 0-.381-.781-1.109-2.342-2.184-1.561-1.076-3.563-2.35-6.008-3.824s-5.15-3.043-8.115-4.707c-2.966-1.665-5.854-3.26-8.663-4.786z"/><path fill="none" stroke="#000" stroke-miterlimit="10" d="M45.975 284.927v53.974"/></svg>