<svg xmlns="http://www.w3.org/2000/svg" width="570.795" height="184.408"><g fill="#D9D9D9"><path d="M34.505 170.248c-3.146 1.844-6.754 3.227-10.823 4.15-4.069.92-7.947 1.383-11.638 1.383-.758 0-1.815-.027-3.174-.08-1.355-.057-2.686-.164-3.987-.326-1.302-.162-2.441-.406-3.418-.732S0 173.828 0 173.178c0-.326.137-.65.407-.977.272-.326.625-.488 1.058-.488 1.846 0 3.662.188 5.452.57 1.791.379 3.5.568 5.127.568 3.906 0 7.543-.434 10.905-1.301 3.364-.871 6.457-2.01 9.277-3.418-3.906-4.123-6.78-8.6-8.626-13.428-1.844-4.828-2.767-9.738-2.767-14.73 0-4.014.57-8.082 1.709-12.207 1.14-4.123 2.795-7.895 4.964-11.313 2.172-3.418 4.857-6.209 8.057-8.381 3.199-2.17 6.861-3.256 10.986-3.256 5.859.326 10.307 2.307 13.346 5.941 3.037 3.637 4.558 8.111 4.558 13.428-.219 8.789-2.604 17.064-7.162 24.82-4.557 7.76-11.287 14.297-20.182 19.613 5.208 3.906 10.823 7.023 16.846 9.357 6.022 2.332 12.721 3.5 20.101 3.5 4.883 0 9.466-.381 13.753-1.139 4.285-.762 8.219-1.738 11.8-2.93 3.581-1.195 6.836-2.58 9.766-4.15 2.93-1.574 5.424-3.121 7.487-4.639 5.859-4.34 10.633-9.115 14.322-14.324 3.688-5.207 6.564-10.66 8.627-16.357 2.06-5.695 3.499-11.662 4.313-17.902.813-6.238 1.383-12.586 1.709-19.043.325-6.455.569-12.994.732-19.613.162-6.617.623-13.184 1.383-19.693-4.883 0-9.468-.623-13.753-1.873-4.288-1.246-8.166-3.174-11.637-5.777-.435-.326-.651-.758-.651-1.303 0-.432.163-.758.488-.977.326-.215.651-.324.977-.324.433 0 .758.109.977.324 3.146 2.389 6.755 4.15 10.824 5.291 4.069 1.139 8.436 1.709 13.103 1.709.65-5.641 1.896-11.773 3.743-18.393 1.844-6.617 4.42-12.803 7.731-18.555 3.309-5.75 7.431-10.551 12.369-14.404 4.937-3.85 10.824-5.777 17.66-5.777 5.099.219 9.303 1.709 12.613 4.475 3.309 2.768 4.965 7.027 4.965 12.777 0 4.125-.951 8.084-2.849 11.881-1.899 3.801-4.313 7.299-7.243 10.498-2.93 3.203-6.131 6.023-9.603 8.465-3.474 2.441-6.782 4.369-9.929 5.777-4.125 1.846-8.491 3.283-13.102 4.313-4.613 1.033-9.196 1.656-13.754 1.873-.76 6.51-1.221 13.076-1.383 19.693-.163 6.619-.382 13.211-.651 19.775-.272 6.566-.842 13.049-1.709 19.449-.87 6.404-2.388 12.561-4.558 18.475-2.172 5.914-5.154 11.584-8.951 17.008-3.8 5.428-8.79 10.473-14.974 15.137-4.451 3.256-10.473 6.266-18.066 9.033-7.597 2.768-16.439 4.15-26.53 4.15-6.945 0-13.618-1.059-20.02-3.174-6.403-2.115-12.1-5.074-17.09-8.871l-2.44-2.113zm-5.696-50.619c-3.255 6.73-4.883 13.566-4.883 20.508 0 4.883.87 9.578 2.604 14.08 1.737 4.504 4.504 8.654 8.301 12.451 3.906-2.387 7.459-5.152 10.661-8.301 3.199-3.146 5.994-6.537 8.382-10.174 2.385-3.633 4.232-7.512 5.534-11.637 1.302-4.123 1.953-8.301 1.953-12.533 0-4.557-1.33-8.406-3.987-11.555-2.66-3.146-6.267-4.721-10.824-4.721-4.341.436-7.922 1.709-10.742 3.824-2.821 2.118-5.153 4.804-6.999 8.058zm128.58-86.426c-1.628 4.125-2.93 8.301-3.906 12.533s-1.737 8.572-2.278 13.021c5.641-.217 11.581-1.328 17.822-3.338 6.238-2.006 11.963-4.773 17.171-8.301 5.208-3.523 9.493-7.703 12.858-12.531 3.361-4.828 5.045-10.174 5.045-16.033 0-2.604-.435-4.801-1.302-6.592-.87-1.789-1.981-3.227-3.337-4.313-1.357-1.084-2.904-1.871-4.639-2.359-1.736-.488-3.418-.732-5.045-.732-4.232.219-8.031 1.166-11.394 2.848-3.364 1.684-6.376 3.881-9.033 6.592-2.66 2.713-4.964 5.725-6.917 9.033-1.952 3.311-3.636 6.701-5.045 10.172zM175.13 170.086c1.411-4.014 3.689-9.197 6.836-15.545 3.148-6.348 7.107-13.672 11.881-21.973s10.336-17.521 16.684-27.668c6.348-10.145 13.534-21.021 21.565-32.635 5.534-7.918 10.796-15.381 15.788-22.379 4.989-6.998 9.412-13.102 13.265-18.311 3.851-5.209 6.942-9.33 9.277-12.369 2.332-3.037 3.499-4.611 3.499-4.721.217-.217 1.002-1.111 2.36-2.686 1.355-1.572 3.064-3.227 5.127-4.965 2.06-1.734 4.395-3.309 6.999-4.719C291.015.707 293.673 0 296.386 0c1.193 0 2.495.273 3.906.814 1.409.545 2.711 1.303 3.906 2.279 1.193.977 2.17 2.197 2.93 3.662.758 1.465 1.14 3.066 1.14 4.801 0 3.58-1.493 7.975-4.476 13.184-2.986 5.209-7.406 11.068-13.266 17.578-3.148 3.475-6.348 6.863-9.603 10.172-3.255 3.313-6.322 6.322-9.196 9.033-2.876 2.715-5.346 4.992-7.405 6.836-2.063 1.848-3.474 3.094-4.231 3.744-1.953 1.627-4.83 4.016-8.627 7.162-3.799 3.148-8.356 6.781-13.672 10.904 1.409-.541 3.337-1.193 5.778-1.953 2.441-.758 5.099-1.518 7.976-2.279 2.873-.758 5.803-1.383 8.789-1.871 2.982-.488 5.615-.732 7.894-.732 3.472 0 6.511.436 9.114 1.303 2.604.869 4.773 2.063 6.511 3.58 1.734 1.521 3.036 3.283 3.906 5.289.867 2.01 1.302 4.15 1.302 6.43 0 3.475-1.086 6.836-3.255 10.092-2.172 3.254-5.073 6.104-8.708 8.545-3.637 2.441-7.894 4.395-12.776 5.859s-10.038 2.197-15.462 2.197c-3.581 0-6.918-.244-10.01-.732-3.093-.488-5.888-1.059-8.383-1.709-2.497-.652-4.639-1.303-6.429-1.953-1.79-.652-3.174-1.193-4.15-1.629-.544 1.848-1.221 4.668-2.034 8.465-.814 3.799-1.221 8.137-1.221 13.02 0 3.691.432 7.137 1.302 10.336.867 3.201 2.197 5.969 3.987 8.301 1.791 2.334 4.123 4.178 6.999 5.533 2.874 1.359 6.373 2.035 10.498 2.035 3.255 0 6.78-.432 10.579-1.303 3.797-.867 8.11-2.521 12.939-4.963 4.827-2.441 10.198-5.805 16.113-10.092 5.913-4.285 12.614-9.848 20.102-16.684.325-.324.65-.488.977-.488.977 0 1.465.488 1.465 1.465 0 .436-.163.814-.488 1.141-7.162 6.51-13.672 11.938-19.531 16.275-5.859 4.342-11.287 7.813-16.276 10.416-4.992 2.605-9.631 4.424-13.916 5.453-4.288 1.029-8.382 1.547-12.288 1.547-8.139 0-14.404-2.496-18.799-7.488-4.395-4.988-6.592-12.313-6.592-21.973 0-2.711.188-5.477.569-8.301.379-2.82.813-5.342 1.302-7.568.488-2.223 1.165-4.744 2.035-7.568l.488-1.465 1.627.652c3.256 1.301 6.211 2.359 8.871 3.174 2.657.813 5.696 1.545 9.114 2.197 3.418.65 7.024.977 10.823.977 4.664 0 9.25-.596 13.754-1.791 4.501-1.193 8.517-2.848 12.044-4.965 3.524-2.115 6.373-4.609 8.545-7.486 2.169-2.873 3.255-6.047 3.255-9.521 0-4.232-1.602-7.568-4.801-10.01-3.202-2.441-7.568-3.662-13.103-3.662-3.581 0-7.218.381-10.905 1.139-3.689.762-7.055 1.604-10.091 2.523-3.039.924-6.566 2.197-10.579 3.824-4.342 1.848-8.492 4.314-12.451 7.406-3.963 3.092-7.706 6.51-11.23 10.254-3.527 3.744-6.755 7.705-9.685 11.881-2.93 4.18-5.534 8.221-7.813 12.127-2.063 3.473-3.935 6.754-5.615 9.846-1.681 3.094-3.199 6.051-4.558 8.871-1.355 2.822-2.657 5.615-3.906 8.383-1.246 2.766-2.413 5.615-3.499 8.545l-2.766-.978zM296.224 2.93c-2.389 0-4.748.652-7.08 1.953-2.335 1.303-4.423 2.768-6.267 4.395-1.847 1.629-3.393 3.148-4.639 4.559-1.249 1.41-1.928 2.225-2.034 2.441-3.581 4.775-6.893 9.252-9.929 13.428-3.039 4.178-6.592 9.061-10.661 14.648-4.068 5.59-8.382 11.611-12.939 18.066-4.557 6.457-9.224 13.211-13.997 20.264-4.776 7.055-9.44 14.053-13.997 20.996 5.314-3.797 10.279-7.459 14.893-10.986 4.61-3.525 8.789-6.756 12.532-9.686s6.971-5.533 9.685-7.813c2.711-2.277 4.826-4.068 6.348-5.371.977-.867 2.82-2.547 5.533-5.045 2.711-2.494 5.832-5.453 9.359-8.871 3.524-3.418 7.187-7.16 10.986-11.23 3.797-4.068 7.268-8.109 10.416-12.125 3.146-4.014 5.75-7.838 7.813-11.475 2.061-3.635 3.093-6.754 3.093-9.359 0-1.408-.3-2.656-.896-3.742-.598-1.084-1.357-1.979-2.278-2.686-.923-.705-1.928-1.275-3.011-1.709-1.086-.434-2.063-.652-2.93-.652z"/><path d="M306.636 168.621c-1.846 0-3.689-.107-5.533-.326-1.844-.217-3.5-.732-4.965-1.547-1.465-.813-2.629-1.979-3.499-3.498-.867-1.52-1.302-3.525-1.302-6.023 0-3.254.732-6.754 2.197-10.498 1.465-3.742 3.311-7.512 5.533-11.311 2.226-3.797 4.583-7.488 7.08-11.068 2.495-3.58 4.773-6.836 6.836-9.766 2.93-4.232 5.832-8.244 8.708-12.045 2.874-3.797 5.478-7.16 7.813-10.09 2.332-2.93 4.964-6.129 7.894-9.604.107-.326.488-.488 1.14-.488.977 0 1.465.488 1.465 1.465 0 .219-.109.545-.325.977-2.93 3.475-5.563 6.648-7.895 9.521-2.334 2.877-4.938 6.213-7.813 10.01-2.876 3.799-5.777 7.76-8.707 11.881-1.953 2.715-4.125 5.807-6.511 9.277-2.388 3.475-4.667 7.055-6.836 10.742-2.169 3.691-3.987 7.354-5.452 10.986-1.465 3.637-2.197 6.975-2.197 10.01 0 1.953.381 3.5 1.139 4.639.761 1.141 1.737 1.982 2.93 2.523 1.195.545 2.523.895 3.988 1.059 1.465.162 2.901.244 4.313.244 4.664 0 9.766-.949 15.3-2.85 5.534-1.896 11.093-4.395 16.683-7.486 5.588-3.092 11.121-6.592 16.602-10.498 5.479-3.906 10.552-7.92 15.219-12.045.432-.215.758-.324.977-.324.977 0 1.465.488 1.465 1.465 0 .434-.163.813-.488 1.139-4.883 4.125-10.01 8.193-15.381 12.207-5.371 4.016-10.88 7.596-16.521 10.742-5.644 3.148-11.312 5.697-17.009 7.65-5.698 1.954-11.314 2.93-16.848 2.93zm54.363-106.609c0 2.172-.761 4.045-2.278 5.615-1.521 1.574-3.365 2.361-5.534 2.361-2.172 0-4.044-.787-5.615-2.361-1.574-1.57-2.36-3.443-2.36-5.615 0-2.168.786-4.012 2.36-5.533 1.571-1.518 3.443-2.279 5.615-2.279 2.169 0 4.013.762 5.534 2.279 1.517 1.521 2.278 3.365 2.278 5.533z"/><path d="M381.018 170.736c-3.148 0-5.806-.436-7.976-1.303-2.169-.867-3.932-2.033-5.289-3.498-1.355-1.465-2.36-3.146-3.012-5.047-.65-1.896-.977-3.824-.977-5.777 0-2.279.219-4.258.651-5.941.435-1.68.707-2.629.813-2.848 2.063-5.75 4.695-11.854 7.895-18.311 3.199-6.455 6.645-12.912 10.335-19.369 3.688-6.453 7.459-12.748 11.312-18.879 3.851-6.129 7.459-11.744 10.824-16.846 3.58-5.535 7.023-10.633 10.335-15.301 3.309-4.664 6.238-8.707 8.789-12.125 2.548-3.418 5.343-7.133 8.382-11.148 0-.107 1.059-1.355 3.174-3.744 2.116-2.385 4.746-5.07 7.895-8.057 3.146-2.982 6.535-5.941 10.172-8.871 3.635-2.93 7.024-5.045 10.173-6.348 3.036-1.301 5.75-1.953 8.138-1.953 3.581 0 6.373 1.168 8.383 3.5 2.006 2.334 3.011 5.184 3.011 8.545 0 2.279-.435 4.775-1.302 7.486-.87 2.715-1.981 5.428-3.337 8.139-1.358 2.713-2.876 5.371-4.558 7.975-1.684 2.605-3.336 5.047-4.964 7.324-4.883 6.73-10.01 12.996-15.381 18.799-5.371 5.807-11.638 11.775-18.799 17.904-7.161 6.131-15.544 12.695-25.146 19.693-9.603 7-21.077 15.057-34.424 24.17-1.521 3.148-2.958 6.268-4.313 9.359s-2.629 6.16-3.824 9.195c-.217.652-.433 1.412-.651 2.279-.216.76-.379 1.602-.488 2.523-.106.922-.163 1.871-.163 2.848 0 4.342 1.439 7.568 4.313 9.684 2.874 2.117 6.429 3.174 10.661 3.174 3.361 0 6.942-.594 10.742-1.789 6.836-2.061 13.102-4.232 18.799-6.512 5.696-2.277 11.121-4.801 16.275-7.568 5.152-2.766 10.198-5.803 15.137-9.113 4.937-3.309 10.063-7.025 15.381-11.15.433-.215.758-.324.977-.324.977 0 1.465.488 1.465 1.465 0 .65-.162 1.031-.488 1.139-5.427 4.125-10.66 7.895-15.706 11.313s-10.2 6.537-15.462 9.357c-5.265 2.824-10.799 5.428-16.602 7.813-5.807 2.389-12.182 4.559-19.125 6.512-2.172.65-4.287 1.082-6.348 1.301-2.063.216-3.963.325-5.697.325zm51.27-130.777c-1.847 2.334-4.206 5.508-7.08 9.521-2.876 4.016-6.213 8.764-10.01 14.24-3.8 5.48-7.731 11.422-11.8 17.822-4.069 6.404-8.22 13.158-12.451 20.264-4.232 7.109-8.248 14.352-12.045 21.729 8.464-5.859 16.086-11.201 22.868-16.031 6.78-4.826 12.911-9.385 18.392-13.672 5.479-4.285 10.442-8.326 14.893-12.125 4.448-3.797 8.545-7.594 12.289-11.395 3.743-3.797 7.268-7.621 10.579-11.475 3.309-3.85 6.536-7.947 9.685-12.287 4.447-6.186 7.813-11.773 10.091-16.766 2.278-4.988 3.418-9.168 3.418-12.531 0-2.711-.788-4.883-2.36-6.512-1.574-1.627-3.662-2.441-6.266-2.441-2.498 0-5.127.68-7.895 2.035-2.767 1.357-5.508 3.066-8.219 5.127-2.714 2.063-5.318 4.287-7.813 6.674-2.498 2.387-4.721 4.613-6.674 6.672-1.953 2.063-4.125 4.504-6.51 7.324-.218.22-1.249 1.495-3.092 3.827z"/><path d="M467.768 170.736c-3.148 0-5.806-.436-7.976-1.303-2.169-.867-3.932-2.033-5.289-3.498-1.355-1.465-2.36-3.146-3.012-5.047-.65-1.896-.977-3.824-.977-5.777 0-2.279.219-4.258.651-5.941.435-1.68.707-2.629.813-2.848 2.063-5.75 4.695-11.854 7.895-18.311 3.199-6.455 6.645-12.912 10.335-19.369 3.688-6.453 7.459-12.748 11.312-18.879 3.851-6.129 7.459-11.744 10.824-16.846 3.58-5.535 7.023-10.633 10.335-15.301 3.309-4.664 6.238-8.707 8.789-12.125 2.548-3.418 5.343-7.133 8.382-11.148 0-.107 1.059-1.355 3.174-3.744 2.116-2.385 4.746-5.07 7.895-8.057 3.146-2.982 6.535-5.941 10.172-8.871 3.635-2.93 7.024-5.045 10.173-6.348 3.036-1.301 5.75-1.953 8.138-1.953 3.581 0 6.373 1.168 8.383 3.5 2.006 2.334 3.011 5.184 3.011 8.545 0 2.279-.435 4.775-1.302 7.486-.87 2.715-1.981 5.428-3.337 8.139-1.358 2.713-2.876 5.371-4.558 7.975-1.684 2.605-3.336 5.047-4.964 7.324-4.883 6.73-10.01 12.996-15.381 18.799-5.371 5.807-11.638 11.775-18.799 17.904-7.161 6.131-15.544 12.695-25.146 19.693-9.603 7-21.077 15.057-34.424 24.17-1.521 3.148-2.958 6.268-4.313 9.359s-2.629 6.16-3.824 9.195c-.217.652-.433 1.412-.651 2.279-.216.76-.379 1.602-.488 2.523-.106.922-.163 1.871-.163 2.848 0 4.342 1.439 7.568 4.313 9.684 2.874 2.117 6.429 3.174 10.661 3.174 3.361 0 6.942-.594 10.742-1.789 6.836-2.061 13.102-4.232 18.799-6.512 5.696-2.277 11.121-4.801 16.275-7.568 5.152-2.766 10.198-5.803 15.137-9.113 4.937-3.309 10.063-7.025 15.381-11.15.433-.215.758-.324.977-.324.977 0 1.465.488 1.465 1.465 0 .65-.162 1.031-.488 1.139-5.427 4.125-10.66 7.895-15.706 11.313s-10.2 6.537-15.462 9.357c-5.265 2.824-10.799 5.428-16.602 7.813-5.807 2.389-12.182 4.559-19.125 6.512-2.172.65-4.287 1.082-6.348 1.301-2.063.216-3.963.325-5.697.325zm51.27-130.777c-1.847 2.334-4.206 5.508-7.08 9.521-2.876 4.016-6.213 8.764-10.01 14.24-3.8 5.48-7.731 11.422-11.8 17.822-4.069 6.404-8.22 13.158-12.451 20.264-4.232 7.109-8.248 14.352-12.045 21.729 8.464-5.859 16.086-11.201 22.868-16.031 6.78-4.826 12.911-9.385 18.392-13.672 5.479-4.285 10.442-8.326 14.893-12.125 4.448-3.797 8.545-7.594 12.289-11.395 3.743-3.797 7.268-7.621 10.579-11.475 3.309-3.85 6.536-7.947 9.685-12.287 4.447-6.186 7.813-11.773 10.091-16.766 2.278-4.988 3.418-9.168 3.418-12.531 0-2.711-.788-4.883-2.36-6.512-1.574-1.627-3.662-2.441-6.266-2.441-2.498 0-5.127.68-7.895 2.035-2.767 1.357-5.508 3.066-8.219 5.127-2.714 2.063-5.318 4.287-7.813 6.674-2.498 2.387-4.721 4.613-6.674 6.672-1.953 2.063-4.125 4.504-6.51 7.324-.218.22-1.249 1.495-3.092 3.827z"/></g></svg>