<svg xmlns="http://www.w3.org/2000/svg" width="112.233" height="12.754"><path d="M0 10.668L3.431 1.26H4.62l3.402 9.408H6.734l-.952-2.646H2.114l-.938 2.646H0zm3.906-7.756l-1.428 4.06h2.926l-1.456-4.06h-.042zM9.156 12.754V3.71h1.134v.56h.07c.485-.467 1.152-.7 2.002-.7.84 0 1.523.264 2.051.791s.791 1.388.791 2.583v.182c0 1.241-.273 2.158-.819 2.751s-1.318.889-2.316.889c-.663 0-1.237-.149-1.723-.448v2.436h-1.19zM11.97 9.8c1.345 0 2.017-.835 2.017-2.506v-.308c0-.896-.159-1.519-.477-1.869-.317-.35-.807-.525-1.47-.525-.709 0-1.274.159-1.694.476v4.256c.374.317.915.476 1.624.476zM16.716 12.754V3.71h1.134v.56h.07c.485-.467 1.152-.7 2.002-.7.84 0 1.523.264 2.051.791s.791 1.388.791 2.583v.182c0 1.241-.273 2.158-.819 2.751s-1.318.889-2.316.889c-.663 0-1.237-.149-1.723-.448v2.436h-1.19zM19.529 9.8c1.345 0 2.017-.835 2.017-2.506v-.308c0-.896-.159-1.519-.477-1.869-.317-.35-.807-.525-1.47-.525-.709 0-1.274.159-1.694.476v4.256c.374.317.915.476 1.624.476zM24.304 10.668V.644h1.203v10.024h-1.203zM30.337 10.794c-1.083 0-1.906-.31-2.471-.931-.565-.621-.848-1.477-.848-2.569v-.21c0-1.148.292-2.021.875-2.618.584-.597 1.314-.896 2.191-.896 1.876 0 2.814 1.097 2.814 3.29v.672H28.25c.037.803.247 1.377.63 1.722s.934.518 1.652.518c.774 0 1.493-.177 2.156-.532v.882c-.587.448-1.371.672-2.351.672zm-.308-6.258c-.458 0-.856.157-1.197.469-.341.313-.534.833-.581 1.561h3.388c0-.709-.133-1.225-.398-1.547-.267-.322-.671-.483-1.212-.483zM44.603 5.95l-.728.98c-.598-.271-1.162-.66-1.694-1.169-.532-.508-.929-1.062-1.19-1.659-.177.625-.548 1.239-1.112 1.841-.565.602-1.169 1.052-1.813 1.351l-.77-.98c.868-.354 1.594-.922 2.177-1.701s.875-1.631.875-2.555V.686h1.26v1.316c0 .933.299 1.755.896 2.464.596.709 1.296 1.204 2.099 1.484zm2.996 5.908H39.45v-3.85h1.246v2.842h6.902v1.008zm1.316-7.154h-1.834V8.89h-1.232V0h1.232v3.668h1.834v1.036zM59.4 4.298h-3.528v1.078h4.914v1.008H49.74V5.376h4.886V4.298h-3.542V.462h8.274V1.47H52.33v1.806h7.07v1.022zm.392 7.854h-8.806V9.184h7.153v-.966h-7.168V7.21h8.414v2.912h-7.168v1.008h7.574v1.022zM72.896 10.458H61.85V9.436h4.2V5.32h1.245v4.116h5.601v1.022zm-1.428-9.324V3.01c-.028 1.988-.201 3.654-.519 4.998-.522-.093-.919-.159-1.189-.196.289-1.139.434-2.539.434-4.2v-1.47h-7.21V1.134h8.484zM75.877 5.418c2.408 0 4.293-.145 5.656-.434l.168.98c-1.494.317-3.439.476-5.839.476h-1.218V.91h5.74v1.008h-4.508v3.5zm-.07 2.436h8.19v4.382h-1.246v-3.36h-6.944V7.854zm8.19-.63h-1.246V.014h1.246v7.21zM90.366 10.668V1.26h1.455l4.313 7.308h.028V1.26h1.134v9.408h-1.274l-4.494-7.7H91.5v7.7h-1.134zM102.279 10.794c-1.083 0-1.906-.31-2.471-.931-.565-.621-.848-1.477-.848-2.569v-.21c0-1.148.292-2.021.875-2.618.584-.597 1.314-.896 2.191-.896 1.876 0 2.814 1.097 2.814 3.29v.672h-4.648c.037.803.247 1.377.63 1.722s.934.518 1.652.518c.774 0 1.493-.177 2.156-.532v.882c-.587.448-1.37.672-2.351.672zm-.307-6.258c-.458 0-.856.157-1.197.469-.341.313-.534.833-.581 1.561h3.388c0-.709-.133-1.225-.398-1.547-.268-.322-.671-.483-1.212-.483zM109.041 10.794c-.998 0-1.775-.306-2.331-.917-.555-.611-.833-1.458-.833-2.541v-.238c0-1.083.29-1.941.868-2.576.579-.635 1.349-.952 2.311-.952.998 0 1.777.308 2.338.924.56.616.84 1.47.84 2.562v.224c0 1.083-.292 1.939-.875 2.569-.584.63-1.356.945-2.318.945zm.028-.98c.616 0 1.09-.208 1.421-.623.331-.415.497-1.01.497-1.785v-.378c0-1.652-.653-2.478-1.96-2.478-.606 0-1.078.21-1.414.63-.336.42-.504 1.018-.504 1.792v.392c0 1.633.654 2.45 1.96 2.45z"/></svg>