<svg xmlns="http://www.w3.org/2000/svg" width="695.947" height="44.434"><g fill="#808285"><path d="M0 7.475v-.596c0-1.805 1.112-2.853 3.337-3.143 1.508 0 2.621.918 3.338 2.755-.61 2.354-1.723 3.531-3.338 3.531h-.583C.918 9.604 0 8.754 0 7.475zm2.949.776c1.18-.167 1.771-.755 1.771-1.76-.213-.526-.674-.788-1.383-.788h-.194c-.915 0-1.372.457-1.372 1.371.1.785.492 1.177 1.178 1.177zm1.566 5.509c.274-.525.602-.789.982-.789.526.199.789.393.789.583v2.948c.038.268.167.4.39.4h3.93c.785.076 1.178.271 1.178.583v.595c0 .525-1.047.788-3.143.788-2.75 0-4.125-.788-4.125-2.366V13.76zM10.8 2.948c.197-.519.396-.777.594-.777h.594c.656 0 .984 2.815.984 8.446-.139.518-.533.777-1.189.777l-.582-.389c-.131-4.304-.264-6.989-.401-8.057zM19.291 2.948h.389c1.44 0 2.16.591 2.16 1.771-1.006 4.062-1.726 6.091-2.16 6.091h-.594c-.328 0-.522-.262-.583-.788l1.371-5.303c-.243 0-1.882.065-4.914.194l-.389-.583v-.594c0-.525 1.573-.788 4.72-.788zm.777 10.218c.046-.26.179-.389.4-.389h.777c.419 0 .682 1.375.788 4.125 2.164-.137 3.867-.205 5.108-.205.785 0 1.178.396 1.178 1.188 0 .184-.194.378-.583.584-2.819.129-4.85.193-6.092.193-1.051 0-1.577-1.177-1.577-3.531v-1.965zM26.354 2.56h.594c.19 0 .385.198.583.595v2.937l2.366-.194c.784.084 1.177.282 1.177.595v.776c-.084.396-.609.595-1.577.595h-1.76c0 1.082.064 2.393.194 3.932-.435.389-.762.583-.983.583-.655 0-.982-1.242-.982-3.727-.13-.205-.194-2.037-.194-5.496-.001-.193.193-.39.582-.596zM32.674 11.395c.389-2.225 1.238-3.338 2.549-3.338h.788c1.607 0 2.591 1.113 2.949 3.338-.488 1.965-1.601 2.947-3.337 2.947h-.206c-1.829-.174-2.743-.959-2.743-2.354v-.593zm2.95 1.187c.586 0 1.108-.461 1.565-1.383-.26-.708-.651-1.166-1.178-1.371-1.051 0-1.577.655-1.577 1.966.138.526.533.788 1.19.788zm4.125-1.965c0-.191.194-.389.583-.595h3.337V8.457l-.194-1.966.595-.4h.583c.525.267.788.659.788 1.177.13 3.611.194 6.104.194 7.475-.091.656-.285.983-.583.983h-.594c-.19 0-.389-.198-.595-.595v-2.948c0-.259-.129-.389-.389-.389h-3.143c-.19 0-.385-.198-.583-.595v-.582zM47.6 5.314c.427.129.689.389.789.776.129 3.452.194 6.465.194 9.04 0 .701-.264 1.158-.789 1.371h-.583c-.396-.129-.594-.521-.594-1.177V6.491c.001-.784.328-1.177.983-1.177zM58 8.846h8.446c.792 0 1.188.327 1.188.982-.137.525-.533.789-1.188.789H62.72v1.565c0 .19-.198.389-.595.595h-.583c-.19 0-.389-.199-.594-.595v-1.565h-2.354l-1.177.193c-.603-.251-.93-.514-.983-.788 0-.784.522-1.176 1.566-1.176zm-.983-3.532c.137-.526.533-.789 1.188-.789h.972V2.171c-1.303 0-1.954-.327-1.954-.983.183-.654.64-.982 1.371-.982h3.531c.724 0 1.642-.068 2.755-.205.525 0 .918.327 1.177.982-.183.655-.64.982-1.371.982h-.789v1.967c0 .266.72.465 2.16.594 0 .137.064.332.194.583-.214.655-.605.982-1.177.982-3.863.138-6.351.206-7.463.206-.396-.435-.594-.762-.594-.983zm3.349 8.045h2.549c1.181 0 1.771.721 1.771 2.16v1.383c0 .655-1.311 1.048-3.932 1.178v.788h2.754c.785.076 1.178.271 1.178.583v.789c0 .129-.264.323-.789.582l-.982-.193h-2.549c-.793 0-1.318-.458-1.577-1.372 0-2.095.982-3.144 2.948-3.144h1.178v-.982c-.13 0-1.242.064-3.338.194-.35 0-.678-.327-.982-.983-.001-.654.59-.983 1.771-.983zm1.759-9.028V2.365c0-.267-.13-.4-.389-.4h-.788v2.366h1.177zM69.234 10.217v-.778c0-1.318.983-2.236 2.949-2.754h.399c1.867 0 2.979 1.177 3.337 3.531-.457 1.966-1.569 2.949-3.337 2.949h-.206c-2.094-.297-3.142-1.28-3.142-2.948zm1.771-.778v.972c.335.655.861.983 1.577.983.519 0 1.04-.393 1.565-1.178 0-.617-.393-1.203-1.177-1.76-1.309.29-1.965.618-1.965.983zM82.4 4.72h.194c.396.084.594.609.594 1.577v8.445c0 .785-.327 1.178-.982 1.178s-.983-1.246-.983-3.737V6.297c-.001-1.052.392-1.577 1.177-1.577zM93.794 11.988h8.251c1.044 0 1.565.393 1.565 1.178-.213.525-.67.788-1.371.788h-1.966c-.13 0-.194-.065-.194-.194-.251.129-.449.194-.594.194l-.389-.194c-.229.129-.492.194-.789.194v4.126c0 .183-.194.377-.583.582h-.594c-.19 0-.385-.193-.583-.582 0-1.447-.068-2.823-.206-4.126h-4.514c-.206 0-.469-.263-.789-.788v-.389c.002-.526.92-.789 2.756-.789zM93.2 9.439c.114-1.006 1.425-3.101 3.932-6.285.229-.138.491-.206.788-.206h.194c.19 0 .389.198.595.595v.582c-.793.854-1.188 1.314-1.188 1.383 2.277 1.852 3.523 3.094 3.737 3.727 0 .784-.328 1.177-.983 1.177-.267 0-.922-.651-1.966-1.954-1.242-.922-1.896-1.383-1.966-1.383-.854 2.096-1.702 3.143-2.548 3.143l-.595-.779zM111.461 9.439c0-1.043 1.246-3.729 3.737-8.057h.583c.19 0 .389.193.594.582v.4c0 .389-.393 1.303-1.177 2.743 1.555 1.394 2.602 2.575 3.143 3.542v.789c0 .26-.133.389-.399.389h-.777c-1.684-1.966-2.603-2.949-2.754-2.949h-.194c0 .648-.526 1.696-1.577 3.144h-.583c-.191 0-.39-.194-.596-.583zm8.252 1.956h2.548c1.448 0 2.172.788 2.172 2.365v.777c0 1.576-1.182 2.365-3.543 2.365-.259.038-.389.168-.389.389v.789c0 .389 1.311.582 3.932.582l.389.595v.583c-.13.396-.522.594-1.178.594h-.594c-2.88 0-4.32-.785-4.32-2.354v-.983c0-1.44 1.311-2.159 3.932-2.159v-.789l-.194-.982h-3.349c-.297 0-.491-.328-.583-.983.13-.528.522-.789 1.177-.789zm3.337-2.356V1.383c0-.191.198-.389.594-.595h.583c.396.13.595.522.595 1.177v6.092l.194 1.178c-.267.784-.53 1.177-.789 1.177h-.389c-.525-.207-.788-.664-.788-1.373zM127.988 4.525h5.303c.784 0 1.177.393 1.177 1.178 0 .189-.194.388-.583.594l-6.285.194c-.655-.183-.983-.644-.983-1.383.479-.388.936-.583 1.371-.583zm-.583-1.371c0-.525.655-.854 1.966-.983.129 0 .194.065.194.194l.982-.194h.389c1.181 0 1.771.327 1.771.983-.183.647-.645.971-1.383.971h-2.549c-.731 0-1.188-.323-1.37-.971zm.388 6.868c.289-1.966 1.074-2.948 2.354-2.948h.983c1.706.236 2.56.956 2.56 2.16 0 1.638-1.048 2.621-3.143 2.948h-.789c-1.05.001-1.706-.719-1.965-2.16zm2.16.389h.4c.701 0 1.158-.259 1.371-.777v-.4c0-.26-.133-.389-.399-.389h-.389c-.914 0-1.371.457-1.371 1.371l.388.195zm3.338 4.914c0-1.44.461-2.159 1.383-2.159l.583.788c0 .541-.065 1.063-.194 1.565.129.525.194.986.194 1.383h4.525c.183 0 .377.194.583.583v.399c0 .656-1.57.983-4.709.983-1.577.001-2.365-1.179-2.365-3.542zm5.702-10.217v-1.76c0-.189.194-.389.583-.594h.4c.784 0 1.177 2.75 1.177 8.252-.16 1.051-.423 1.576-.788 1.576-.785 0-1.178-.396-1.178-1.188V9.828h-2.548c-.191 0-.389-.197-.595-.594V8.65c.13-.396.521-.594 1.177-.594h1.966V6.879l-.389.195h-1.577c-.731 0-1.188-.328-1.371-.983 0-.655 1.048-.983 3.143-.983zM142.752 11.395c.389-2.225 1.238-3.338 2.549-3.338h.788c1.607 0 2.591 1.113 2.949 3.338-.488 1.965-1.601 2.947-3.337 2.947h-.206c-1.829-.174-2.743-.959-2.743-2.354v-.593zm2.95 1.187c.586 0 1.108-.461 1.565-1.383-.26-.708-.651-1.166-1.178-1.371-1.051 0-1.577.655-1.577 1.966.138.526.533.788 1.19.788zm4.125-1.965c0-.191.194-.389.583-.595h3.337V8.457l-.194-1.966.595-.4h.583c.525.267.788.659.788 1.177.13 3.611.194 6.104.194 7.475-.091.656-.285.983-.583.983h-.594c-.19 0-.389-.198-.595-.595v-2.948c0-.259-.129-.389-.389-.389h-3.143c-.19 0-.385-.198-.583-.595v-.582zm7.851-5.303c.427.129.689.389.789.776.129 3.452.194 6.465.194 9.04 0 .701-.264 1.158-.789 1.371h-.583c-.396-.129-.594-.521-.594-1.177V6.491c.001-.784.328-1.177.983-1.177zM166.512 7.268V4.525c0-1.569.263-2.354.789-2.354h.594c.19 0 .385.259.583.777-.13.899-.194 1.688-.194 2.366h3.337l-.194-.4V3.348c0-.189.198-.389.595-.594h.583c.525 0 .788.918.788 2.754v1.371c0 2.096-.59 3.144-1.771 3.144h-2.948c-1.442-.001-2.162-.919-2.162-2.755zm1.772 0c.168.656.366.983.595.983h2.548c0-.435.065-.762.194-.983l-.389-.193c-1.646.128-2.628.193-2.948.193zm4.914 5.898c0-.785.587-1.178 1.761-1.178l3.143-.194c.792.327 1.188.914 1.188 1.76v1.188c0 1.44-1.375 2.16-4.126 2.16v.777c1.242 0 2.419-.064 3.531-.194.526.198.789.396.789.595v.582c0 .525-.789.789-2.366.789h-1.954c-.998 0-1.588-.655-1.771-1.966v-.788c0-1.174 1.242-1.76 3.726-1.76 0-.131.134-.195.4-.195v-.788l-.194-.4-.4.206h-3.143c-.184 0-.378-.198-.584-.594zm1.76-8.252c0-.206.263-.469.788-.789h3.143V2.948c.084-.784.282-1.177.595-1.177h.788c.13 0 .324.262.583.788 0 .259-.064.389-.194.389.13 1.311.194 2.294.194 2.948v4.32c0 .785-.393 1.178-1.177 1.178l-.595-.777v-2.16l-1.371.193h-1.371c-.739 0-1.2-.326-1.383-.982.183-.654.644-.982 1.383-.982h2.548v-.79h-3.337c-.19 0-.389-.193-.594-.582v-.4zM182.456 15.92c0-.655 1.311-.982 3.932-.982-.13-1.539-.194-2.785-.194-3.738 0-.183.198-.377.595-.582h.582c.526 0 .789 1.439.789 4.32h2.16c.472 0 1.063-.065 1.771-.195.655.221.982.549.982.983-.183.647-.644.972-1.383.972-1.166 0-3.981.068-8.445.205-.527-.137-.789-.465-.789-.983zm2.754-11.795h2.948c2.095 0 3.143.854 3.143 2.561v4.709c0 .189-.198.389-.594.594h-.583c-.19 0-.389-.198-.595-.594v-4.32c0-.785-.521-1.178-1.565-1.178-1.112 0-2.225.064-3.337.194-.526-.19-.789-.384-.789-.583v-.594c.214-.525.671-.789 1.372-.789zm10.023.595h.389c.396 0 .594.263.594.788 0 .671.065 1.981.194 3.932h2.16c.998 0 1.589.26 1.771.777v.594c0 .191-.198.385-.594.584-1.342-.13-2.389-.195-3.144-.195 0 .13-.064.195-.194.195l.194.399v4.126c0 .183-.198.377-.594.582h-.583c-.297 0-.495-.327-.595-.982-.259-5.889-.389-9.162-.389-9.816.254-.596.516-.923.791-.984zM211.929 3.154h.389c.19 0 .389.193.594.582v.389c0 .138-.263.861-.788 2.172.701.518 1.291.777 1.771.777.93-2.613 1.844-3.92 2.743-3.92.525.129.788.521.788 1.177-.221 0-.678.784-1.371 2.354 1.127.343 2.369 1.192 3.726 2.549v.594c0 .26-.13.389-.389.389h-.982l-2.949-1.966c-.213 0-.735.983-1.565 2.948h-.789c-.19 0-.388-.193-.594-.582.137-.747.206-1.402.206-1.967l-1.771-.788v.194c-.801 1.783-1.391 2.701-1.771 2.754h-.389c-.19 0-.389-.197-.595-.594v-.388c1.69-3.892 2.936-6.118 3.736-6.674zm2.355 11.383v-.583c0-.19.198-.389.594-.595h4.515c1.569 0 2.354.789 2.354 2.366v3.143c0 .198-.263.457-.789.777h-.389c-.19 0-.385-.194-.582-.583v-3.337c-.138-.396-.534-.595-1.189-.595h-3.92c-.191.001-.389-.196-.594-.593zm6.674-6.08V3.154c.274-.525.602-.789.983-.789.525.198.788.393.788.583v3.349h2.354c.739 0 1.2.324 1.383.971-.198.526-.396.789-.595.789h-3.143c.13 1.311.194 2.358.194 3.143 0 .191-.194.389-.583.595h-.594c-.525-.001-.787-1.113-.787-3.338zM228.066 10.217v-.778c0-1.318.983-2.236 2.949-2.754h.399c1.867 0 2.979 1.177 3.337 3.531-.457 1.966-1.569 2.949-3.337 2.949h-.206c-2.094-.297-3.142-1.28-3.142-2.948zm1.771-.778v.972c.335.655.861.983 1.577.983.519 0 1.04-.393 1.565-1.178 0-.617-.393-1.203-1.177-1.76-1.309.29-1.965.618-1.965.983zm11.395-4.719h.194c.396.084.594.609.594 1.577v8.445c0 .785-.327 1.178-.982 1.178s-.983-1.246-.983-3.737V6.297c-.001-1.052.392-1.577 1.177-1.577zM250.649 2.948h.595c.189 0 .384.198.582.595v5.496c.595 0 2.038-.064 4.332-.193.518.129.777.457.777.982 0 .655-1.308.982-3.921.982h-1.383c-1.173-.167-1.76-.758-1.76-1.771.001-4.06.259-6.091.778-6.091zm3.349 11.589v-.583c0-.19.194-.389.583-.595h4.125c2.096 0 3.144.461 3.144 1.383 0 3.27-.328 4.903-.983 4.903h-.389l-.594-.777v-2.171l.194-1.372-1.966-.194h-2.938c-.677 0-1.07-.197-1.176-.594zm6.08-2.549V2.365c0-.19.198-.389.594-.594.785 0 1.178.393 1.178 1.177v2.948c2.225 0 3.337.264 3.337.789v.582c-.13.396-.521.595-1.177.595-.13 0-.85-.064-2.16-.194v4.32c0 .19-.198.389-.595.594h-.583c-.191 0-.389-.197-.594-.594zM266.786 11.199v-.582c0-.191.198-.389.595-.595h7.852c.784 0 1.177.327 1.177.983-.13.525-.522.788-1.177.788h-2.549c0 2.88-.263 4.319-.789 4.319h-.595c-.389-.129-.583-.521-.583-1.176v-3.144h-2.754c-.678.002-1.071-.196-1.177-.593zm1.965-6.285c.427-2.096 1.345-3.143 2.754-3.143h.194c2.225.319 3.338 1.367 3.338 3.143 0 1.501-1.113 2.484-3.338 2.948-1.964-.235-2.948-1.218-2.948-2.948zm1.772.194c.259.655.651.982 1.177.982.815-.259 1.272-.587 1.372-.982v-.777c0-.214-.457-.476-1.372-.788-.784.266-1.177.788-1.177 1.565zm5.303 8.846c.259.525.453.788.583.788l-.194 1.371v2.355c.906 0 2.347-.065 4.32-.195.35 0 .678.328.982.983 0 .655-.587.983-1.76.983h-3.543c-.998 0-1.589-.656-1.771-1.967v-2.948c0-.913.461-1.37 1.383-1.37zm0-6.479h3.143c0-.664-.064-1.909-.194-3.738.062 0 .256-.129.583-.389.922 0 1.383.915 1.383 2.743.13 1.38.194 3.543.194 6.491 0 .785-.393 1.178-1.177 1.178-.19 0-.389-.198-.595-.594V9.234h-3.337c-.19 0-.389-.195-.594-.584v-.593c0-.191.197-.385.594-.582zM283.117 10.617c0-.785.393-1.178 1.178-1.178h9.428c.19 0 .385.194.583.583v.595c0 .189-.259.385-.777.582-3.451.13-6.335.195-8.651.195-1 .001-1.586-.259-1.761-.777zm2.354-7.074c0-1.311.59-2.358 1.771-3.144h1.76c1.447 0 2.366 1.048 2.755 3.144-.29 2.225-1.338 3.336-3.144 3.336-2.095-.297-3.143-1.279-3.143-2.947v-.389zm.583 9.816h4.331c1.174.176 1.76.766 1.76 1.771v.982c0 1.182-.586 1.771-1.76 1.771h-2.754v1.372h2.16c.472 0 1.063-.065 1.771-.194.654.221.982.549.982.982 0 .656-.591.983-1.771.983h-3.143c-1.143 0-1.799-.854-1.966-2.56 0-1.57.59-2.355 1.771-2.355h2.948v-.982h-3.737c-.784 0-1.177-.393-1.177-1.177.002-.188.197-.387.585-.593zm1.189-9.234c.244.48.636.809 1.177.983.915 0 1.372-.458 1.372-1.372v-.788c0-.206-.264-.465-.789-.777h-.982c-.519.175-.777.763-.777 1.761v.193zM302.946 2.56h.776c.396 0 .595.263.595.788 0 .191-.064 1.105-.194 2.743h2.354v-1.76c0-1.006.263-1.597.788-1.771h.389c.526.259.789.651.789 1.177-.13 2.819-.194 4.914-.194 6.286-.557.526-1.082.788-1.577.788h-1.178c-2.225 0-3.337-.982-3.337-2.948.16-3.536.423-5.303.789-5.303zm1.177 5.302v.983c1.311.129 2.096.193 2.354.193V7.862h-2.354zm5.497 7.864c1.181-.084 1.771-.282 1.771-.595V13.76h-3.932c-.19 0-.389-.198-.594-.594 0-.915.918-1.372 2.754-1.372h1.178c1.569 0 2.354.587 2.354 1.76v1.384c0 1.698-1.177 2.548-3.531 2.548h-.982c-.26.046-.389.179-.389.399.419.191 2.187.45 5.303.777l.194.4v.583c-.13.396-.522.595-1.178.595-4.061 0-6.091-.656-6.091-1.967v-.788c0-1.172 1.047-1.759 3.143-1.759zm2.755-5.898V3.154c0-.793.392-1.189 1.177-1.189.259 0 .518.396.777 1.189-.13.891-.194 1.611-.194 2.16 0 .389.133.582.399.582h1.372c.7 0 1.158.264 1.371.789v.389c0 .19-.194.389-.583.594h-2.56v1.371c0 .298.064.561.194.789-.26.785-.519 1.178-.777 1.178-.785 0-1.176-.393-1.176-1.178zM325.951 4.72c.396.427.595.755.595.983 0 .784-2.03 1.176-6.092 1.176h-.788c-.526-.197-.789-.392-.789-.582v-.789c-.001-.35 2.358-.613 7.074-.788zm-7.075 10.218v-.789l.206-.389c3.314-.137 5.733-.206 7.257-.206h2.561c.388.138.582.534.582 1.188l-.776.583h-3.932l-.389.194.194.982v1.771c0 .191-.198.389-.595.595h-.582c-.526 0-.789-1.116-.789-3.349h-2.56c-.678.002-1.07-.193-1.177-.58zm.984-11.395c0-.785.392-1.178 1.177-1.178h3.143c.709 0 1.17.264 1.383.789v.389c0 .129-.263.393-.788.788l-.983-.206h-3.337c-.192 0-.39-.193-.595-.582zm3.337 3.725c1.966.396 2.948 1.186 2.948 2.366v.777c0 1.234-.914 1.958-2.742 2.171h-.206c-1.829-.183-2.743-.971-2.743-2.365.228-1.966 1.142-2.949 2.743-2.949zm-.972 2.754c.13.526.521.788 1.178.788.654-.099.982-.297.982-.594v-.388c0-.19-.198-.389-.595-.594h-.982c-.198 0-.392.262-.583.788zm9.223-5.302h.595c.587 0 .979 3.535 1.177 10.605 0 .526-.327.919-.982 1.177-.655-.182-.983-.64-.983-1.371 0-2.521-.129-5.863-.389-10.022l.582-.389zM334.819 9.039v-.582c0-.19.198-.389.595-.595h6.674c.19 0 .389.198.595.595v.582c-.138.396-.533.595-1.188.595h-6.08c-.192 0-.39-.198-.596-.595zm1.372-3.336c.137-.396.529-.595 1.177-.595h2.948c.274.062.537.388.789.982-.13.526-.522.788-1.178.788h-1.966c-.297 0-.56.065-.788.195-.595-.252-.922-.511-.982-.777v-.593zm.205 6.879c0-1.47 1.112-2.323 3.337-2.56 1.57.625 2.354 1.543 2.354 2.755 0 1.562-.982 2.476-2.948 2.742h-.389c-1.569-.357-2.354-1.078-2.354-2.16v-.777zm2.937 1.178c.525-.198.788-.396.788-.594v-.584c0-.205-.263-.469-.788-.788-.785 0-1.178.457-1.178 1.372.131.396.523.594 1.178.594zm7.863-8.846h.583c.396.129.595.521.595 1.177V9.44h3.143c.19 0 .389.194.595.583 0 .784-.396 1.177-1.189 1.177h-2.548l.194 1.383v2.16c0 .785-.393 1.178-1.178 1.178l-.594-.4c-.13-2.613-.194-4.575-.194-5.886V5.508c-.001-.19.197-.389.593-.594zM353.71 7.475v-.596c0-.441 1.242-.704 3.726-.788 2.225.106 3.338.633 3.338 1.577-1.12 3.346-2.362 5.375-3.727 6.092-.525-.198-.788-.396-.788-.594v-.789c.99-1.25 1.844-2.689 2.56-4.32h-4.525c-.183 0-.377-.195-.584-.582zm12.172-3.35c.525.184.788.773.788 1.771v7.863l.194 1.178c-.251.594-.511.922-.777.982h-.399c-.526-.213-.789-.675-.789-1.383V8.65c0-1.059-.064-2.305-.194-3.736.129-.525.522-.789 1.177-.789zM377.653 3.543h.982c.267.037.4.167.4.389v.399c-.525 1.433-.789 2.218-.789 2.354l3.338 2.948v.583c0 .19-.194.389-.583.594h-.595l-3.143-2.354c-.404 2.225-.994 3.337-1.771 3.337-.519-.198-.777-.396-.777-.595 0-1.362.98-3.915 2.938-7.655zm6.091 9.623h.4c1.798 0 2.846.982 3.143 2.947 0 1.623-1.116 2.671-3.349 3.144-1.828-.45-2.742-1.303-2.742-2.56v-.584c.259-1.965 1.108-2.947 2.548-2.947zm-.388-10.801h.788c.389 0 .583.721.583 2.16v1.371h1.577V3.154c0-.198.259-.396.777-.595.35 0 .678.327.982.983.138 3.223.206 5.775.206 7.656l-.789.4c-.655-.183-.982-.644-.982-1.383v-2.16c0-.259-.134-.389-.4-.389h-1.371l.194 3.143c-.13.526-.522.789-1.178.789s-.982-2.949-.982-8.846l.595-.387zm-.4 13.944c.099.654.297.982.594.982h.983c.206 0 .469-.263.788-.789v-.776c-.213-.526-.674-.788-1.383-.788-.655.181-.982.638-.982 1.371zM391.242 3.348h.982c2.888 0 4.331.721 4.331 2.16v.389c0 3.146-.655 4.721-1.966 4.721l-2.754.193c-1.311 0-1.966-1.047-1.966-3.143V4.72c.001-.915.458-1.372 1.373-1.372zm.399 2.16v2.16c.038.914.168 1.371.389 1.371.525 0 1.379-.129 2.56-.389.13-1.538.194-2.65.194-3.336-.327 0-1.311-.069-2.948-.206l-.195.4zm7.269 7.269h.194c1.729 0 2.777 1.177 3.143 3.531-.327 1.568-1.245 2.354-2.754 2.354h-.982c-1.532 0-2.446-.979-2.743-2.937v-.205c-.001-1.562 1.046-2.477 3.142-2.743zm.388 4.125h.4c.518-.273.776-.602.776-.982 0-.519-.586-.979-1.76-1.383-.792 0-1.188.461-1.188 1.383.001.655.592.982 1.772.982zm-1.176-8.252c0-.189.197-.388.594-.594h3.726v-.982c0-.26-.129-.389-.389-.389-1.341.129-2.388.193-3.143.193-.525-.129-.788-.457-.788-.982 0-.654.849-.982 2.548-.982h1.577v-1.76c0-.191.198-.389.595-.595h.583l.594.389c.13 2.423.194 4.19.194 5.303v2.755c0 .678-.198 1.07-.594 1.177h-.583c-.19 0-.389-.194-.595-.583V9.828h-3.726c-.19 0-.389-.197-.594-.594V8.65zM405.812 10.617c0-.785.393-1.178 1.178-1.178h9.428c.19 0 .385.194.583.583v.595c0 .189-.259.385-.777.582-3.451.13-6.335.195-8.651.195-.999.001-1.585-.259-1.761-.777zm2.355-7.074c0-1.311.59-2.358 1.771-3.144h1.76c1.447 0 2.366 1.048 2.755 3.144-.29 2.225-1.338 3.336-3.144 3.336-2.095-.297-3.143-1.279-3.143-2.947v-.389zm.583 9.816h4.331c1.174.176 1.76.766 1.76 1.771v.982c0 1.182-.586 1.771-1.76 1.771h-2.754v1.372h2.16c.472 0 1.063-.065 1.771-.194.654.221.982.549.982.982 0 .656-.591.983-1.771.983h-3.143c-1.143 0-1.799-.854-1.966-2.56 0-1.57.59-2.355 1.771-2.355h2.948v-.982h-3.737c-.784 0-1.177-.393-1.177-1.177.002-.188.196-.387.585-.593zm1.188-9.234c.244.48.636.809 1.177.983.915 0 1.372-.458 1.372-1.372v-.788c0-.206-.264-.465-.789-.777h-.982c-.519.175-.777.763-.777 1.761v.193zM424.852 11.199c.389-2.225 1.303-3.337 2.743-3.337h.399c2.484.563 3.727 1.741 3.727 3.532-.442 1.965-1.356 2.947-2.743 2.947h-1.383c-1.47.001-2.385-1.046-2.743-3.142zm1.772.196c.175.541.499.937.972 1.188h.788c.709 0 1.17-.262 1.383-.788v-.399c0-1.045-.724-1.566-2.171-1.566h-.194c-.344-.002-.604.52-.778 1.565zm9.428-.389c0-.13-.068-.195-.206-.195l.206-1.965V5.314c0-.191.194-.389.583-.595h.389c.205 0 .469.263.788.788v4.126h1.966c1.006 0 1.596.259 1.771.777v.595c0 .189-.198.389-.595.594-1.112-.137-2.159-.205-3.143-.205-.13 1.965-.194 3.409-.194 4.331 0 .183-.198.377-.594.583h-.583c-.19 0-.389-.195-.595-.583v-4.526c.001-.129.071-.193.207-.193zM444.132 11.988c-.655-.221-.983-.549-.983-.982 0-.656.591-.983 1.771-.983h8.64c.785.084 1.178.282 1.178.595v.582c0 .191-.198.389-.595.595h-6.868c-.762-.001-1.81.064-3.143.193zm3.931-3.531c-1.706-.13-2.56-.655-2.56-1.578 0-1.698 1.311-2.548 3.932-2.548h.194V2.56h-1.566l-2.365.194-.583-.982c0-.656.587-.983 1.76-.983h2.561c1.439 0 2.16.72 2.16 2.16v1.177c0 1.448-1.048 2.172-3.144 2.172h-.982v.194h3.337c.785 0 1.177.327 1.177.983-.19.518-.385.776-.582.776-1.091 0-2.203.069-3.339.206zm-.982 11.588c-1.052 0-1.577-.788-1.577-2.365 0-2.75.327-4.126.982-4.126.671-.13 1.916-.259 3.737-.388 1.44 0 2.16.982 2.16 2.947v1.566c0 1.439-.591 2.16-1.771 2.16-1.242.001-2.419.069-3.531.206zm3.142-1.965c.259 0 .389-.134.389-.4v-2.16c0-.259-.13-.389-.389-.389h-2.754c-.13 1.311-.194 2.293-.194 2.949h2.948zM457.321 7.268h4.319c.19 0 .389.199.595.595v.595c-.13.389-.522.582-1.178.582h-2.948v2.755l.194.983h.983c.396 0 .594.064.594.193l.983-.193h.982c.784.076 1.177.27 1.177.582v.789c-.084.396-.609.594-1.577.594h-1.371c-2.491 0-3.737-.788-3.737-2.365V8.251c0-.175.329-.503.984-.983zm9.634 8.252V5.508c0-.189.194-.389.583-.594h.595c.388.129.582.521.582 1.177v3.543h1.577c.998 0 1.585.259 1.761.777v.595c-.13.396-.522.594-1.178.594-1.158-.137-1.878-.205-2.16-.205v4.719c0 .191-.194.385-.582.584-.786-.001-1.178-.393-1.178-1.178zM473.652 12.582v-.788c0-.229.328-.427.983-.595.289 0 .552.065.788.195 2.194-.13 3.894-.195 5.098-.195h4.125c.206 0 .469.264.789.789v.389c0 .19-.194.389-.583.594h-2.56l-1.966.195v3.336c0 .922-.328 1.383-.983 1.383s-.982-.59-.982-1.771v-2.947h-3.531c-.679-.001-1.072-.196-1.178-.585zm2.354-6.491c.373-1.866 1.485-2.979 3.337-3.337 2.362.358 3.543 1.471 3.543 3.337-.647 1.966-1.764 2.948-3.349 2.948h-.777c-1.355 0-2.274-.982-2.754-2.948zm1.966.4c0 .206.263.465.788.776h.389c1.181-.258 1.771-.582 1.771-.971v-.788c0-.205-.263-.469-.788-.788h-.595c-.708 0-1.23.327-1.565.983v.788zM487.629 6.686h.777c.396.084.594.605.594 1.565v3.144c.038.266.168.399.389.399h3.143l1.178-.194c.602.252.929.511.982.777v.4c0 .586-1.569.914-4.708.982-1.837 0-2.755-1.048-2.755-3.143-.13-.366-.194-1.35-.194-2.949.091-.653.29-.981.594-.981zm10.8-2.561c.525.199.788.396.788.595 0 .784.065 1.833.194 3.143h2.16l1.178-.194c.655.168.982.362.982.583v.788c-.13.396-.521.595-1.177.595h-2.949V11.2l3.531-.389c.526.131.789.522.789 1.178 0 .549-1.44.876-4.32.982v1.371l.194 1.178c-.251.602-.514.93-.788.982h-.389c-.525-.182-.789-.704-.789-1.564 0-1.699-.129-5.041-.389-10.023.132-.526.46-.79.985-.79zM504.726 5.108c0-1.173 1.246-1.761 3.737-1.761h.194c2.483.412 3.726 1.459 3.726 3.144v.776c0 1.418-.785 2.465-2.354 3.144-.914.267-1.371.53-1.371.788v1.578c0 .784-.328 1.177-.983 1.177-.525-.13-.788-.522-.788-1.177v-1.771c0-1.082 1.112-2 3.337-2.755.267-.427.4-.819.4-1.177 0-1.311-.789-1.966-2.366-1.966l-2.743.595h-.193c-.193 0-.39-.199-.596-.595zm2.16 12.183v-.389c0-.709.263-1.17.788-1.383h.789c.198 0 .457.264.777.789v.389c0 .922-.458 1.383-1.372 1.383h-.194c-.205 0-.468-.264-.788-.789zM520.154 11.395v-.584c0-.189.194-.389.583-.594h3.737c0-1.112-.065-2.225-.194-3.338.251-.594.511-.921.777-.982h.399c.519.214.777.671.777 1.371v2.949h4.914c.298 0 .495.328.595.982-.13.526-.522.789-1.178.789h-9.828c-.182 0-.376-.198-.582-.593zm1.565 8.445c2.515-4.053 3.955-6.08 4.32-6.08h.4c.183 0 .377.194.583.582 0 .61-.264 1.266-.789 1.967.952.914 2.068 1.832 3.349 2.754.13.229.194.557.194.982 0 .191-.263.385-.789.584-.738-.184-1.98-1.098-3.726-2.744-.159.016-.884.994-2.171 2.938h-.777c-.296-.001-.494-.329-.594-.983zM522.897.788h3.932c2.225 0 3.337.854 3.337 2.56v3.338c0 .19-.194.385-.583.582-.922 0-1.383-.914-1.383-2.742V2.754l-1.966-.194h-2.743c-.784 0-1.177-.392-1.177-1.177 0-.192.194-.389.583-.595zM533.342 15.726c0-.526.918-.788 2.755-.788h7.862c.731 0 1.188.327 1.371.982-.183.655-.64.982-1.371.982h-9.234c-.708 0-1.169-.263-1.383-.789v-.387zm2.366-8.058c.556-2.225 1.47-3.337 2.742-3.337 2.492.632 3.737 1.681 3.737 3.144v.582c0 1.28-.982 2.064-2.948 2.354h-.583c-1.965-.228-2.948-1.143-2.948-2.743zm3.337.982c.914 0 1.371-.326 1.371-.982-.389-.914-1.044-1.371-1.966-1.371-.198 0-.457.259-.776.777v.982c.129.397.586.594 1.371.594zM547.526 15.325h4.319v-3.531c-2.095 0-3.143-.853-3.143-2.56v-.388c0-1.182 1.112-1.771 3.337-1.771h1.966v-1.76l-.194-.4-2.354.194h-1.189c-.678 0-1.07-.194-1.177-.583v-.594c.213-.519.674-.777 1.383-.777h3.531c1.311 0 1.966 1.177 1.966 3.531 0 1.439-1.048 2.16-3.143 2.16l-2.354.193v.4c0 .26.587.453 1.76.583.899-.13 1.619-.194 2.16-.194 1.577 0 2.366.393 2.366 1.178-.138.525-.534.788-1.188.788h-2.16l.205.389v3.143h5.109c.183 0 .377.198.582.595v.582c0 .191-.194.389-.582.595h-11.2c-.19 0-.389-.198-.595-.595v-.583c0-.191.198-.389.595-.595zM567.159 10.217v-.778c0-1.318.983-2.236 2.949-2.754h.399c1.867 0 2.979 1.177 3.337 3.531-.457 1.966-1.569 2.949-3.337 2.949h-.206c-2.094-.297-3.142-1.28-3.142-2.948zm1.771-.778v.972c.335.655.861.983 1.577.983.519 0 1.04-.393 1.565-1.178 0-.617-.393-1.203-1.177-1.76-1.31.29-1.965.618-1.965.983zm11.395-4.719h.194c.396.084.594.609.594 1.577v8.445c0 .785-.327 1.178-.982 1.178s-.983-1.246-.983-3.737V6.297c-.001-1.052.392-1.577 1.177-1.577zM586.645 3.543h.788c.26.037.389.167.389.389v.399c0 .495-.327 1.216-.982 2.16.099 0 1.211 1.112 3.337 3.337v.789c0 .259-.13.389-.389.389H589c-.358-.16-1.406-1.144-3.144-2.949-.998 2.164-1.653 3.276-1.965 3.338h-.583c-.396-.13-.595-.522-.595-1.178.83-1.936 2.141-4.16 3.932-6.674zm2.16 13.748v-.389c.289-2.232 1.272-3.349 2.948-3.349 2.483.222 3.726 1.204 3.726 2.948-.365 2.225-1.478 3.338-3.337 3.338h-.583c-1.836-.296-2.754-1.146-2.754-2.548zm1.772-.194c.251.595.51.922.777.983h.594c1.181-.176 1.771-.766 1.771-1.771 0-.358-.655-.686-1.966-.983-.785.326-1.176.918-1.176 1.771zm3.725-14.732c.655.184.982.641.982 1.371v2.949h2.755c.784.084 1.177.277 1.177.582v.595c0 .19-.198.389-.594.595h-3.144V11.6c0 .678-.194 1.07-.583 1.178h-.788c-.389 0-.583-2.687-.583-8.058 0-.13-.068-.587-.206-1.372.223-.655.55-.983.984-.983zM600.816 15.325c0-.19.194-.384.583-.583.617 0 2.647.064 6.092.195.197 0 1.115-.065 2.754-.195.525.191.789.385.789.583v.788c-.084.389-.61.584-1.577.584h-6.286c-1.569 0-2.354-.26-2.354-.777v-.595zm1.565-8.251c.488-2.096 1.535-3.143 3.144-3.143 2.361.319 3.543 1.5 3.543 3.543 0 1.47-1.048 2.385-3.144 2.742h-.399c-2.096-.258-3.144-1.306-3.144-3.142zm1.772.194c.267.793.789 1.189 1.566 1.189.784 0 1.311-.396 1.577-1.189-.343-.838-.671-1.295-.983-1.371h-1.565c0 .129-.199.586-.595 1.371zm9.817 2.171V5.703c.046-.26.179-.389.4-.389h.788c.389.129.583.521.583 1.177V11.6c0 3.01-.327 4.514-.982 4.514h-.389c-.328-.258-.526-.388-.595-.388.131-2.82.195-4.915.195-6.287zM623.593 6.297c0-.655.591-.982 1.771-.982h2.743c1.311 0 1.966.521 1.966 1.564 0 .313-.26.839-.777 1.578v.193c1.958 1.51 2.938 2.424 2.938 2.744-.191.525-.386.788-.583.788h-.194c-.595 0-1.775-.72-3.543-2.16-.603 1.44-1.322 2.16-2.16 2.16l-.583-.788v-.389l2.743-3.932h-1.178c-.541 0-1.261.064-2.159.193-.351.002-.679-.322-.984-.969zm.984-3.349h3.531c1.181 0 1.771.461 1.771 1.383-.19 0-.385.194-.583.583-1.311-.129-2.294-.194-2.948-.194h-1.771c-.19 0-.385-.198-.583-.595v-.582c0-.191.194-.389.583-.595zm4.719 14.537v-2.16c0-.655.259-1.048.777-1.177.602.251.929.514.982.789v2.548h5.303c.19 0 .389.198.595.595v.582c0 .525-1.112.789-3.337.789h-.789c-2.354 0-3.531-.655-3.531-1.966zm3.726-10.799h3.143V5.108c0-.465-.064-1.052-.194-1.761.198-.525.396-.788.595-.788h.194c.784 0 1.177.522 1.177 1.565 0 1.891.064 4.446.194 7.669 0 .343-.327.671-.982.983-.655 0-.983-1.311-.983-3.932 0-.26-.129-.389-.389-.389h-2.754c-.19 0-.385-.198-.583-.595v-.592c-.001-.182.193-.377.582-.582zM639.73 9.039v-.582c0-.19.198-.389.595-.595h6.674c.19 0 .389.198.595.595v.582c-.138.396-.533.595-1.188.595h-6.08c-.192 0-.39-.198-.596-.595zm1.372-3.336c.137-.396.529-.595 1.177-.595h2.948c.274.062.537.388.789.982-.13.526-.522.788-1.178.788h-1.966c-.297 0-.56.065-.788.195-.595-.252-.922-.511-.982-.777v-.593zm.205 6.879c0-1.47 1.112-2.323 3.337-2.56 1.57.625 2.354 1.543 2.354 2.755 0 1.562-.982 2.476-2.948 2.742h-.389c-1.569-.357-2.354-1.078-2.354-2.16v-.777zm2.938 1.178c.525-.198.788-.396.788-.594v-.584c0-.205-.263-.469-.788-.788-.785 0-1.178.457-1.178 1.372.13.396.522.594 1.178.594zm7.862-8.846h.583c.396.129.595.521.595 1.177V9.44h3.143c.19 0 .389.194.595.583 0 .784-.396 1.177-1.189 1.177h-2.548l.194 1.383v2.16c0 .785-.393 1.178-1.178 1.178l-.594-.4c-.13-2.613-.194-4.575-.194-5.886V5.508c-.001-.19.197-.389.593-.594zM658.622 11.006v-.595c.13-.389.521-.583 1.178-.583h6.091c3.276 0 4.914.328 4.914.982v.195l-.594.788c-3.078-.13-5.368-.194-6.869-.194h-4.125c-.191.001-.389-.198-.595-.593zm2.754-4.709v-.789c0-1.439.849-2.16 2.548-2.16h1.178V2.171h-1.954c-1.006 0-1.597-.263-1.771-.788V.788c.129-.389.521-.583 1.177-.583h2.16c1.569 0 2.354.914 2.354 2.743v.399c0 1.311-1.308 1.967-3.92 1.967v.776h3.92c.19 0 .388.198.594.595v.582c0 .191-.198.389-.594.595h-3.92c-1.182 0-1.772-.521-1.772-1.565zm1.772 6.869h3.531c.655.334.982.86.982 1.576v1.178c0 1.173-1.375 1.76-4.126 1.76v.789c2.751.076 4.126.338 4.126.788v.583c0 .189-.198.389-.594.594h-1.178c-2.278 0-3.653-.393-4.126-1.177v-1.372c0-1.439 1.311-2.159 3.932-2.159h.194v-.788h-2.354l-1.177.193c-.525-.197-.788-.396-.788-.594v-.777c.084-.397.61-.594 1.578-.594zM678.655 9.039v-.582c0-.19.198-.389.595-.595h6.674c.19 0 .389.198.595.595v.582c-.138.396-.533.595-1.188.595h-6.08c-.192 0-.39-.198-.596-.595zm1.372-3.336c.137-.396.529-.595 1.177-.595h2.948c.274.062.537.388.789.982-.13.526-.522.788-1.178.788h-1.966c-.297 0-.56.065-.788.195-.595-.252-.922-.511-.982-.777v-.593zm.205 6.879c0-1.47 1.112-2.323 3.337-2.56 1.57.625 2.354 1.543 2.354 2.755 0 1.562-.982 2.476-2.948 2.742h-.389c-1.569-.357-2.354-1.078-2.354-2.16v-.777zm2.937 1.178c.525-.198.788-.396.788-.594v-.584c0-.205-.263-.469-.788-.788-.785 0-1.178.457-1.178 1.372.131.396.523.594 1.178.594zm7.863-8.846h.583c.396.129.595.521.595 1.177V9.44h3.143c.19 0 .389.194.595.583 0 .784-.396 1.177-1.189 1.177h-2.548l.194 1.383v2.16c0 .785-.393 1.178-1.178 1.178l-.594-.4c-.13-2.613-.194-4.575-.194-5.886V5.508c-.001-.19.197-.389.593-.594zM3.337 27.542c2.095.389 3.143 1.371 3.143 2.948v.777c0 1.44-1.112 2.423-3.337 2.948C1.048 33.828 0 32.913 0 31.474v-.4c.381-2.355 1.493-3.532 3.337-3.532zm-.388 4.914c1.181-.213 1.771-.804 1.771-1.771 0-.609-.393-1.066-1.177-1.371-1.181.267-1.771.918-1.771 1.954-.001.342.392.739 1.177 1.188zm3.931 4.515h.777c.266.038.4.168.4.389v.399c-.268.922-.4 1.509-.4 1.761.305 0 .701.198 1.188.594h.389c.404-2.095 1.059-3.143 1.967-3.143.389 0 .582.13.582.389v.594l-.389 1.372c2.225 1.493 3.338 2.347 3.338 2.56v.389c0 .19-.195.389-.584.595h-.787L10.8 41.097h-.195c-.258 1.828-.65 2.742-1.176 2.742h-.388c-.191 0-.389-.194-.594-.583v-1.371c-.801-.396-1.322-.594-1.566-.594-.229 1.569-.557 2.354-.982 2.354h-.596c-.183 0-.377-.194-.583-.583v-.193c.869-3.932 1.588-5.898 2.16-5.898zm1.567-7.658c0-.206.262-.469.787-.789h2.549l-.193-.399V26.56c.273-.526.602-.789.982-.789.654 0 .982 1.181.982 3.543.268 0 .4 1.44.4 4.32v1.371c0 .678-.199 1.07-.594 1.177h-.596c-.182 0-.377-.194-.582-.582v-1.771c0-.26-.133-.389-.4-.389H9.234c-.525-.274-.787-.603-.787-.983.129-.525.521-.788 1.176-.788h2.365v-1.372H9.234c-.205 0-.469-.263-.787-.788v-.196zM16.332 39.725c0-.525.918-.788 2.755-.788h7.862c.731 0 1.188.327 1.371.982-.183.655-.64.983-1.371.983h-9.234c-.708 0-1.169-.264-1.383-.789v-.388zm2.366-8.057c.556-2.225 1.47-3.337 2.742-3.337 2.492.632 3.737 1.68 3.737 3.143v.583c0 1.279-.982 2.064-2.948 2.354h-.583c-1.966-.229-2.948-1.143-2.948-2.743zm3.337.982c.914 0 1.371-.327 1.371-.982-.389-.914-1.044-1.372-1.966-1.372-.198 0-.457.26-.776.777v.983c.128.396.586.594 1.371.594zM32.468 30.685h1.771c1.311 0 1.966 1.178 1.966 3.531 0 2.492-1.182 3.737-3.543 3.737h-.582c-1.44 0-2.16-1.047-2.16-3.143v-2.354c-.001-1.181.849-1.771 2.548-1.771zm-.194 5.497c1.311-.099 1.966-.293 1.966-.582v-3.144h-1.577l-.983.194v2.354c.083.786.281 1.178.594 1.178zm6.092-4.125h2.742v-1.761c0-.19.198-.388.595-.594h.583c.655 0 .982 2.487.982 7.463v2.16c-.267.525-.594.788-.982.788-.519-.129-.777-.521-.777-1.177V36.97c-2.621-.084-3.932-.347-3.932-.789V35.6c0-.19.194-.389.583-.595h3.349c-.138-.198-.206-.591-.206-1.177h-2.549c-.784 0-1.177-.393-1.177-1.178l.789-.593zM46.4 37.554c.404.015 1.06.605 1.966 1.771.396.229.595.754.595 1.577 0 1.303-.526 2.35-1.577 3.143H46.8c-.297 0-.495-.328-.595-.983.655-1.005.983-1.794.983-2.365-.13 0-.522.068-1.178.206-.784-.274-1.177-.801-1.177-1.577.208-1.182.729-1.772 1.567-1.772zM62.148 37.554h-.583c-.396 0-.594-.785-.594-2.354l-.389.194h-2.56c-.701 0-1.158-.259-1.372-.777v-.4c.214-.518.671-.776 1.372-.776h8.251c.19 0 .389.194.595.583v.594c0 .183-.198.377-.595.583h-3.531v1.771c.001.189-.198.383-.594.582zm2.366-5.692h-6.686c-.191 0-.385-.198-.583-.595v-.583c.129-.396.521-.594 1.177-.594h.583v-3.144h-1.177c-.526-.267-.789-.594-.789-.982.138-.518.533-.777 1.188-.777h4.903l1.177-.205c.655.168.983.365.983.594v.789c-.13.389-.522.582-1.178.582h-.583v3.144h1.566c.19 0 .388.198.594.594.002.785-.391 1.177-1.175 1.177zm-1.383 12.377h-1.966c-1.57 0-2.354-.591-2.354-1.771V39.52c0-1.044.854-1.566 2.56-1.566.274 0 .995-.064 2.16-.194 1.569 0 2.354.85 2.354 2.549v2.16c0 1.179-.918 1.77-2.754 1.77zm0-1.771l.982-.194v-1.577l-.194-.972h-3.337v2.354c.038.259.167.389.389.389h2.16zm-1.372-12.377v-2.743c0-.267-.129-.4-.389-.4h-.594v.789l.194 2.354h.789zM68.467 35.394c.389-2.225 1.238-3.337 2.549-3.337h.788c1.607 0 2.591 1.112 2.949 3.337-.488 1.966-1.601 2.948-3.337 2.948h-.206c-1.829-.175-2.743-.96-2.743-2.354v-.594zm2.95 1.188c.586 0 1.108-.461 1.565-1.383-.26-.709-.651-1.166-1.178-1.371-1.051 0-1.577.655-1.577 1.965.138.526.533.789 1.19.789zm4.125-1.966c0-.19.194-.389.583-.594h3.337v-1.566l-.194-1.966.595-.399h.583c.525.267.788.659.788 1.177.13 3.611.194 6.103.194 7.475-.091.655-.285.982-.583.982h-.595c-.19 0-.389-.198-.595-.594v-2.949c0-.259-.129-.389-.389-.389h-3.143c-.19 0-.385-.197-.583-.594v-.583zm7.851-5.303c.427.13.689.389.789.777.129 3.451.194 6.465.194 9.04 0 .701-.264 1.158-.789 1.371h-.583c-.396-.13-.594-.521-.594-1.177V30.49c.001-.784.328-1.177.983-1.177zM92.227 34.41v-.582c0-.19.198-.389.595-.595 2.856 0 6.655-.064 11.394-.194.26.435.389.827.389 1.177-.427.396-.754.595-.982.595-.45 0-1.825.064-4.126.194v3.143c0 .19-.194.389-.583.595h-.594c-.389-.138-.583-.533-.583-1.188v-2.549h-4.914c-.192-.001-.39-.199-.596-.596zm1.772-7.062c0-1.311.393-1.966 1.178-1.966l.788.389c-.13 1.311-.194 2.557-.194 3.737h2.549c.724 0 1.642-.064 2.754-.194.526.19.789.385.789.583v.788c0 .427-2.096.689-6.286.789-.922 0-1.447-.72-1.577-2.16v-1.966zm.594 13.554v-3.144c.129-.396.521-.594 1.177-.594l.583.788v3.144c0 .388.72.582 2.16.582 1.623-.129 2.476-.194 2.56-.194.526.13.789.458.789.983 0 .655-.854.982-2.561.982H97.93c-2.224.001-3.337-.848-3.337-2.547zM106.205 35.394c.389-2.225 1.238-3.337 2.549-3.337h.788c1.607 0 2.591 1.112 2.949 3.337-.488 1.966-1.601 2.948-3.337 2.948h-.206c-1.829-.175-2.743-.96-2.743-2.354v-.594zm2.949 1.188c.586 0 1.108-.461 1.565-1.383-.26-.709-.651-1.166-1.178-1.371-1.051 0-1.577.655-1.577 1.965.138.526.534.789 1.19.789zm4.125-1.966c0-.19.194-.389.583-.594h3.337v-1.566l-.194-1.966.595-.399h.583c.525.267.788.659.788 1.177.13 3.611.194 6.103.194 7.475-.091.655-.285.982-.583.982h-.594c-.19 0-.389-.198-.595-.594v-2.949c0-.259-.129-.389-.389-.389h-3.143c-.19 0-.385-.197-.583-.594v-.583zm7.851-5.303c.427.13.689.389.789.777.129 3.451.194 6.465.194 9.04 0 .701-.264 1.158-.789 1.371h-.583c-.396-.13-.594-.521-.594-1.177V30.49c.001-.784.328-1.177.983-1.177zM129.964 30.49c.419-2.361 1.269-3.543 2.549-3.543 2.491.45 3.737 1.696 3.737 3.737 0 1.57-1.048 2.553-3.144 2.949h-.399c-1.829-.533-2.743-1.452-2.743-2.755v-.388zm1.76.389c0 .176.328.503.983.983h.194c.784 0 1.311-.457 1.577-1.372 0-.846-.591-1.371-1.771-1.577h-.194c-.366 0-.629.655-.789 1.966zm4.915 8.058h3.143c.259 0 .389-.134.389-.4V37.36c-1.966.13-3.406.194-4.32.194-.19 0-.385-.194-.583-.583 0-.785.587-1.178 1.761-1.178.578-.129 1.626-.193 3.143-.193h.194c1.051 0 1.577.521 1.577 1.565v1.577c0 1.303-.785 1.954-2.354 1.954h-2.366v.982c.046.267.18.4.4.4h4.914c.184 0 .378.194.583.583v.594c0 .526-1.375.789-4.126.789-2.483 0-3.726-.918-3.726-2.754-.001-.967.456-1.752 1.371-2.353zm.788-8.846v-.389c0-.19.194-.389.583-.595h3.337c0-.662-.064-1.904-.194-3.726l.595-.399h.583c.655 0 .982 1.9.982 5.702v3.726c0 .793-.393 1.189-1.177 1.189-.19 0-.385-.198-.583-.595v-4.126h-2.755c-.7.001-1.158-.262-1.371-.787zM144.913 32.251c0-1.044 1.242-1.566 3.726-1.566h.4c1.569 0 2.354.655 2.354 1.966v1.565c0 2.362-.785 3.543-2.354 3.543-.731 0-1.451.065-2.16.194-1.311-.305-1.966-.96-1.966-1.966v-3.736zm1.759 3.736h2.366c.389 0 .583-.72.583-2.159v-.983c0-.259-.194-.389-.583-.389-.214 0-1.002.065-2.366.194v3.337zm8.652-7.074c.198-.525.393-.788.583-.788h.789c.396.084.594.609.594 1.577v3.143h2.16c.701 0 1.158.263 1.372.789 0 .784-.393 1.177-1.178 1.177h-2.354c.13 1.768.194 3.208.194 4.32 0 .19-.198.389-.594.594h-.583l-.595-.399c-.129-2.415-.194-4.184-.194-5.303v-3.932l-.194-1.178zM162.421 35.987v-.594c0-3.139.263-4.709.789-4.709h.594c.389 0 .583.263.583.789-.13 2.781-.194 4.415-.194 4.902h3.737c.701 0 1.158.263 1.371.789v.389c-.061.274-.389.537-.982.788-1.433-.129-2.808-.194-4.126-.194-1.181 0-1.772-.719-1.772-2.16zm9.829 1.966v-8.64c0-.19.194-.389.582-.595h.595c.19 0 .385.198.583.595v3.92l.982.206h2.366c.183 0 .377.194.583.583v.594c-.13.389-.522.583-1.178.583h-2.754c0 1.242.068 2.75.206 4.525-.435.389-.763.583-.983.583-.654.001-.982-.784-.982-2.354zM186.582 30.879h.583c.396 0 .594.263.594.789-.13 1.158-.194 1.878-.194 2.16h3.337v-2.561c0-.19.264-.385.789-.583.784 0 1.177.85 1.177 2.549v1.383c0 2.751-.461 4.126-1.383 4.126h-3.92c-1.181-.176-1.771-.766-1.771-1.771v-3.737c-.002-1.57.261-2.355.788-2.355zm.982 4.721v1.371h3.337v-1.178l-.982-.193h-2.355zm9.234 3.142c0-3.124.064-6.335.194-9.635l.777-.389c.655.184.982.641.982 1.372v3.543h2.949c.396.129.594.521.594 1.177l-.788.583h-2.949v1.771c0 .549.064 1.269.194 2.16-.19.525-.385.788-.583.788h-.594c-.517-.212-.776-.669-.776-1.37zM204.49 39.325h4.319v-3.532c-2.095 0-3.143-.853-3.143-2.56v-.389c0-1.181 1.112-1.771 3.337-1.771h1.966v-1.76l-.194-.4-2.354.194h-1.189c-.678 0-1.07-.194-1.177-.583v-.594c.213-.519.674-.777 1.383-.777h3.531c1.311 0 1.966 1.178 1.966 3.531 0 1.44-1.048 2.16-3.143 2.16l-2.354.194v.4c0 .259.587.453 1.76.583.899-.13 1.619-.194 2.16-.194 1.577 0 2.366.393 2.366 1.177-.138.525-.534.788-1.188.788h-2.16l.205.389v3.144h5.109c.183 0 .377.198.582.594v.583c0 .19-.194.389-.582.595h-11.2c-.19 0-.389-.198-.595-.595v-.583c0-.19.198-.389.595-.594zM225.895 38.536h4.114c3.673 0 5.509.328 5.509.983v.399c0 .183-.198.377-.595.583-1.203 0-2.906-.064-5.108-.194-1.95.13-3.585.194-4.902.194-.526-.13-.789-.521-.789-1.177.175-.525.765-.788 1.771-.788zm-.206-9.028v-.789c.084-.396.61-.594 1.577-.594h3.338c1.836 0 2.754 1.245 2.754 3.737v3.337c0 .739-.327 1.2-.982 1.383-.526-.198-.789-.396-.789-.595v-2.948c0-.655-.064-1.638-.194-2.948l-1.177-.194c-.717 0-1.962.064-3.737.194-.526-.191-.79-.385-.79-.583zM240.466 33.039h7.063c.298 0 .561-.064.789-.194.655.168.982.366.982.595v.776c-.084.396-.605.595-1.565.595h-4.914c-1.303 0-2.876.064-4.72.194-.595-.251-.922-.515-.983-.789v-.388c0-.526 1.116-.789 3.348-.789zm-.982-7.074c0-1.311 1.177-1.966 3.531-1.966h1.577c1.173 0 1.76.462 1.76 1.383-.479.389-.938.583-1.371.583h-3.737v.595c0 1.394.198 2.243.594 2.548l2.354-.194h2.16c.19 0 .389.198.595.595v.788c0 .26-.393.454-1.178.583v-.194l-.399.194h-3.338c-1.698 0-2.548-1.047-2.548-3.143v-1.772zm2.16 13.555h1.565c1.439 0 2.16-.194 2.16-.583v-.595h-4.515c-.525-.267-.788-.594-.788-.982.197-.519.396-.777.594-.777h4.914c.709 0 1.23.324 1.566.972v1.577c0 1.439-1.178 2.16-3.532 2.16h-1.771v1.177l.983.194h4.32c.259.046.388.179.388.399v.777c0 .19-.193.389-.582.595h-4.515c-1.707 0-2.56-.983-2.56-2.949.13-1.31.721-1.965 1.773-1.965zM250.9 35.394c.389-2.225 1.238-3.337 2.549-3.337h.788c1.607 0 2.591 1.112 2.949 3.337-.488 1.966-1.601 2.948-3.337 2.948h-.206c-1.829-.175-2.743-.96-2.743-2.354v-.594zm2.949 1.188c.586 0 1.108-.461 1.565-1.383-.26-.709-.651-1.166-1.178-1.371-1.051 0-1.577.655-1.577 1.965.138.526.534.789 1.19.789zm4.125-1.966c0-.19.194-.389.583-.594h3.337v-1.566l-.194-1.966.595-.399h.583c.525.267.788.659.788 1.177.13 3.611.194 6.103.194 7.475-.091.655-.285.982-.583.982h-.594c-.19 0-.389-.198-.595-.594v-2.949c0-.259-.129-.389-.389-.389h-3.143c-.19 0-.385-.197-.583-.594v-.583zm7.852-5.303c.427.13.689.389.789.777.129 3.451.194 6.465.194 9.04 0 .701-.264 1.158-.789 1.371h-.583c-.396-.13-.594-.521-.594-1.177V30.49c0-.784.327-1.177.983-1.177zM268.409 31.862l.777-.595h4.126c1.051.1 1.577.561 1.577 1.383-.655 4.579-1.182 6.869-1.577 6.869h-.777c-.198 0-.396-.26-.595-.777.655-3.36.983-5.261.983-5.703h-3.737c-.519-.259-.777-.651-.777-1.177zm8.24 2.16h2.948v-2.949c0-.183.198-.377.595-.583h.583c.19 0 .389.194.594.583v5.897c0 .473.064 1.063.194 1.771-.198.518-.393.777-.583.777h-.788c-.396-.076-.595-.599-.595-1.566v-2.16h-2.948c-.183 0-.377-.197-.583-.594v-.583c0-.189.194-.387.583-.593zm6.297 5.303V30.49c0-.784.393-1.177 1.178-1.177.183 0 .377.194.582.583v4.126c0 .297.065.56.194.788-.129.229-.194.491-.194.789 0 .137.065.331.194.582l-.194.4c.13.251.194.445.194.583h-.194l.194.389c0 1.966-.259 2.948-.776 2.948h-.595c-.389-.129-.583-.521-.583-1.176zM292.75 37.165v-.583c0-.19.198-.389.595-.595h9.028c.784.084 1.177.282 1.177.595v.777c0 .267-.129.399-.389.399h-4.125c0 .442.064 1.49.194 3.144-.13.518-.457.776-.983.776-.655 0-.982-.979-.982-2.937v-.983h-3.92c-.19.001-.388-.196-.595-.593zm1.772-6.092v-.389c0-1.265.655-2.247 1.966-2.948h1.371c2.096.274 3.144 1.128 3.144 2.56v.777c0 1.311-1.113 2.164-3.338 2.561h-.399c-1.83-.427-2.744-1.28-2.744-2.561zm1.76 0c0 .396.526.659 1.577.789.815-.267 1.272-.595 1.372-.983v-.583c0-.35-.457-.613-1.372-.788-.762 0-1.287.327-1.577.982v.583zm8.651-1.966c.062 0 .256-.129.583-.389h.595c.609 0 1.002 3.406 1.177 10.218-.251.594-.514.922-.788.982h-.389c-.526-.175-.789-.766-.789-1.771 0-2.216-.129-5.23-.389-9.04zM308.888 33.039v-.583c0-.19.198-.389.595-.594h6.674c.19 0 .389.198.595.594v.583c-.138.396-.533.595-1.188.595h-6.08c-.192 0-.39-.198-.596-.595zm1.372-3.337c.137-.396.529-.595 1.177-.595h2.948c.274.062.537.389.789.983-.13.525-.522.788-1.178.788h-1.966c-.297 0-.56.065-.788.194-.595-.251-.922-.51-.982-.777v-.593zm.205 6.88c0-1.471 1.112-2.324 3.337-2.56 1.57.624 2.354 1.542 2.354 2.754 0 1.562-.982 2.477-2.948 2.743h-.389c-1.569-.358-2.354-1.078-2.354-2.16v-.777zm2.938 1.177c.525-.197.788-.396.788-.594v-.583c0-.206-.263-.469-.788-.789-.785 0-1.178.458-1.178 1.372.13.397.523.594 1.178.594zm7.862-8.846h.583c.396.13.595.522.595 1.178v3.349h3.143c.19 0 .389.194.595.583 0 .784-.396 1.177-1.189 1.177h-2.548l.194 1.383v2.16c0 .784-.393 1.177-1.178 1.177l-.594-.399c-.13-2.613-.194-4.575-.194-5.886v-4.126c-.001-.192.198-.39.593-.596zM327.779 35.199c.701-2.354 1.749-3.531 3.143-3.531 1.372 0 2.354 1.048 2.949 3.143v.389c0 1.562-.918 2.545-2.755 2.948h-.582c-1.609-.001-2.527-.983-2.755-2.949zm1.966 0v.594c0 .184.194.378.583.583h.206c.708 0 1.229-.327 1.565-.982-.259-1.173-.587-1.76-.983-1.76h-.388c-.656.335-.983.856-.983 1.565zm4.514 1.383c0-.792 1.504-1.188 4.514-1.188v-.984h-3.726c-.274-.053-.537-.377-.788-.971.129-.526.521-.789 1.177-.789h2.948v-.982l-.194-1.178c.198-.525.393-.788.583-.788h.595c.784 0 1.177 2.095 1.177 6.285v3.737c0 .26-.129.389-.389.389h-.788c-.19 0-.389-.198-.595-.594v-2.354l-1.371.194h-2.549c-.198 0-.396-.258-.594-.777zM346.271 30.685c.525.198.788.393.788.583v.4c-.525 1.433-.788 2.217-.788 2.354 2.225 2.133 3.337 3.508 3.337 4.125v.194c0 .19-.194.389-.583.595-.617 0-1.862-1.112-3.737-3.337h-.193c0 .19-.462 1.169-1.384 2.937h-.971c-.19 0-.389-.194-.595-.583 2.096-4.846 3.471-7.268 4.126-7.268zm4.515 2.949h3.931v-3.932c.13-.396.522-.595 1.178-.595l.594.789c0 .571.064 3.52.194 8.846-.13.784-.327 1.177-.594 1.177h-.777c-.305 0-.503-.327-.595-.982l.194-1.966c-.129-.724-.194-1.25-.194-1.577h-2.548c-.298 0-.561.068-.789.206-.922-.214-1.383-.541-1.383-.983.258-.602.521-.93.789-.983zM359.196 37.953h.983c.205 0 .465.263.777.789v1.371c-.336.655-.857.983-1.566.983-.784-.206-1.177-.663-1.177-1.372v-.788c0-.175.328-.502.983-.983zM372.328 27.542h.982c.267.038.4.168.4.389v.4c-.525 1.432-.789 2.217-.789 2.354l3.338 2.949v.582c0 .191-.194.389-.583.595h-.595l-3.143-2.354c-.404 2.225-.994 3.337-1.771 3.337-.519-.197-.777-.396-.777-.594 0-1.365.98-3.917 2.938-7.658zm6.09 9.623h.4c1.798 0 2.846.982 3.143 2.948 0 1.623-1.116 2.671-3.349 3.143-1.828-.449-2.742-1.303-2.742-2.56v-.583c.259-1.966 1.109-2.948 2.548-2.948zm-.387-10.8h.788c.389 0 .583.72.583 2.159v1.372h1.577v-2.743c0-.198.259-.396.777-.594.35 0 .678.327.982.982.138 3.223.206 5.775.206 7.657l-.789.4c-.655-.184-.982-.645-.982-1.384v-2.159c0-.26-.134-.389-.4-.389h-1.371l.194 3.143c-.13.525-.522.789-1.178.789s-.982-2.949-.982-8.846l.595-.387zm-.401 13.943c.099.655.297.983.594.983h.983c.206 0 .469-.264.788-.789v-.777c-.213-.525-.674-.788-1.383-.788-.654.182-.982.639-.982 1.371zM384.544 39.325c0-.19.194-.385.583-.583.617 0 2.647.064 6.092.194.197 0 1.115-.064 2.754-.194.525.19.789.385.789.583v.788c-.084.389-.61.583-1.577.583h-6.286c-1.569 0-2.354-.259-2.354-.777v-.594zm1.566-8.252c.488-2.095 1.535-3.143 3.144-3.143 2.361.32 3.543 1.501 3.543 3.543 0 1.471-1.048 2.385-3.144 2.742h-.399c-2.096-.258-3.144-1.305-3.144-3.142zm1.771.195c.267.793.789 1.188 1.566 1.188.784 0 1.311-.396 1.577-1.188-.343-.838-.671-1.295-.983-1.371h-1.565c0 .129-.198.586-.595 1.371zm9.818 2.171v-3.737c.046-.259.179-.389.4-.389h.788c.389.13.583.521.583 1.177v5.11c0 3.009-.327 4.514-.982 4.514h-.389c-.328-.259-.526-.389-.595-.389.13-2.819.195-4.914.195-6.286zM407.321 31.268c.457-.647 2.16-.972 5.108-.972.854 0 1.509.393 1.966 1.178v1.177c-1.227 3.795-2.08 5.691-2.56 5.691-.595-.251-.922-.514-.983-.788 0-.328.591-2.16 1.771-5.497-.838 0-2.476.133-4.914.399-.258-.434-.388-.83-.388-1.188zm10.8-1.955c.26-.602.522-.93.789-.982h.594c.389.076.583.598.583 1.565v3.143h3.337c.793.084 1.189.282 1.189.595v.582c0 .138-.264.4-.789.789l-.982-.194h-2.755l.194 2.354v1.966c0 .297-.327.495-.982.594-.655 0-.983-1.836-.983-5.509-.001-.487-.066-2.121-.195-4.903zM426.807 32.251h5.303c.198 0 .457.263.777.788v.4c0 .51-.393 1.162-1.178 1.954 1.707 1.471 2.561 2.453 2.561 2.948-.198.526-.396.789-.595.789h-.583c-.792-.739-1.646-1.459-2.56-2.16l-1.565 1.771h-.789c-.198 0-.396-.263-.594-.789.159-.548 1.077-1.794 2.754-3.737v-.193c-.13 0-1.112.064-2.948.193-.534-.259-.926-.388-1.178-.388v-.983c0-.19.199-.388.595-.593zm-.4-1.178v-.583c0-.525.785-.788 2.354-.788h2.56c.785 0 1.178.393 1.178 1.177 0 .396-.263.595-.789.595-.594 0-2.099.064-4.514.194-.527-.198-.789-.397-.789-.595zm12.377-.777c0-.708.263-1.169.789-1.383h.389l.788.789-.194 2.354c0 .99.064 3.74.194 8.251-.327.259-.525.389-.594.389h-.583c-.526 0-.789-1.768-.789-5.303v-5.097zM442.349 35.005v-.595c.13-.388.521-.582 1.178-.582h6.091c3.276 0 4.914.327 4.914.982v.194l-.594.788c-3.078-.129-5.368-.193-6.869-.193h-4.125c-.191.001-.389-.198-.595-.594zm2.755-4.709v-.788c0-1.44.849-2.16 2.548-2.16h1.178v-1.177h-1.954c-1.006 0-1.597-.263-1.771-.789v-.595c.129-.389.521-.582 1.177-.582h2.16c1.569 0 2.354.914 2.354 2.742v.4c0 1.311-1.308 1.966-3.92 1.966v.777h3.92c.19 0 .388.198.594.594v.583c0 .19-.198.389-.594.595h-3.92c-1.182 0-1.772-.522-1.772-1.566zm1.771 6.869h3.531c.655.335.982.861.982 1.577v1.177c0 1.174-1.375 1.76-4.126 1.76v.789c2.751.076 4.126.339 4.126.788v.583c0 .19-.198.389-.594.595h-1.178c-2.278 0-3.653-.393-4.126-1.178v-1.371c0-1.439 1.311-2.16 3.932-2.16h.194v-.788h-2.354l-1.177.194c-.525-.198-.788-.396-.788-.595v-.777c.084-.396.611-.594 1.578-.594zM462.383 33.233c.152-3.924.48-5.886.983-5.886h.582c.19 0 .389.194.595.583v1.177l-.194 1.383h2.549l.389.194v-.194c-.13-.898-.194-1.618-.194-2.159.068 0 .267-.134.594-.4h.583c.557 0 .884 1.638.983 4.914 0 1.09-.522 1.81-1.566 2.16l-1.966-.194h-1.771c-1.045 0-1.567-.526-1.567-1.578zm1.76-.194h3.144v-.583h-3.144v.583zm2.755 7.657c0-2.095.393-3.143 1.177-3.143.526.198.789.396.789.594v1.577c0 .29-.065.549-.194.777.129.221.194.549.194.982h4.514c.298 0 .561-.064.789-.193.351 0 .678.327.982.982 0 .784-1.768 1.177-5.303 1.177h-.194c-1.836.001-2.754-.917-2.754-2.753zm6.091-9.222v-4.126c0-.206.264-.469.789-.788.594.251.922.514.982.788v3.143h2.549c.525.214.789.671.789 1.372-.191 0-.389.198-.595.594l-1.371-.205h-1.372l.194 1.383v1.177c0 .785-.393 1.177-1.177 1.177-.525-.306-.788-1.81-.788-4.515zM479.697 27.542c0-.549 1.375-.876 4.126-.982.655.396 1.181.594 1.577.594l1.954-.206c.823 0 1.413.328 1.771.983v.194c-.525 1.577-.788 2.431-.788 2.56v.389l2.56 2.949v.788c0 .259-.134.389-.4.389h-.776l-2.561-2.354c0 1.44-.521 2.16-1.565 2.16l-.595-.79.194-1.371-1.76-1.577h-.206c-.655 1.707-1.177 2.561-1.565 2.561h-.389c-.19 0-.389-.198-.594-.595v-.389c0-.396.72-1.836 2.159-4.32-.259 0-1.177.065-2.754.194l-.389-.594v-.583zm4.72 1.966c0 .168.522.689 1.566 1.565l.982-2.16h-1.371c-.785.084-1.177.282-1.177.595zm1.177 8.046l.777-.583h4.331c1.44 0 2.16.655 2.16 1.966 0 2.75-.263 4.125-.789 4.125h-.594c-.183 0-.377-.197-.583-.594v-1.177l.194-2.354-.389-.194h-4.525c-.387-.139-.582-.534-.582-1.189zm6.674-9.623v-1.565c0-.198.263-.396.789-.595.594.252.922.515.982.789v2.159h3.531c.19 0 .389.198.595.595v.583c0 .19-.198.389-.595.594h-2.948c-.259.038-.389.168-.389.389v1.178c0 .548.064 1.269.194 2.159-.198.526-.393.789-.583.789h-.594c-.654-.001-.982-2.36-.982-7.075zM499.765 34.216v-.776c0-1.318.983-2.236 2.949-2.755h.399c1.867 0 2.979 1.178 3.337 3.531-.457 1.966-1.569 2.949-3.337 2.949h-.206c-2.094-.297-3.142-1.28-3.142-2.949zm1.772-.777v.971c.335.656.861.983 1.577.983.519 0 1.04-.393 1.565-1.178 0-.616-.393-1.203-1.177-1.76-1.31.291-1.965.618-1.965.984zm11.394-4.72h.194c.396.084.594.61.594 1.577v8.446c0 .784-.327 1.177-.982 1.177s-.983-1.245-.983-3.737v-5.886c-.001-1.051.392-1.577 1.177-1.577zM515.72 34.811c3.078-.13 5.367-.194 6.868-.194h3.932c.19 0 .389.194.595.583v.594c0 .389-.264.583-.789.583-1.006 0-4.477.069-10.411.206l-.595-.983.4-.789zm1.177-5.704c0-2.483.328-3.726.983-3.726h.389l.594.789v2.937c0 .138-.064.206-.194.206.13.229.194.487.194.777h5.691c.19 0 .389.198.595.594 0 .785-.393 1.178-1.178 1.178h-3.932l-1.177.194c-1.15 0-1.806-.85-1.966-2.549v-.4zm.789 12.572v-3.143c0-.183.194-.377.583-.583h.594c.389.13.583.522.583 1.178v1.966l.206 1.371h5.097c.709 0 1.17.263 1.383.788v.389c0 .13-.263.393-.788.789l-1.372-.194h-4.319c-1.153-.001-1.807-.854-1.967-2.561zM534.965 35.005c.563-2.75 1.482-4.126 2.755-4.126h.194c2.225.465 3.337 1.448 3.337 2.949v.388c-.366 2.226-1.479 3.338-3.337 3.338h-.789c-1.173 0-1.893-.85-2.16-2.549zm1.966-.389v.777c.046.267.179.399.4.399h.389c1.181-.175 1.771-.766 1.771-1.771-.428-.915-.953-1.372-1.577-1.372-.656.756-.983 1.412-.983 1.967zm6.092-.4v-.776c.038-.267.167-.4.389-.4h4.125v-3.143c0-.785.328-1.178.983-1.178.525.198.788.396.788.595 0 2.964.064 6.171.194 9.623-.167.655-.361.982-.583.982h-.788c-.396-.129-.595-.521-.595-1.177V34.81H544.2c-.678.001-1.071-.198-1.177-.594zM551.102 33.828c0-2.492.457-3.737 1.372-3.737H557c.525.274.788.602.788.982-.198.526-.396.789-.594.789h-4.126V35.6c.038.259.168.388.389.388h4.126c.19 0 .389.198.594.595v.583c0 .19-.198.389-.594.594-1.158 0-2.465.065-3.92.194-1.707-.001-2.561-1.376-2.561-4.126zm12.766-5.304h.983c0 .138.068.332.205.583.13 3.452.194 6.991.194 10.617 0 .19-.263.385-.788.583-.655-.213-.983-.605-.983-1.177-.129-4.739-.194-8.145-.194-10.218l.583-.388zM574.874 38.536h4.114c3.673 0 5.509.328 5.509.983v.399c0 .183-.198.377-.595.583-1.203 0-2.906-.064-5.108-.194-1.95.13-3.585.194-4.902.194-.526-.13-.789-.521-.789-1.177.175-.525.765-.788 1.771-.788zm-.207-9.028v-.789c.084-.396.61-.594 1.577-.594h3.338c1.836 0 2.754 1.245 2.754 3.737v3.337c0 .739-.327 1.2-.982 1.383-.526-.198-.789-.396-.789-.595v-2.948c0-.655-.064-1.638-.194-2.948l-1.177-.194c-.717 0-1.962.064-3.737.194-.526-.191-.79-.385-.79-.583zM589.445 33.039h7.063c.298 0 .561-.064.789-.194.655.168.982.366.982.595v.776c-.084.396-.605.595-1.565.595H591.8c-1.303 0-2.876.064-4.72.194-.595-.251-.922-.515-.983-.789v-.388c-.001-.526 1.115-.789 3.348-.789zm-.983-7.074c0-1.311 1.177-1.966 3.531-1.966h1.577c1.173 0 1.76.462 1.76 1.383-.479.389-.938.583-1.371.583h-3.737v.595c0 1.394.198 2.243.594 2.548l2.354-.194h2.16c.19 0 .389.198.595.595v.788c0 .26-.393.454-1.178.583v-.194l-.399.194h-3.338c-1.698 0-2.548-1.047-2.548-3.143v-1.772zm2.161 13.555h1.565c1.439 0 2.16-.194 2.16-.583v-.595h-4.515c-.525-.267-.788-.594-.788-.982.197-.519.396-.777.594-.777h4.914c.709 0 1.23.324 1.566.972v1.577c0 1.439-1.178 2.16-3.532 2.16h-1.771v1.177l.983.194h4.32c.259.046.388.179.388.399v.777c0 .19-.193.389-.582.595h-4.515c-1.707 0-2.56-.983-2.56-2.949.13-1.31.721-1.965 1.773-1.965zM599.878 39.325c0-.19.194-.385.583-.583.617 0 2.647.064 6.092.194.197 0 1.115-.064 2.754-.194.525.19.789.385.789.583v.788c-.084.389-.61.583-1.577.583h-6.286c-1.569 0-2.354-.259-2.354-.777v-.594zm1.566-8.252c.488-2.095 1.535-3.143 3.144-3.143 2.361.32 3.543 1.501 3.543 3.543 0 1.471-1.048 2.385-3.144 2.742h-.399c-2.096-.258-3.144-1.305-3.144-3.142zm1.771.195c.267.793.789 1.188 1.566 1.188.784 0 1.311-.396 1.577-1.188-.343-.838-.671-1.295-.983-1.371h-1.565c0 .129-.198.586-.595 1.371zm9.818 2.171v-3.737c.046-.259.179-.389.4-.389h.788c.389.13.583.521.583 1.177v5.11c0 3.009-.327 4.514-.982 4.514h-.389c-.328-.259-.526-.389-.595-.389.13-2.819.195-4.914.195-6.286zM622.656 34.216v-.776c0-1.318.983-2.236 2.949-2.755h.399c1.867 0 2.979 1.178 3.337 3.531-.457 1.966-1.569 2.949-3.337 2.949h-.206c-2.094-.297-3.142-1.28-3.142-2.949zm1.771-.777v.971c.335.656.861.983 1.577.983.519 0 1.04-.393 1.565-1.178 0-.616-.393-1.203-1.177-1.76-1.309.291-1.965.618-1.965.984zm11.395-4.72h.194c.396.084.594.61.594 1.577v8.446c0 .784-.327 1.177-.982 1.177s-.983-1.245-.983-3.737v-5.886c-.001-1.051.392-1.577 1.177-1.577zM638.999 28.125h5.108c1.173 0 1.76.525 1.76 1.577-.823 3.932-1.673 5.897-2.549 5.897-.525-.138-.788-.465-.788-.983l1.577-4.72h-5.303c-.396-.13-.595-.522-.595-1.178l.79-.593zm8.639 10.812c.747-1.44 1.401-2.16 1.966-2.16.525.13.788.457.788.982-.518 1.006-.846 1.593-.982 1.761 2.095 1.493 3.143 2.674 3.143 3.542-.129.252-.194.446-.194.583h-.982c-1.699-1.699-2.747-2.548-3.143-2.548v.194c-1.144 1.569-1.932 2.354-2.366 2.354-.519-.19-.777-.385-.777-.583v-.193c-.002-.413.848-1.723 2.547-3.932zm-.788-8.058c.197-.525.396-.788.594-.788h3.932c-.138-1.539-.206-2.651-.206-3.337.062-.267.389-.53.983-.789.655 0 .982.854.982 2.56 0 2.096-.064 4.454-.194 7.075l-.583.388h-.594c-.19 0-.389-.197-.595-.594v-3.531h-2.937c-.738-.001-1.199-.329-1.382-.984zM654.735 34.216v-.776c0-1.318.983-2.236 2.949-2.755h.399c1.867 0 2.979 1.178 3.337 3.531-.457 1.966-1.569 2.949-3.337 2.949h-.206c-2.094-.297-3.142-1.28-3.142-2.949zm1.771-.777v.971c.335.656.861.983 1.577.983.519 0 1.04-.393 1.565-1.178 0-.616-.393-1.203-1.177-1.76-1.309.291-1.965.618-1.965.984zm11.395-4.72h.194c.396.084.594.61.594 1.577v8.446c0 .784-.327 1.177-.982 1.177s-.983-1.245-.983-3.737v-5.886c-.001-1.051.392-1.577 1.177-1.577zM671.273 31.268h4.319c.19 0 .389.198.595.595v.594c-.13.389-.522.583-1.178.583h-2.948v2.754l.194.983h.983c.396 0 .594.064.594.194l.983-.194h.982c.784.076 1.177.271 1.177.583v.788c-.084.396-.609.595-1.577.595h-1.371c-2.491 0-3.737-.789-3.737-2.366v-4.125c.001-.177.329-.504.984-.984zm9.634 8.252V29.508c0-.19.194-.389.583-.595h.595c.388.13.582.522.582 1.178v3.543h1.577c.998 0 1.585.259 1.761.776v.595c-.13.396-.522.595-1.178.595-1.158-.138-1.878-.206-2.16-.206v4.72c0 .19-.194.385-.582.583-.786-.001-1.178-.393-1.178-1.177zM688.517 37.953h.983c.205 0 .465.263.777.789v1.371c-.336.655-.857.983-1.566.983-.784-.206-1.177-.663-1.177-1.372v-.788c.001-.175.328-.502.983-.983z"/></g></svg>