<svg xmlns="http://www.w3.org/2000/svg" width="733.549" height="41.839"><path d="M4.86 1.16c1.347 0 2.47.406 3.371 1.219.9.814 1.35 1.861 1.35 3.141s-.447 2.324-1.34 3.13c-.895.808-2.014 1.21-3.36 1.21s-2.47-.4-3.37-1.199C.611 7.86.161 6.821.161 5.54c0-1.279.45-2.33 1.35-3.149C2.41 1.57 3.526 1.16 4.86 1.16zm0 1.319c-.933 0-1.707.287-2.32.86s-.92 1.3-.92 2.18c0 .867.31 1.584.93 2.15.62.566 1.397.85 2.33.85.96 0 1.743-.279 2.351-.84.605-.561.91-1.273.91-2.141 0-.906-.305-1.643-.91-2.209-.608-.565-1.398-.85-2.371-.85zm9.64 14.42H2.66V11.5h1.52v4.14H14.5v1.259zm-.439-4.139H12.54V0h1.521v12.76zm3.62-11.221h7.96c-.094 2.308-.857 4.287-2.29 5.94-1.434 1.653-3.304 2.847-5.61 3.58l-.78-1.28c1.88-.479 3.467-1.356 4.761-2.63 1.293-1.272 2.046-2.716 2.26-4.329h-6.3V1.539zm13.38 15.5h-11.54V11.64h1.52v4.14h10.021v1.259zm2.12-10.279h-2.66v6.32H29V0h1.521v5.479h2.66V6.76zm5.318-5.24c1.173 0 2.09.49 2.75 1.471.66.979 1.023 2.289 1.09 3.93h1.88V.34h1.48v16.3h-1.48V8.18h-1.88c-.08 1.627-.446 2.917-1.1 3.87s-1.567 1.43-2.74 1.43c-1.24 0-2.189-.543-2.85-1.63-.66-1.086-.99-2.537-.99-4.35 0-1.813.33-3.264.99-4.351s1.61-1.629 2.85-1.629zm1.7 9.359c.427-.84.64-1.966.64-3.379 0-1.414-.213-2.541-.64-3.381s-.993-1.26-1.7-1.26c-.693 0-1.25.42-1.67 1.26s-.63 1.967-.63 3.381c0 1.413.206 2.539.62 3.379.413.841.973 1.261 1.68 1.261s1.273-.42 1.7-1.261zm8.92 6.6h-1.5V0h1.5v17.479zm22.199-.239h-12.34v-3.92h10.16v-1.361h-10.22V10.72h5.12V9.119h-7.101v-1.24h15.78v1.24h-7.16v1.601h5.101v3.739h-10.16v1.5h10.819v1.281zm-.239-15.341h-12.6V.64H71.08v1.259zm0 4.601h-12.58V5.26h2.68l-.42-2.5 1.58-.2.3 2.7h4.28l.359-2.74 1.58.221-.479 2.52h2.7V6.5zm3.739.979c0-1.866.396-3.36 1.19-4.479.793-1.121 1.896-1.68 3.31-1.68 1.427 0 2.537.559 3.33 1.68.793 1.119 1.19 2.619 1.19 4.5 0 1.879-.397 3.379-1.19 4.5-.793 1.119-1.903 1.68-3.33 1.68-1.413 0-2.517-.561-3.31-1.68-.793-1.121-1.19-2.627-1.19-4.521zm6.731 3.531c.566-.9.85-2.07.85-3.51s-.283-2.61-.85-3.51c-.567-.9-1.311-1.351-2.23-1.351s-1.66.45-2.22 1.351c-.561.899-.84 2.069-.84 3.51 0 1.439.279 2.609.84 3.51.56.9 1.3 1.35 2.22 1.35s1.662-.45 2.23-1.35zm7.069 6.469h-1.52V0h1.52v17.479zm16.8.021h-1.52v-6.34h-7.101V9.879h15.78v1.281h-7.16v6.34zm6.52-10.78l-.721 1.3c-1.373-.279-2.68-.807-3.92-1.58s-2.113-1.652-2.62-2.64c-.267.653-.75 1.28-1.449 1.88-.7.6-1.487 1.104-2.36 1.51-.873.407-1.764.697-2.67.87l-.74-1.3c1.72-.227 3.224-.83 4.51-1.811 1.287-.979 1.931-2.057 1.931-3.229V.6h1.6v1.12c0 1.147.673 2.217 2.021 3.21 1.344.993 2.818 1.59 4.418 1.79zm17.86.679l-.86 1.181c-.906-.36-1.753-.891-2.54-1.59-.787-.701-1.38-1.49-1.78-2.371-.267.881-.807 1.721-1.619 2.521-.813.8-1.761 1.46-2.841 1.979l-.84-1.16c1.24-.492 2.297-1.252 3.17-2.279s1.311-2.2 1.311-3.52V.6h1.54v1.5c0 1.293.43 2.387 1.29 3.279.858.894 1.915 1.567 3.169 2.02zm4.5 9.88h-12.021v-4.34h9.84v-1.8h-9.88v-1.24h11.4v4.181h-9.84v1.959h10.5v1.24zm-.66-8.34h-1.521V0h1.521v8.939zm13.04-4.379h-9.96V3.32h9.96v1.24zm-.74 3.879c0 .907-.394 1.641-1.18 2.2-.787.56-1.78.84-2.98.84-1.187 0-2.177-.283-2.97-.851-.794-.566-1.19-1.296-1.19-2.189 0-.906.394-1.637 1.181-2.189.786-.554 1.779-.83 2.979-.83 1.213 0 2.21.273 2.99.82s1.17 1.28 1.17 2.199zm-2.25 1.301c.513-.334.77-.768.77-1.301s-.257-.967-.77-1.3c-.514-.333-1.15-.5-1.91-.5s-1.394.167-1.899.5c-.508.333-.761.767-.761 1.3s.253.967.761 1.301c.506.333 1.14.5 1.899.5s1.396-.167 1.91-.5zm.549-7.781h-5.04V.6h5.04v1.359zm7.08 14.94h-11.74v-4.6h1.521v3.34h10.22v1.26zm-4.82-10.54v-1.24h2.92V0h1.521v13.119h-1.521V9.84h-2.92V8.6h2.92V6.36h-2.92zm11.58-4.839c1.173 0 2.09.49 2.75 1.471.66.979 1.023 2.289 1.09 3.93h1.88V.34h1.48v16.3h-1.48V8.18h-1.88c-.08 1.627-.446 2.917-1.1 3.87s-1.567 1.43-2.74 1.43c-1.24 0-2.189-.543-2.85-1.63-.66-1.086-.99-2.537-.99-4.35 0-1.813.33-3.264.99-4.351s1.61-1.629 2.85-1.629zm1.7 9.359c.427-.84.64-1.966.64-3.379 0-1.414-.213-2.541-.64-3.381s-.993-1.26-1.7-1.26c-.693 0-1.25.42-1.67 1.26s-.63 1.967-.63 3.381c0 1.413.206 2.539.62 3.379.413.841.973 1.261 1.68 1.261s1.274-.42 1.7-1.261zm8.92 6.6h-1.5V0h1.5v17.479zm16.46-8.739h-7.96V.8h1.54v2.659h4.899V.8h1.521v7.94zm-1.52-1.261V4.72h-4.899v2.76h4.899zm7.8 9.88h-12v-4.34h9.84v-1.68h-9.859V10.1h11.38v4.1h-9.84v1.92h10.479v1.239zM190.797 0v9.199h-1.521V7h-3.239V5.74h3.239V3.68h-3.239V2.42h3.239V0h1.521zm14.04 13.06c-1.387.187-3.374.354-5.96.5-2.054.093-3.773.14-5.16.14l-.22-1.34c2.106 0 3.38-.006 3.819-.02V6.82h1.54v5.48c2.521-.12 4.474-.286 5.86-.5l.121 1.26zm-1.32-11.22c.026 1.347-.023 2.807-.15 4.38-.126 1.573-.283 2.786-.47 3.64l-1.46-.199c.187-.854.333-1.914.44-3.181.106-1.267.14-2.386.1-3.36h-7.6V1.84h9.14zm6.679 6.76h-2.84v8.88h-1.52V0h1.52v7.3h2.84v1.3zm11.821-2.1l-.82 1.08c-.32-.201-.644-.497-.97-.891-.327-.393-.558-.764-.69-1.109-.134.572-.474 1.22-1.02 1.939-.547.721-1.12 1.293-1.721 1.721l-.96-1.021c.88-.533 1.594-1.28 2.141-2.24.546-.96.819-1.966.819-3.021v-2.1h1.44v2.1c0 .908.166 1.658.5 2.25.333.595.76 1.024 1.281 1.292zm8.059 10.979h-1.52V12.58h-10.021v-1.26h11.54v6.159zm-2.04-9.44l-.8 1.121c-.521-.281-1.05-.734-1.59-1.36-.54-.627-.91-1.261-1.11-1.9-.187.707-.554 1.434-1.1 2.181-.547.746-1.167 1.354-1.86 1.819l-.96-1.021c.96-.626 1.723-1.453 2.29-2.479.566-1.026.85-2.173.85-3.44V.78h1.46v2.1c0 1.24.273 2.317.82 3.23.547.913 1.213 1.556 2 1.929zm4.481-2.08h-2.46v4.42h-1.5V0h1.5v4.68h2.46v1.279zm1.739 1.52c0-1.866.396-3.36 1.19-4.479.793-1.121 1.896-1.68 3.31-1.68 1.427 0 2.537.559 3.33 1.68.793 1.119 1.19 2.619 1.19 4.5 0 1.879-.397 3.379-1.19 4.5-.793 1.119-1.903 1.68-3.33 1.68-1.413 0-2.517-.561-3.31-1.68-.794-1.121-1.19-2.627-1.19-4.521zm6.73 3.531c.566-.9.85-2.07.85-3.51s-.283-2.61-.85-3.51c-.567-.9-1.311-1.351-2.23-1.351s-1.66.45-2.22 1.351c-.561.899-.84 2.069-.84 3.51 0 1.439.279 2.609.84 3.51.56.9 1.3 1.35 2.22 1.35s1.663-.45 2.23-1.35zm7.07 6.469h-1.52V0h1.52v17.479zM266.615 6.58l.181 1.26c-2.228.48-5.034.746-8.42.8h-1.54V.98h1.52v6.36c3.493-.053 6.247-.307 8.259-.76zm-8.34 4.5h11.38v6.399h-1.52v-5.14h-9.86V11.08zm14.04-5.26h-2.66v4.159h-1.52V0h1.52v4.539h2.66V5.82zm7.64 6.92h-1.52V9.56c-2.214.08-3.834.12-4.86.12l-.24-1.301c1.947.027 3.894.008 5.841-.059 1.506-.067 3.353-.214 5.54-.441l.119 1.181c-.68.093-2.307.228-4.88.399v3.281zm3.761-8.68c0 .987-.431 1.767-1.29 2.34-.86.573-1.978.86-3.351.86-1.387 0-2.514-.287-3.38-.86-.867-.573-1.3-1.36-1.3-2.36 0-.973.437-1.752 1.31-2.34.873-.586 1.997-.879 3.37-.879 1.36 0 2.474.297 3.34.889.867.593 1.301 1.376 1.301 2.35zm4.54 13h-12.5V12h1.52v3.779h10.98v1.281zm-6.901-11.581c.573-.36.86-.833.86-1.42s-.29-1.063-.87-1.431c-.58-.365-1.337-.549-2.271-.549-.946 0-1.71.18-2.29.539-.58.36-.87.84-.87 1.44 0 .587.29 1.06.87 1.42s1.344.54 2.29.54 1.708-.178 2.281-.539zm6.541 7.96h-1.521v-1.9h-3.68V10.34h3.68V0h1.521v13.439zm18.719-4.599h-15.78V7.56h15.78v1.28zm-1.4 8.48h-12.54v-4.16h10.44v-1.541h-10.48v-1.22h12v3.921h-10.439v1.76h11.02v1.24zm-1.989-16.281c1.086.534 1.63 1.281 1.63 2.24 0 .961-.544 1.703-1.63 2.23-1.087.527-2.584.79-4.49.79-1.894 0-3.38-.263-4.46-.79s-1.62-1.27-1.62-2.23c0-.959.54-1.706 1.62-2.24 1.08-.533 2.566-.799 4.46-.799 1.906 0 3.403.266 4.49.799zm-4.491.44c-1.374 0-2.47.163-3.29.49s-1.23.763-1.23 1.31c0 .533.41.961 1.23 1.28s1.916.479 3.29.479c1.399 0 2.513-.16 3.34-.479.826-.319 1.24-.747 1.24-1.28 0-.547-.417-.982-1.25-1.31-.834-.326-1.943-.49-3.33-.49zm23.44 6.96h-8.16V.68h1.521v2.56h5.1V.68h1.54v7.759zm-1.54-1.259V4.5h-5.1v2.68h5.1zm6.84 10.179h-11.8V13h9.64v-1.721h-9.66v-1.24h11.181v4.141h-9.641v1.92h10.28v1.259zm2.02-12.16h-2.66v3.84h-1.521V0h1.521v3.92h2.66v1.279zm7.68 11.941h-1.521v-4.72c-1.507.053-3.127.08-4.859.08l-.221-1.301c2.667 0 4.641-.026 5.92-.08 2.641-.119 4.587-.26 5.841-.42l.14 1.18c-1.134.16-2.9.314-5.3.461v4.8zm4.639-12.941h-10.58V2.92h10.58v1.279zm-1.099 3.24c0 .867-.394 1.523-1.181 1.971-.786.446-1.807.67-3.06.67-1.214 0-2.214-.217-3-.65-.787-.434-1.18-1.097-1.18-1.99s.39-1.557 1.17-1.99c.779-.433 1.783-.649 3.01-.649 1.24 0 2.257.217 3.05.649.793.433 1.191 1.097 1.191 1.989zm-2.37 1.061c.513-.268.77-.621.77-1.061s-.257-.797-.77-1.07c-.514-.272-1.137-.41-1.87-.41-.72 0-1.333.138-1.84.41-.507.273-.76.631-.76 1.07 0 .974.866 1.46 2.6 1.46.733 0 1.356-.132 1.87-.399zm.57-6.78h-4.82V.44h4.82v1.28zm6.079 15.759h-1.52V0h1.52v17.479zm13.24-12.02h-10.32v-1.26h10.32v1.26zm-1.04 4.74c0 1.027-.38 1.884-1.14 2.57-.761.688-1.74 1.03-2.94 1.03s-2.18-.341-2.939-1.021c-.761-.68-1.141-1.539-1.141-2.58 0-1.039.38-1.902 1.141-2.59.76-.687 1.739-1.029 2.939-1.029s2.18.343 2.94 1.029c.76.689 1.14 1.552 1.14 2.591zm-1.54-7.699h-5.14V1.199h5.14V2.5zm.021 7.699c0-.693-.24-1.256-.721-1.689-.479-.434-1.093-.65-1.84-.65-.733 0-1.344.221-1.83.66s-.729 1-.729 1.68.243 1.24.729 1.68c.486.441 1.097.66 1.83.66.747 0 1.36-.219 1.84-.66.481-.441.721-1.001.721-1.681zm8.599-1.539h-2.84v8.819h-1.521V0h1.521v7.379h2.84V8.66zm10.161-6.801c-.04 2.734-.804 5.164-2.29 7.29-1.487 2.127-3.417 3.75-5.79 4.87l-.88-1.199c2.159-.947 3.883-2.291 5.17-4.031 1.286-1.739 2.01-3.623 2.17-5.649h-6.7V1.86h8.32zm5.139 15.62h-1.521V0h1.521v17.479zm17.119-9.139l-.819 1.16c-.773-.36-1.5-.883-2.181-1.57-.68-.687-1.173-1.377-1.479-2.07-.227.721-.68 1.49-1.36 2.311-.68.82-1.42 1.463-2.22 1.93l-.94-1.16c1.027-.547 1.907-1.333 2.641-2.359.732-1.027 1.1-2.154 1.1-3.381V1.02h1.48v2.14c0 1.213.383 2.273 1.149 3.18s1.643 1.573 2.629 2zm4.481 3.519c1.053.574 1.58 1.36 1.58 2.36s-.527 1.786-1.58 2.36c-1.054.572-2.514.859-4.38.859-1.854 0-3.307-.287-4.36-.859-1.054-.574-1.58-1.36-1.58-2.36s.526-1.786 1.58-2.36c1.054-.572 2.507-.859 4.36-.859 1.866 0 3.326.287 4.38.859zm-1.21.951c-.78-.353-1.837-.53-3.17-.53-1.334 0-2.391.178-3.17.53-.78.354-1.17.823-1.17 1.41 0 .601.39 1.077 1.17 1.43.779.354 1.836.53 3.17.53 1.333 0 2.39-.177 3.17-.53.78-.353 1.17-.829 1.17-1.43 0-.587-.39-1.057-1.17-1.41zm2.63-1.771h-1.52v-5.14h-2.181v4.28h-1.479V.32h1.479v4.299h2.181V0h1.52v11.039zm11.34-1.699h-8v-8h8v8zm-1.54-1.24V2.6h-4.94v5.5h4.94zm7.179 6.06c0 1.026-.52 1.836-1.56 2.43-1.04.593-2.5.89-4.38.89-1.894 0-3.36-.297-4.4-.89-1.04-.594-1.56-1.403-1.56-2.43 0-1.041.52-1.86 1.56-2.461 1.04-.6 2.507-.899 4.4-.899 1.88 0 3.34.3 4.38.899 1.041.601 1.56 1.42 1.56 2.461zm-2.71-1.52c-.767-.36-1.843-.54-3.229-.54s-2.464.18-3.23.54-1.149.866-1.149 1.521c0 .652.383 1.156 1.149 1.51s1.844.529 3.23.529 2.463-.176 3.229-.529 1.15-.857 1.15-1.51c.001-.655-.383-1.161-1.15-1.521zm-2.09-8.56V2.82h3.14V0h1.521v10.879h-1.521V7.68h-3.159V6.42h3.159V4.08h-3.14zm23.46 4.76h-15.78V7.56h15.78v1.28zm-1.4 8.48h-12.54v-4.16h10.44v-1.541h-10.48v-1.22h12v3.921h-10.439v1.76h11.02v1.24zm-1.989-16.281c1.086.534 1.63 1.281 1.63 2.24 0 .961-.544 1.703-1.63 2.23-1.087.527-2.584.79-4.49.79-1.894 0-3.38-.263-4.46-.79s-1.62-1.27-1.62-2.23c0-.959.54-1.706 1.62-2.24 1.08-.533 2.566-.799 4.46-.799 1.906 0 3.403.266 4.49.799zm-4.49.44c-1.374 0-2.47.163-3.29.49s-1.23.763-1.23 1.31c0 .533.41.961 1.23 1.28s1.916.479 3.29.479c1.399 0 2.513-.16 3.34-.479.826-.319 1.24-.747 1.24-1.28 0-.547-.417-.982-1.25-1.31-.834-.326-1.944-.49-3.33-.49zm14.899 6c0-1.866.396-3.36 1.19-4.479.793-1.121 1.89-1.68 3.29-1.68 1.399 0 2.492.559 3.279 1.68.787 1.119 1.181 2.619 1.181 4.5 0 1.879-.394 3.379-1.181 4.5-.787 1.119-1.88 1.68-3.279 1.68-1.4 0-2.497-.563-3.29-1.689-.794-1.128-1.19-2.632-1.19-4.512zm7.46.021c0-1.453-.27-2.627-.81-3.521s-1.264-1.34-2.17-1.34c-.907 0-1.634.446-2.181 1.34s-.819 2.067-.819 3.521c0 1.439.272 2.609.819 3.51s1.273 1.35 2.181 1.35c.906 0 1.63-.449 2.17-1.35s.81-2.071.81-3.51zm8.6.82h-2.859v9.159h-1.521V0h1.521v7.039h2.859V8.32zm16.78 2.119h-15.78v-1.24h15.78v1.24zm-1.78-2.779h-11.899V3.52h10.04v-1.7h-10.12V.619h11.64V4.66h-10.04v1.799h10.38V7.66zm-.241 9.58h-11.739v-5.22h11.739v5.22zm-1.519-1.201V13.22h-8.7v2.819h8.7zm7.28-4.14h1c3.187 0 5.652-.187 7.399-.56l.16 1.26c-2.094.4-4.887.6-8.38.6h-1.72V1.82h8.3V3.1h-6.76v8.799zM493.093 0v6.939h2.84v1.28h-2.84v9.26h-1.521V0h1.521zm12.46 17.5h-1.521v-6.08h-7.06v-1.28h15.8v1.28h-7.22v6.08zm3.819-15.69c1.12.714 1.681 1.657 1.681 2.83s-.561 2.12-1.681 2.84-2.646 1.08-4.58 1.08c-1.933 0-3.46-.356-4.58-1.069-1.119-.714-1.68-1.664-1.68-2.851 0-1.173.561-2.116 1.68-2.83 1.12-.713 2.647-1.069 4.58-1.069 1.934-.001 3.46.356 4.58 1.069zm-4.58.25c-1.467 0-2.623.229-3.47.69-.847.459-1.27 1.09-1.27 1.89 0 .813.423 1.45 1.27 1.91s2.003.69 3.47.69c1.493 0 2.663-.23 3.511-.69.846-.46 1.27-1.097 1.27-1.91 0-.8-.424-1.431-1.27-1.89-.848-.461-2.018-.69-3.511-.69zm19.7 8.839l.14 1.28c-1.013.254-2.354.457-4.02.609-1.667.154-3.193.23-4.58.23h-1.08V1.859h1.52v9.82c3.294-.027 5.966-.286 8.02-.78zm5.901-6.52V5.66h-2.78v3.879h2.78v1.301h-2.78v6.64h-1.521V0h1.521v4.379h2.78zm3.399 8.06V10.5c0-.44.097-.844.29-1.211.193-.366.387-.64.58-.819.193-.181.576-.511 1.149-.99.867-.706 1.301-1.58 1.301-2.62 0-.732-.221-1.289-.66-1.67-.44-.38-1.054-.57-1.84-.57-.854 0-1.813.193-2.88.58l-.16-1.24c.986-.439 2.12-.659 3.399-.659 1.106 0 2.014.307 2.721.92.706.613 1.06 1.474 1.06 2.58 0 .773-.146 1.409-.44 1.909-.293.5-.813 1.064-1.56 1.69-.68.56-1.094.954-1.24 1.181-.187.307-.279.64-.279 1v1.859h-1.441zm-.12 3.221v-1.801h1.72v1.801h-1.72zm27.899-6.201h-15.78v-1.26h6.62V4.84h1.54v3.359h7.62v1.26zm-1.34 6.74c-.107.2-.354.621-.74 1.26-1.253-.199-2.47-.676-3.65-1.43-1.18-.753-1.989-1.557-2.43-2.41-.373.854-1.149 1.647-2.33 2.381-1.18.732-2.396 1.206-3.649 1.42-.44-.721-.693-1.134-.761-1.24 1.573-.133 2.967-.677 4.181-1.63 1.213-.953 1.819-1.943 1.819-2.97v-.74h1.561v.74c0 1 .63 1.986 1.89 2.959 1.259.975 2.629 1.527 4.109 1.66zm-.74-15.34v1.7c-.026 1.787-.2 3.273-.52 4.46l-1.48-.22c.253-.907.394-1.974.42-3.2l.021-1.5h-10.24V.859h11.799zm19.38 14.221h-15.78V13.8h15.78v1.28zm-3.28-12.351c1.16.808 1.74 1.877 1.74 3.21 0 1.334-.583 2.404-1.75 3.21-1.167.808-2.71 1.21-4.63 1.21-1.907 0-3.44-.402-4.601-1.21-1.159-.806-1.739-1.876-1.739-3.21 0-1.333.58-2.402 1.739-3.21 1.16-.807 2.693-1.21 4.601-1.21 1.933.001 3.48.404 4.64 1.21zm.221 3.23c0-.945-.444-1.709-1.33-2.289-.888-.58-2.063-.87-3.53-.87-1.453 0-2.62.29-3.5.87s-1.32 1.344-1.32 2.289c0 .934.44 1.684 1.32 2.25.88.567 2.047.851 3.5.851s2.626-.283 3.52-.851c.892-.566 1.34-1.316 1.34-2.25zm20.359 9.301h-15.78v-1.28h7.101V11h-5.16V5.539h10.359V2.74h-10.38V1.459h11.9V6.8h-10.36v2.92h10.86V11h-5.7v2.979h7.16v1.281zm7.359-7.781c0-1.866.396-3.36 1.19-4.479.793-1.121 1.896-1.68 3.31-1.68 1.427 0 2.537.559 3.33 1.68.793 1.119 1.19 2.619 1.19 4.5 0 1.879-.397 3.379-1.19 4.5-.793 1.119-1.903 1.68-3.33 1.68-1.413 0-2.517-.561-3.31-1.68-.793-1.121-1.19-2.627-1.19-4.521zm6.731 3.531c.566-.9.85-2.07.85-3.51s-.283-2.61-.85-3.51c-.567-.9-1.311-1.351-2.23-1.351s-1.66.45-2.22 1.351c-.561.899-.84 2.069-.84 3.51 0 1.439.279 2.609.84 3.51.56.9 1.3 1.35 2.22 1.35s1.662-.45 2.23-1.35zm7.069 6.469h-1.52V0h1.52v17.479zm12.8-9.419l-.899 1.22c-.894-.439-1.717-1.02-2.471-1.74-.753-.719-1.297-1.5-1.63-2.34-.267.907-.797 1.773-1.59 2.601s-1.717 1.513-2.77 2.06l-.84-1.18c1.306-.613 2.362-1.46 3.17-2.54.807-1.08 1.21-2.286 1.21-3.62V.84h1.54v1.619c0 1.294.437 2.457 1.31 3.49s1.863 1.738 2.97 2.111zm2.24 3.6c1.04.6 1.561 1.42 1.561 2.459 0 1.041-.521 1.857-1.561 2.451-1.04.592-2.479.889-4.32.889-1.826 0-3.257-.297-4.29-.889-1.033-.594-1.55-1.41-1.55-2.451 0-1.039.517-1.859 1.55-2.459 1.033-.601 2.464-.9 4.29-.9 1.841 0 3.28.3 4.32.9zm-4.32.36c-1.333 0-2.38.184-3.14.551-.76.366-1.14.883-1.14 1.549 0 .668.38 1.181 1.14 1.541.76.359 1.807.539 3.14.539 1.347 0 2.403-.18 3.171-.539.766-.36 1.149-.873 1.149-1.541 0-.666-.384-1.183-1.149-1.549-.768-.368-1.825-.551-3.171-.551zm8.301-6h-2.66v4.76h-1.521V0h1.521v4.74h2.66v1.28zm13.019 7.019c-1.427.174-3.5.32-6.22.44-1.987.094-3.754.153-5.301.181l-.279-1.34c1.732.026 3.626-.021 5.68-.141 2.653-.094 4.646-.221 5.98-.38l.14 1.24zm-1.74-7.519c0 1.213-.434 2.193-1.3 2.939-.867.748-1.947 1.121-3.24 1.121s-2.377-.387-3.25-1.16-1.31-1.74-1.31-2.9c0-1.213.437-2.21 1.31-2.99.873-.779 1.957-1.17 3.25-1.17 1.32 0 2.407.381 3.26 1.141.853.759 1.28 1.766 1.28 3.019zm-1.48 0c0-.867-.294-1.561-.88-2.08-.587-.52-1.313-.779-2.181-.779-.854 0-1.58.273-2.18.819-.601.547-.9 1.228-.9 2.04 0 .801.297 1.463.891 1.99.593.527 1.323.79 2.189.79.854 0 1.577-.263 2.17-.79.595-.528.891-1.19.891-1.99zM650.39 0h1.521v17.479h-1.521V0zm10.16 4.879V3.64h9.42v1.239h-3.88v.32c0 1.041.427 1.994 1.279 2.86.854.866 1.827 1.434 2.921 1.7l-.78 1.18c-.787-.24-1.587-.689-2.4-1.35s-1.42-1.377-1.819-2.15c-.28.801-.834 1.577-1.66 2.33-.827.754-1.733 1.304-2.721 1.65l-.819-1.16c1.2-.36 2.236-1.02 3.109-1.98.873-.959 1.311-1.973 1.311-3.039v-.361h-3.961zm2.28-2.799V.76h4.96v1.32h-4.96zm11.94 14.819h-11.62v-5.22h1.521v3.96h10.1v1.26zM674.39 0v12.76h-1.521V7.28h-3.239V6.02h3.239V0h1.521zm13.259 5.459h-10.32v-1.26h10.32v1.26zm-1.04 4.74c0 1.027-.38 1.884-1.14 2.57-.761.688-1.74 1.03-2.94 1.03s-2.18-.341-2.939-1.021c-.761-.68-1.141-1.539-1.141-2.58 0-1.039.38-1.902 1.141-2.59.76-.687 1.739-1.029 2.939-1.029s2.18.343 2.94 1.029c.76.689 1.14 1.552 1.14 2.591zm-1.54-7.699h-5.14V1.199h5.14V2.5zm.021 7.699c0-.693-.24-1.256-.721-1.689-.479-.434-1.093-.65-1.84-.65-.733 0-1.344.221-1.83.66s-.729 1-.729 1.68.243 1.24.729 1.68c.486.441 1.097.66 1.83.66.747 0 1.36-.219 1.84-.66.481-.441.721-1.001.721-1.681zm8.599-1.539h-2.84v8.819h-1.521V0h1.521v7.379h2.84V8.66zm16.8.66h-15.78V8.14h15.78v1.18zm-1.32 7.84h-12.64v-3.881h10.58V11.82h-10.561v-1.121h12.08v3.66h-10.58v1.6h11.12v1.201zm-.3-10.4h-12.16V3.14h10.3V1.78H696.69V.58h11.84v3.66h-10.3v1.379h10.64V6.76zm18.64-1.301h-10.32v-1.26h10.32v1.26zm-1.04 4.74c0 1.027-.38 1.884-1.14 2.57-.761.688-1.74 1.03-2.94 1.03s-2.18-.341-2.939-1.021c-.761-.68-1.141-1.539-1.141-2.58 0-1.039.38-1.902 1.141-2.59.76-.687 1.739-1.029 2.939-1.029s2.18.343 2.94 1.029c.76.689 1.14 1.552 1.14 2.591zm-1.54-7.699h-5.14V1.199h5.14V2.5zm.02 7.699c0-.693-.24-1.256-.721-1.689-.479-.434-1.093-.65-1.84-.65-.733 0-1.344.221-1.83.66s-.729 1-.729 1.68.243 1.24.729 1.68c.486.441 1.097.66 1.83.66.747 0 1.36-.219 1.84-.66.481-.441.721-1.001.721-1.681zm8.6-1.539h-2.84v8.819h-1.521V0h1.521v7.379h2.84V8.66zM1.28 26.139c.854-.772 1.894-1.16 3.12-1.16 1.227 0 2.266.384 3.12 1.15s1.281 1.75 1.281 2.95c0 1.214-.424 2.193-1.271 2.94-.846.746-1.889 1.119-3.129 1.119s-2.283-.369-3.13-1.109S0 30.313 0 29.099c0-1.2.427-2.187 1.28-2.96zm6.021 14.02c-.467-.253-.908-.59-1.32-1.01-.414-.42-.714-.856-.9-1.311-.213.653-.657 1.347-1.33 2.08s-1.383 1.28-2.13 1.641c-.107-.12-.26-.301-.46-.54-.2-.24-.354-.421-.46-.54.96-.427 1.79-1.087 2.49-1.98.7-.893 1.05-1.84 1.05-2.84v-.94h1.52v.82c0 .867.246 1.606.74 2.22.492.613 1.107 1.061 1.84 1.34l-1.04 1.06zM4.4 26.299c-.84 0-1.53.261-2.07.78s-.81 1.187-.81 2c0 .827.27 1.5.81 2.02.54.521 1.23.78 2.07.78.853 0 1.547-.257 2.081-.77.533-.514.799-1.184.799-2.011 0-.84-.264-1.516-.789-2.029-.528-.513-1.224-.77-2.091-.77zM14.721 41.52c-.613-.308-1.248-.794-1.9-1.46-.654-.667-1.088-1.301-1.301-1.9-.227.653-.66 1.33-1.299 2.03-.641.699-1.307 1.223-2 1.569l-.961-1.04c.986-.479 1.816-1.163 2.49-2.05s1.01-1.836 1.01-2.85v-1.101h1.5v1.021c0 1.026.348 1.983 1.041 2.87.691.887 1.486 1.496 2.379 1.83-.107.146-.27.34-.49.58-.219.239-.369.406-.449.5h-.02zm-.66-7.441H12.54v-2.36H9.36v-1.3h3.18v-2.82H9.36V26.32h3.18V24h1.521v10.079zm18.799 5H17.08v-1.28h15.78v1.28zm-3.28-12.35c1.16.807 1.74 1.877 1.74 3.21s-.583 2.403-1.75 3.21-2.71 1.21-4.63 1.21c-1.907 0-3.44-.403-4.601-1.21-1.159-.807-1.739-1.877-1.739-3.21s.58-2.403 1.739-3.21c1.16-.807 2.693-1.21 4.601-1.21 1.933.001 3.48.404 4.64 1.21zm.221 3.23c0-.946-.444-1.71-1.33-2.29-.888-.58-2.063-.87-3.53-.87-1.453 0-2.62.29-3.5.87s-1.32 1.344-1.32 2.29c0 .934.44 1.684 1.32 2.25.88.567 2.047.851 3.5.851s2.626-.283 3.52-.851c.893-.566 1.34-1.316 1.34-2.25zm13.138 7.101h-7.92V25.759h7.92V37.06zm-1.52-1.261V27.02h-4.88v8.779h4.88zm2.5-6.46v-1.26h3.32v-4.08h1.52v17.48h-1.52v-7.24h-3.32v-1.26h3.32v-3.641h-3.32zm7.381 12.5l.74-3.899h1.82l-1.48 3.899H51.3zm23.999-.6h-11.94v-5.5h5.2v-1.98h-7.101v-1.26h15.78v1.26h-7.16v1.98h5.22v5.5zm.301-15.16H62.999v-1.26H75.6v1.26zm-.121 4.9h-12.36v-1.261h2.66l-.46-2.8 1.58-.18.319 2.979h4.16l.4-3 1.58.16-.521 2.84h2.641v1.262zm-1.68 9v-2.98H64.9v2.98h8.899zm9.08-14.459c1.173 0 2.09.489 2.75 1.47.66.979 1.023 2.29 1.09 3.93h1.88v-6.58h1.48v16.3h-1.48v-8.46h-1.88c-.08 1.627-.446 2.917-1.1 3.87-.653.954-1.567 1.431-2.74 1.431-1.24 0-2.189-.544-2.85-1.631-.66-1.086-.99-2.536-.99-4.35s.33-3.263.99-4.35 1.61-1.63 2.85-1.63zm1.7 9.359c.427-.84.64-1.967.64-3.38s-.213-2.54-.64-3.38-.993-1.26-1.7-1.26c-.693 0-1.25.42-1.67 1.26s-.63 1.967-.63 3.38.206 2.54.62 3.38c.413.84.973 1.26 1.68 1.26s1.273-.42 1.7-1.26zm8.92 6.6h-1.5v-17.48h1.5v17.48zm16.5-4.08h-1.521v-3.34h-7.16v-1.261h15.78v1.261h-7.1v3.34zm5.46 3.7h-12.12V35.94h1.52v3.899h10.601v1.26zm-.061-10.3h-12v-6.06h1.521v4.82h10.479v1.24zm7.34-5.279c1.173 0 2.09.489 2.75 1.47.66.979 1.023 2.29 1.09 3.93h1.88v-6.58h1.48v16.3h-1.48v-8.46h-1.88c-.08 1.627-.446 2.917-1.1 3.87-.653.954-1.567 1.431-2.74 1.431-1.24 0-2.189-.544-2.85-1.631-.66-1.086-.99-2.536-.99-4.35s.33-3.263.99-4.35 1.61-1.63 2.85-1.63zm1.7 9.359c.427-.84.64-1.967.64-3.38s-.213-2.54-.64-3.38-.993-1.26-1.7-1.26c-.693 0-1.25.42-1.67 1.26s-.63 1.967-.63 3.38.206 2.54.62 3.38c.413.84.973 1.26 1.68 1.26s1.274-.42 1.7-1.26zm8.92 6.6h-1.5v-17.48h1.5v17.48zm9.32-15.76c.854-.746 1.9-1.119 3.141-1.119 1.239 0 2.283.369 3.13 1.109s1.27 1.697 1.27 2.87c0 1.16-.423 2.1-1.27 2.82-.847.72-1.891 1.08-3.13 1.08-1.24 0-2.287-.36-3.141-1.08-.854-.721-1.279-1.66-1.279-2.82s.425-2.113 1.279-2.86zm3.14.22c-.827 0-1.523.243-2.091.729-.566.487-.85 1.117-.85 1.891s.28 1.396.84 1.869c.561.474 1.26.71 2.101.71.866 0 1.566-.232 2.1-.699s.8-1.087.8-1.86c0-.786-.267-1.423-.8-1.91-.533-.486-1.233-.73-2.1-.73zm10.3 15.42h-11.88v-4.44h9.699v-1.76h-9.72v-1.26h11.24v4.18h-9.7v2.02h10.36v1.26zm-2.18-12.24h-2.979v-1.28h2.979v-3.84h1.521v8.94h-1.521v-3.82zm13.26 7.96h-8.181v-11.28h8.181v11.28zm-1.52-1.26v-8.76h-5.14v8.76h5.14zm9.099-3.5h-2.859v9.16h-1.521v-17.48h1.521v7.04h2.859v1.28zm11.42 2.66l.221 1.279c-1.014.24-2.41.434-4.19.58-1.78.147-3.384.221-4.81.221h-1.061v-11.32h1.521v9.979c3.612-.026 6.386-.272 8.319-.739zm3-10.98v6.94h2.86v1.3h-2.86v9.24h-1.52v-17.48h1.52zm17.94 13.14h-8.22v-11.66h1.521v4.439h5.159v-4.439h1.54v11.66zm-1.54-1.28v-4.681h-5.159v4.681h5.159zm9.02-3.62h-2.84v9.24h-1.521v-17.48h1.521v6.94h2.84v1.3zm16.8 7.02h-15.78V37.98h7.101V35h-5.16v-5.46h10.359v-2.8h-10.38v-1.28h11.9v5.34h-10.36v2.92h10.86V35h-5.7v2.98h7.16v1.279zm22.56-.36h-15.78v-1.28h15.78v1.28zm-2.26-12.94c0 4.307-.261 7.754-.78 10.34l-1.52-.2c.492-2.279.739-5.239.739-8.88h-10.319v-1.26h11.88zm19.559 6.76h-15.78v-1.22h15.78v1.22zm-1.5 8.46h-12.42v-4.14h10.36v-1.62h-10.381v-1.2h11.9v3.94h-10.36v1.82h10.9v1.2zm-.28-11.14h-12.08v-5.26h11.88v1.24h-10.34v2.8h10.54v1.22zm7.42-4.519c1.173 0 2.09.489 2.75 1.47.66.979 1.023 2.29 1.09 3.93h1.88v-6.58h1.48v16.3h-1.48v-8.46h-1.88c-.08 1.627-.446 2.917-1.1 3.87-.653.954-1.567 1.431-2.74 1.431-1.24 0-2.189-.544-2.85-1.631-.66-1.086-.99-2.536-.99-4.35s.33-3.263.99-4.35 1.61-1.63 2.85-1.63zm1.7 9.359c.427-.84.64-1.967.64-3.38s-.213-2.54-.64-3.38-.993-1.26-1.7-1.26c-.693 0-1.25.42-1.67 1.26s-.63 1.967-.63 3.38.206 2.54.62 3.38c.413.84.973 1.26 1.68 1.26s1.273-.42 1.7-1.26zm8.92 6.6h-1.5v-17.48h1.5v17.48zm9.94-15.44c-.12 5.067-2.293 8.967-6.52 11.7l-1.04-1.12c1.786-1.013 3.21-2.36 4.27-4.04 1.061-1.68 1.637-3.434 1.73-5.26h-5.32v-1.28h6.88zm3.96 14.56h-1.46v-8.52h-2.939v-1.28h2.939v-6.38h1.46v16.18zm3.4.88h-1.5v-17.48h1.5v17.48zm14.159-.52h-1.52v-6c-1.094.054-2.674.094-4.74.12l-.24-1.36c2.974 0 4.947-.02 5.92-.06 2.267-.066 4.301-.193 6.101-.38l.06 1.18c-1.093.147-2.953.287-5.58.42v6.08zm3.901-12.34c0 1.094-.427 1.987-1.28 2.68-.854.693-1.953 1.04-3.3 1.04-1.36 0-2.467-.347-3.32-1.04-.854-.692-1.279-1.586-1.279-2.68 0-1.106.426-2.01 1.279-2.71s1.96-1.05 3.32-1.05c1.347 0 2.446.35 3.3 1.05s1.28 1.604 1.28 2.71zm-1.481 0c0-.773-.293-1.38-.88-1.82-.587-.439-1.326-.66-2.22-.66-.907 0-1.657.221-2.25.66-.594.44-.89 1.047-.89 1.82 0 .76.296 1.356.89 1.79.593.434 1.343.65 2.25.65.894 0 1.633-.217 2.22-.65s.88-1.03.88-1.79zm5.681 12.86h-1.54v-17.48h1.54v17.48zm13.099-12.02h-10.32v-1.26h10.32v1.26zm-1.04 4.74c0 1.026-.38 1.884-1.14 2.57-.761.687-1.74 1.029-2.94 1.029s-2.18-.34-2.939-1.02c-.761-.681-1.141-1.54-1.141-2.58s.38-1.903 1.141-2.59c.76-.687 1.739-1.03 2.939-1.03s2.18.344 2.94 1.03c.76.688 1.14 1.551 1.14 2.591zm-1.54-7.7h-5.14v-1.3h5.14v1.3zm.021 7.7c0-.693-.24-1.257-.721-1.69-.479-.433-1.093-.649-1.84-.649-.733 0-1.344.22-1.83.66-.486.439-.729 1-.729 1.68s.243 1.24.729 1.68c.486.44 1.097.66 1.83.66.747 0 1.36-.22 1.84-.66.481-.441.721-1.001.721-1.681zm8.599-1.54h-2.84v8.82h-1.521v-17.48h1.521v7.38h2.84v1.28zm1.12-1.26c0-1.88.38-3.38 1.14-4.5s1.82-1.681 3.18-1.681c1.373 0 2.44.561 3.2 1.681s1.14 2.627 1.14 4.52c0 1.88-.38 3.377-1.14 4.49s-1.827 1.67-3.2 1.67c-1.359 0-2.42-.557-3.18-1.67s-1.14-2.616-1.14-4.51zm7.16.02c0-1.453-.26-2.63-.779-3.53-.521-.899-1.207-1.35-2.061-1.35-.84 0-1.52.453-2.04 1.36-.52.906-.779 2.08-.779 3.52 0 1.427.26 2.59.779 3.49.521.9 1.2 1.35 2.04 1.35.854 0 1.54-.449 2.061-1.35.519-.9.779-2.063.779-3.49zm5.56-2.26h-3.54v-1.26h3.54v-3.9h1.52v17.48h-1.52v-6.7h-3.54v-1.26h3.54v-4.36zm14.94 6.98l-.939 1.16c-.867-.586-1.721-1.387-2.561-2.399-.84-1.014-1.427-2.014-1.76-3-.307 1.066-.85 2.113-1.63 3.14-.78 1.027-1.69 1.913-2.73 2.66l-1-1.14c1.307-.827 2.394-1.957 3.261-3.391.866-1.433 1.3-2.903 1.3-4.41V25.52h1.58v3.18c0 1.533.43 2.97 1.29 4.31.859 1.339 1.922 2.383 3.189 3.129zm3.88 5.34h-1.52v-9.96h-4.08v-1.28h4.08v-6.24h1.52v17.48zm3.04-1.74v-1.78h1.74v1.78h-1.74zm18.539-7.4l-.819 1.16c-.773-.36-1.5-.883-2.181-1.57-.68-.687-1.173-1.376-1.479-2.069-.227.72-.68 1.489-1.36 2.31-.68.82-1.42 1.464-2.22 1.93l-.94-1.159c1.027-.547 1.907-1.333 2.641-2.36.732-1.026 1.1-2.153 1.1-3.38V25.02h1.48v2.141c0 1.213.383 2.273 1.149 3.18.765.905 1.642 1.571 2.629 1.998zm4.48 3.52c1.053.573 1.58 1.359 1.58 2.359s-.527 1.787-1.58 2.36c-1.054.573-2.514.86-4.38.86-1.854 0-3.307-.287-4.36-.86s-1.58-1.36-1.58-2.36.526-1.786 1.58-2.359 2.507-.86 4.36-.86c1.866 0 3.326.287 4.38.86zm-1.21.951c-.78-.354-1.837-.53-3.17-.53-1.334 0-2.391.177-3.17.53-.78.353-1.17.823-1.17 1.409 0 .601.39 1.077 1.17 1.431.779.354 1.836.529 3.17.529 1.333 0 2.39-.176 3.17-.529s1.17-.83 1.17-1.431c0-.586-.39-1.057-1.17-1.409zm2.63-1.771h-1.52v-5.14h-2.181v4.279h-1.479v-9.859h1.479v4.3h2.181v-4.62h1.52v11.04zm14.38 2c-1.427.174-3.5.32-6.22.44-1.987.093-3.754.153-5.301.18l-.279-1.34c1.732.026 3.626-.021 5.68-.141 2.653-.093 4.646-.22 5.98-.38l.14 1.241zm-1.74-7.519c0 1.213-.434 2.193-1.3 2.939-.867.747-1.947 1.12-3.24 1.12s-2.377-.387-3.25-1.16-1.31-1.74-1.31-2.899c0-1.214.437-2.21 1.31-2.99s1.957-1.17 3.25-1.17c1.32 0 2.407.38 3.26 1.14.853.759 1.28 1.766 1.28 3.02zm-1.48 0c0-.867-.294-1.561-.88-2.08-.587-.521-1.313-.78-2.181-.78-.854 0-1.58.273-2.18.82-.601.547-.9 1.227-.9 2.04 0 .8.297 1.463.891 1.989.593.527 1.323.79 2.189.79.854 0 1.577-.263 2.17-.79.594-.527.891-1.19.891-1.989zm4.239-5.521h1.521v17.48h-1.521v-17.48zm18.621 1.88c-.054 2.72-.787 5.113-2.2 7.181-1.413 2.066-3.307 3.713-5.68 4.939l-.94-1.2c2.133-.986 3.823-2.336 5.07-4.05 1.246-1.713 1.95-3.576 2.109-5.59h-6.579v-1.28h8.22zm4.54-1.88v7.28h2.859v1.3h-2.859v8.9h-1.521v-17.48h1.521zm14.979 12.8l-.8 1.221c-.974-.453-1.937-1.157-2.89-2.11-.954-.953-1.584-1.877-1.891-2.771-.24.921-.816 1.897-1.729 2.931-.914 1.033-1.857 1.803-2.83 2.31l-.9-1.12c1.253-.6 2.34-1.543 3.26-2.83.92-1.286 1.381-2.696 1.381-4.229v-.54h-4.101v-1.26h9.74v1.26h-4.08v.52c0 1.521.496 2.897 1.49 4.131.994 1.231 2.11 2.06 3.35 2.487zm-2.96-10.38h-5.3v-1.38h5.3v1.38zm6.24 15.06h-1.54v-17.48h1.54v17.48zm18.68-8.16h-15.78v-1.181h15.78v1.181zm-1.32 7.84h-12.64v-3.88h10.58v-1.46h-10.561v-1.12h12.08v3.66h-10.58v1.6h11.12v1.2zm-.3-10.4h-12.16v-3.62h10.3V25.78h-10.319v-1.2h11.84v3.66h-10.3v1.38h10.64v1.139zm17.199 3.28h-8.26v-8.86h1.521v3h5.199v-3h1.54v8.86zm-1.54-1.24v-3.38h-5.199v3.38h5.199zm6.86 8.08h-11.8v-5.38h1.52v4.12h10.28v1.26zm1.981-10.4h-2.66v6.199h-1.521v-12.68h1.521v5.2h2.66v1.281zm6.979.081l-.88 1.079c-.334-.213-.667-.51-1-.89-.334-.38-.567-.736-.7-1.07-.146.574-.487 1.197-1.02 1.87-.534.674-1.107 1.217-1.721 1.63l-.939-1.02c.88-.521 1.59-1.24 2.13-2.16s.81-1.906.81-2.96v-.5h-2.319v-1.26h5.08v1.26h-1.341v.521c0 1.679.634 2.846 1.9 3.5zm7.92 10.879h-1.52v-4.94h-10.021v-1.26h11.54v6.2zm-2.099-9.54l-.841 1.1c-.52-.28-1.05-.703-1.59-1.27-.54-.567-.896-1.137-1.069-1.71-.147.64-.507 1.347-1.08 2.119-.573.773-1.207 1.394-1.9 1.86l-.96-1.02c.96-.627 1.73-1.453 2.311-2.48.579-1.026.869-2.173.869-3.439v-.521h-1.56v-1.26h5.12v1.26h-2.12v.46c0 1.227.263 2.25.79 3.07.526.821 1.203 1.431 2.03 1.831zm4.54-1.94h-2.46v4.36h-1.5v-10.32h1.5v4.68h2.46v1.28zm1.739 1.52c0-1.867.396-3.36 1.19-4.48.793-1.12 1.896-1.68 3.31-1.68 1.427 0 2.537.56 3.33 1.68s1.19 2.62 1.19 4.5-.397 3.38-1.19 4.5-1.903 1.68-3.33 1.68c-1.413 0-2.517-.56-3.31-1.68-.793-1.12-1.19-2.627-1.19-4.52zm6.731 3.53c.566-.899.85-2.069.85-3.51 0-1.439-.283-2.61-.85-3.51-.567-.9-1.311-1.351-2.23-1.351s-1.66.45-2.22 1.351c-.561.899-.84 2.07-.84 3.51s.279 2.61.84 3.51c.56.9 1.3 1.351 2.22 1.351s1.662-.451 2.23-1.351zm7.069 6.47h-1.52v-17.48h1.52v17.48zm18.7-7.18h-15.78V33.02h15.78v1.279zm-1.68 6.8h-12.04V35.94h1.52v3.899h10.521v1.26zm-.08-10.26h-11.9v-6.1h1.521v4.84h10.38v1.26zm8.76.56c0-1.88.39-3.38 1.17-4.5.779-1.12 1.862-1.681 3.25-1.681 1.293 0 2.319.494 3.08 1.48.76.986 1.192 2.327 1.3 4.02h3.739v-6.72h1.521v17.48h-1.521v-9.46h-3.739c-.08 1.706-.504 3.06-1.271 4.06s-1.803 1.5-3.109 1.5c-1.388 0-2.471-.557-3.25-1.67-.78-1.112-1.17-2.615-1.17-4.509zm7.319.02c0-1.439-.27-2.613-.81-3.52s-1.237-1.36-2.09-1.36c-.867 0-1.567.453-2.101 1.36-.533.906-.8 2.08-.8 3.52 0 1.427.267 2.59.8 3.49s1.233 1.35 2.101 1.35c.853 0 1.55-.449 2.09-1.35s.81-2.063.81-3.49zm12.241 4.32c3.04.094 5.786-.094 8.24-.561l.18 1.261c-1.88.359-4.493.573-7.84.64h-2.101v-11.34h8.34v1.28h-6.819v8.72zm11.819 5.74h-1.52v-17.48h1.52v17.48zm24.04-2.58h-15.78v-1.28h15.78v1.28zm-2.26-12.94c0 4.307-.261 7.754-.78 10.34l-1.52-.2c.492-2.279.739-5.239.739-8.88h-10.319v-1.26h11.88zm19.56 6.76h-15.78v-1.22h15.78v1.22zm-1.5 8.46h-12.42v-4.14h10.36v-1.62H622.11v-1.2h11.9v3.94h-10.36v1.82h10.9v1.2zm-.28-11.14h-12.08v-5.26h11.88v1.24h-10.34v2.8h10.54v1.22zm15.12 7c-1.427.174-3.5.32-6.22.44-1.987.093-3.754.153-5.301.18l-.279-1.34c1.732.026 3.626-.021 5.68-.141 2.653-.093 4.646-.22 5.98-.38l.14 1.241zm-1.741-7.519c0 1.213-.434 2.193-1.3 2.939-.867.747-1.947 1.12-3.24 1.12s-2.377-.387-3.25-1.16-1.31-1.74-1.31-2.899c0-1.214.437-2.21 1.31-2.99s1.957-1.17 3.25-1.17c1.32 0 2.407.38 3.26 1.14.854.759 1.28 1.766 1.28 3.02zm-1.479 0c0-.867-.294-1.561-.88-2.08-.587-.521-1.313-.78-2.181-.78-.854 0-1.58.273-2.18.82-.601.547-.9 1.227-.9 2.04 0 .8.297 1.463.891 1.989.593.527 1.323.79 2.189.79.854 0 1.577-.263 2.17-.79.594-.527.891-1.19.891-1.989zm4.239-5.521h1.521v17.48h-1.521v-17.48zm10.3 7.48c0-1.867.396-3.36 1.19-4.48.793-1.12 1.896-1.68 3.31-1.68 1.427 0 2.537.56 3.33 1.68s1.19 2.62 1.19 4.5-.397 3.38-1.19 4.5-1.903 1.68-3.33 1.68c-1.413 0-2.517-.56-3.31-1.68-.794-1.12-1.19-2.627-1.19-4.52zm6.73 3.53c.566-.899.85-2.069.85-3.51 0-1.439-.283-2.61-.85-3.51-.567-.9-1.311-1.351-2.23-1.351s-1.66.45-2.22 1.351c-.561.899-.84 2.07-.84 3.51s.279 2.61.84 3.51c.56.9 1.3 1.351 2.22 1.351s1.663-.451 2.23-1.351zm7.07 6.47h-1.52v-17.48h1.52v17.48zm3.82-16h7.96c-.12 2.307-.88 4.243-2.28 5.81-1.399 1.567-3.28 2.757-5.64 3.57l-.8-1.28c1.933-.507 3.54-1.377 4.819-2.61 1.28-1.232 2.021-2.636 2.221-4.21h-6.28v-1.28zm14.56 14.7l-.68 1.2c-1.254-.213-2.467-.717-3.64-1.51-1.174-.793-1.974-1.663-2.4-2.61-.333.907-1.11 1.771-2.33 2.59-1.22.82-2.497 1.357-3.83 1.61l-.7-1.24c1.493-.187 2.88-.772 4.16-1.76 1.28-.986 1.92-2.087 1.92-3.3v-.98h1.601v.98c0 1.187.616 2.267 1.85 3.24 1.232.973 2.582 1.567 4.049 1.78zm-2.701-10.1h-3.84v-1.3h3.84v-4.78h1.521v11.74h-1.521v-5.66zm5.121 1.4c0-1.867.396-3.36 1.19-4.48.793-1.12 1.896-1.68 3.31-1.68 1.427 0 2.537.56 3.33 1.68s1.19 2.62 1.19 4.5-.397 3.38-1.19 4.5-1.903 1.68-3.33 1.68c-1.413 0-2.517-.56-3.31-1.68-.794-1.12-1.19-2.627-1.19-4.52zm6.73 3.53c.566-.899.85-2.069.85-3.51 0-1.439-.283-2.61-.85-3.51-.567-.9-1.311-1.351-2.23-1.351s-1.66.45-2.22 1.351c-.561.899-.84 2.07-.84 3.51s.279 2.61.84 3.51c.56.9 1.3 1.351 2.22 1.351s1.663-.451 2.23-1.351zm7.069 6.47h-1.52v-17.48h1.52v17.48zm5.141-5.58h1c3.187 0 5.652-.187 7.399-.561l.16 1.26c-2.094.4-4.887.601-8.38.601h-1.72v-11.38h8.3v1.279h-6.76v8.801zm11.26-11.9v6.94h2.84v1.279h-2.84v9.261h-1.521v-17.48h1.521zm3.899 15.74v-1.78h1.74v1.78h-1.74z" fill="#808285"/></svg>