<svg xmlns="http://www.w3.org/2000/svg" width="62.774" height="8.112"><path d="M0 4.4c.395-1.925 1.037-2.888 1.928-2.888h.136C3.622 1.838 4.4 2.526 4.4 3.576v.272c-.256 1.557-1.035 2.336-2.337 2.336h-.551C.69 6.184.187 5.589 0 4.4zm1.376-.272v.544c.031.187.125.28.279.28h.272c.826-.123 1.24-.536 1.24-1.24-.299-.64-.667-.96-1.104-.96-.459.528-.687.987-.687 1.376zm4.264-.28v-.544c.026-.187.117-.28.271-.28H8.8v-2.2c0-.55.228-.824.687-.824.368.139.552.277.552.416 0 2.075.046 4.32.137 6.736-.117.458-.254.688-.408.688h-.552c-.278-.091-.416-.365-.416-.824V4.264H6.464c-.475 0-.75-.139-.824-.416zM11.296 3.024c0-1.28.274-1.92.823-1.92.368.09.553.365.553.824v1.376H14.6v-1.52c0-.128.136-.264.408-.408h.416c.133 0 .271.136.416.408.09 1.611.136 2.573.136 2.888 0 1.467-.779 2.2-2.336 2.2h-.832c-1.008 0-1.512-1.283-1.512-3.848zm1.376 1.512v.136l.136.968c.059 0 .656-.045 1.792-.136v-.968h-.136c-.955.091-1.507.136-1.656.136 0-.091-.046-.136-.136-.136zm7.567-4.4c.459 0 .688 1.056.688 3.168V5.64c0 .326.045.736.136 1.232-.058.459-.333.688-.824.688-.368 0-.552-.365-.552-1.096 0-2.16-.046-4.085-.136-5.776.091-.368.32-.552.688-.552zM26.56 2.064c.181-.421.365-.651.552-.688h2.336c.31 0 .538.045.688.136l.824-.136h.968c.918 0 1.376.365 1.376 1.096 0 .075-.229.672-.688 1.792 1.019.619 1.613 1.078 1.784 1.376v.408c0 .208-.229.347-.688.416-1.146-.736-1.786-1.104-1.92-1.104v.144c-.416.912-.693 1.368-.832 1.368h-.408c-.117 0-.392-.411-.823-1.232-.123-.09-.353-.136-.688-.136-.128.373-.357.648-.688.824h-.416c-.208 0-.345-.229-.408-.688l1.647-3.024c-.698 0-1.293.045-1.784.136-.369 0-.646-.23-.832-.688zm4.128 2.752h.136c0-.187.368-.92 1.104-2.2h-.279c-.918 0-1.376.275-1.376.824-.225.363-.36.544-.408.544.014.203.288.48.823.832zM36.191.272L36.599 0h.416c.363.09.545.595.545 1.512 0 .352.048 2.277.144 5.776-.139.368-.277.552-.416.552h-.408l-.416-.28-.273-7.288zM39.375 1.512h.408c.276 0 .416.184.416.552-.091.811-.137 1.314-.137 1.512h2.336V1.784c0-.133.185-.269.553-.408.549 0 .823.595.823 1.784v.968c0 1.925-.322 2.888-.968 2.888h-2.744c-.826-.123-1.239-.536-1.239-1.24V3.16c0-1.099.184-1.648.552-1.648zm.688 3.304v.96h2.336v-.824l-.688-.136h-1.648zm6.463 2.2c0-2.187.046-4.435.137-6.744L47.207 0c.458.128.688.448.688.96v2.48h2.064c.277.091.416.365.416.824l-.552.408h-2.064v1.24c0 .384.045.888.136 1.512-.133.368-.27.552-.408.552h-.417c-.362-.149-.544-.47-.544-.96zM51.495 3.024v-.408c0-.133.138-.272.416-.416h3.159c.641 0 .96.32.96.96 0 .219-.274.723-.823 1.512 1.194.816 1.792 1.275 1.792 1.376V6.6c0 .182-.094.272-.28.272h-.544L54.383 5.64c-.208.443-.573.854-1.096 1.232h-.416c-.208 0-.345-.229-.408-.688 1.231-1.707 1.872-2.576 1.92-2.608V3.44h-2.064c-.475 0-.75-.139-.824-.416zm.416-2.472c.149-.368.469-.552.96-.552h2.199c.368.187.553.416.553.688-.139.368-.277.552-.416.552h-1.376c-.326 0-.736.045-1.232.136-.421-.176-.65-.36-.688-.552V.552zm5.36 2.888h2.064V1.512c0-.549.229-.824.688-.824.368.09.552.365.552.824v5.912c0 .133-.139.272-.416.416h-.416c-.271-.091-.407-.365-.407-.824V4.672c-.604 0-1.152.048-1.648.144-.646-.123-.968-.445-.968-.968l.551-.408zm4.127 3.712V.688c0-.133.136-.272.408-.416h.416l.408.28c.096 1.691.144 2.928.144 3.712v2.888c0 .491-.184.811-.552.96h-.272c-.367-.15-.552-.469-.552-.96z"/></svg>